<?xml version="1.0" standalone="no"?>
<!DOCTYPE svg PUBLIC "-//W3C//DTD SVG 1.1//EN" "http://www.w3.org/Graphics/SVG/1.1/DTD/svg11.dtd" >
<svg xmlns="http://www.w3.org/2000/svg" xmlns:xlink="http://www.w3.org/1999/xlink" version="1.1">
<metadata>
Created by FontForge 20200511 at Thu May 14 21:57:05 2009
 By convertio
Created by Yayasan Bali Simbar
</metadata>
<defs>
<font id="BaliSimbarDJ-Bold" horiz-adv-x="0" >
  <font-face 
    font-family="Bali Simbar DJ"
    font-weight="700"
    font-stretch="normal"
    units-per-em="2048"
    panose-1="2 11 8 3 5 3 2 2 2 4"
    ascent="1638"
    descent="-410"
    x-height="929"
    cap-height="1919"
    bbox="-2039 -1831 3007 2093.05"
    underline-thickness="100"
    underline-position="-40"
    unicode-range="U+0020-2122"
  />
<missing-glyph horiz-adv-x="1" 
 />
    <glyph glyph-name=".notdef" horiz-adv-x="1" 
 />
    <glyph glyph-name="five" unicode="5" horiz-adv-x="1180" 
d="M896 -382q0 61 10.5 146t27.5 200q2 15 4.5 31t4.5 32q19 135 25 231.5t6 162.5q0 111 -19 189.5t-59 128t-100.5 72.5t-144.5 23q-67 0 -125.5 -15.5t-102 -51t-68.5 -92t-25 -138.5q0 -89 16.5 -152t49 -102.5t81.5 -58t115 -18.5q78 0 115 21t37 78q0 7 -8.5 16.5
t-21.5 18.5t-27.5 15t-26.5 6q-2 0 -9 -4q-32 3 -50.5 3.5t-36.5 0.5h-23.5t-27.5 -1h-9t-13 -0.5t-14 -0.5h-10l13 114q40 0 66 0.5t43 1t26.5 1.5t15.5 3q16 4 31 12.5t27 19t19 22.5t7 24q0 18 -9.5 32.5t-22.5 24.5t-27 15.5t-22 5.5q-42 0 -75 -33t-68 -84l-88 31
q11 66 33 114t52.5 79t68.5 45.5t82 14.5q48 0 85 -18.5t63 -50t39.5 -73.5t13.5 -88q0 -35 -12 -72t-50 -63q31 -15 51.5 -37.5t32 -50t16 -59t4.5 -62.5q0 -44 -26 -85t-68 -73t-93.5 -51.5t-102.5 -19.5q-73 0 -131 21t-102.5 57t-76 84.5t-51.5 102.5t-29.5 111
t-9.5 111q0 64 8 127.5t28 120.5t54 105.5t85 84t121.5 55.5t164.5 20q111 -1 199.5 -32t151 -97.5t95.5 -173t33 -259.5q0 -47 -7 -116.5t-17 -148.5q-5 -35 -9 -74t-9 -80q-3 -26 -6 -50.5t-6 -47.5q-12 -93 -20 -167t-8 -125q0 -73 6.5 -157.5t19.5 -165.5t33 -151.5
t47 -115.5l-18 -149q-35 26 -67 72.5t-58.5 106.5t-48 129.5t-37 141.5t-23.5 143.5t-8 135.5z" />
    <glyph glyph-name="six" unicode="6" horiz-adv-x="1504" 
d="M1334 0q-9 39 -28 69.5t-44 55t-53 44.5t-55 37l2 -1q-132 68 -301 68q-65 0 -120.5 -21.5t-100 -59t-78 -87t-53.5 -106.5q-153 10 -235 112l1 -1q-21 25 -35 60.5t-22.5 75t-12 80.5t-3.5 77q0 113 48 204.5t140.5 158t227.5 107.5t308 52l9 -126q-63 -5 -115.5 -14
t-97.5 -22.5t-85 -30.5t-79 -36q-54 -28 -93 -56t-64.5 -61.5t-38 -74t-12.5 -93.5q0 -51 7 -87t20.5 -60.5t33 -39.5t44.5 -24q27 81 68.5 137t96.5 91.5t123.5 51.5t149.5 16q117 0 215.5 -35.5t171.5 -100t116.5 -156.5t48.5 -204h-105z" />
    <glyph glyph-name="seven" unicode="7" horiz-adv-x="1893" 
d="M1577 988q-29 40 -67 40q-12 0 -20.5 -2t-10.5 -7l1 1q-4 -10 -6.5 -18t-6.5 -17q17 -50 144 -68q-8 24 -15.5 41t-18.5 30zM640 -2q-130 0 -192 97t-62 301q0 17 1.5 56t3.5 81q2 43 4 81.5t2 56.5q0 14 -5.5 27.5t-23.5 13.5q-16 0 -25.5 -9.5t-14.5 -23.5t-6.5 -29
t-1.5 -25q2 -30 5.5 -68.5t5.5 -67.5l-94 -34q-17 84 -25.5 137.5t-8.5 78.5q0 58 15 107t43 84t67 54.5t86 19.5q24 0 43.5 -11t34 -30.5t22 -45t7.5 -53.5q0 -32 -5 -91.5t-12 -125.5q-3 -33 -6.5 -65.5t-6 -61t-4 -51.5t-1.5 -38q0 -48 12.5 -82.5t41.5 -55.5
q-13 38 -16.5 66t-3.5 56v22.5t1 22.5t1 24.5v26.5q0 50 2 106t13 110.5t33 103.5t61.5 86.5t100.5 59.5t148 22q157 -3 229.5 -59.5t76.5 -165.5l11 -325q3 -83 53.5 -129t138.5 -46q78 0 133.5 28t87.5 70q54 71 54 230q0 84 -21 197q-154 7 -226.5 67.5t-72.5 175.5
q0 163 160 163q113 0 210 -213q71 38 183 145l54 -70q-62 -193 -204 -252q4 -60 7 -118.5t7 -118.5v-11.5t1 -20.5q0 -10 0.5 -18.5t0.5 -10.5q0 -207 -93 -324q-26 -33 -53.5 -57t-60 -39.5t-72.5 -23t-92 -7.5q-50 0 -101 16.5t-92.5 47t-69 73t-31.5 94.5
q-5 74 -10 149.5t-10 149.5q-3 39 -19.5 68t-44 48.5t-63.5 29t-78 9.5q-64 0 -109 -17.5t-73.5 -57.5t-41.5 -104.5t-13 -158.5q0 -87 122 -275h-1l4 -4q6 -9 9 -16.5t3 -16.5q0 -35 -49 -35h-84z" />
    <glyph glyph-name="nine" unicode="9" horiz-adv-x="1714" 
d="M1399 1014q-37 39 -69 62t-58 26q-22 -3 -22 -13q0 -12 8.5 -26t24.5 -25t37.5 -18.5t48.5 -7.5h14.5t15.5 2zM1736 1138q0 -139 -147 -271q49 -211 49 -339q0 -113 -25 -210.5t-72 -169t-114 -112t-151 -40.5q-69 0 -119.5 32t-88 96.5t-64.5 161.5t-49 226
q-11 -56 -26 -115.5t-37.5 -117t-53.5 -109t-73 -90t-97 -61.5t-125 -23q-60 0 -109 20t-83.5 56t-53.5 87.5t-19 114.5q0 68 59 230q28 75 43 125.5t15 89.5q0 8 -2 11.5t-10 3.5t-16 -1t-10 -8q-24 -29 -37 -91t-22 -171h-44q-1 0 -3 -0.5t-5 -0.5t-10 -0.5t-24 -2.5
q-12 78 -12 102q0 83 14.5 153t42 121t66.5 79.5t87 28.5q134 0 134 -144q0 -34 -16 -86t-47 -124q-61 -134 -61 -199q0 -32 11 -61t30 -51t45 -34.5t57 -12.5q237 0 350 593l102 54l24 -225q11 -104 35 -181t62 -128t92 -76t125 -25q39 0 71 26.5t54.5 72.5t34.5 106.5
t12 128.5q0 54 -9 114t-29 129q-20 -4 -34.5 -6.5t-23.5 -2.5q-135 0 -219 82q-15 15 -30 38t-27 50t-19 56t-7 56q0 25 7.5 48t21.5 41t33.5 28.5t44.5 10.5q33 0 58 -3t44.5 -9t35.5 -15t32 -21q22 -17 50 -42.5t57 -73.5q35 21 73.5 69.5t84.5 126.5q67 -73 67 -115z" />
    <glyph glyph-name="colon" unicode=":" horiz-adv-x="747" 
d="M353 240q9 0 18 0.5t17 1.5l-27 22q-16 11 -24 11t-11 -12q2 -14 9.5 -18.5t17.5 -4.5zM353 592q9 0 18 0.5t17 1.5l-27 22q-14 11 -24 11q-8 0 -11 -12q2 -14 9.5 -18.5t17.5 -4.5zM583 196q-91 -82 -223 -82q-38 0 -70 9t-55 27t-36 45.5t-13 64.5q0 74 36.5 113
t121.5 35q45 -3 70.5 -30t46.5 -87q-5 -11 -14 -20.5t-20 -20.5q62 18 107.5 61.5t80.5 100.5l82 8q-35 -153 -113 -224h-1zM583 548q-91 -82 -223 -82q-38 0 -70 9t-55 27.5t-36 46t-13 63.5q0 74 36.5 113t121.5 36q44 -3 70 -31t47 -88q-6 -11 -14 -20t-19 -19
q61 18 106 61.5t80 100.5l83 10q-35 -156 -113 -227h-1z" />
    <glyph glyph-name="semicolon" unicode=";" horiz-adv-x="779" 
d="M486 -1422q0 -75 15.5 -150.5t44.5 -153.5l-62 -62q-67 144 -101 276t-34 256q0 100 31.5 244.5t91.5 332.5q56 179 87.5 324t31.5 240q0 97 -26 166.5t-74 109.5q-36 27 -104.5 50.5t-165.5 39.5l54 151l121 -25q5 -1 18 -1q28 0 57 15t52.5 42t38 66t14.5 87
q0 22 -12.5 41t-32.5 32t-46.5 20.5t-53.5 7.5q-82 0 -110 -52v1q-19 -32 -28 -174l-79 -10q-27 105 -27 142q0 32 1 62t6 58t15 54t27 50v-1q38 55 98 82.5t123 27.5q260 0 260 -300q0 -111 -47.5 -197t-147.5 -146q65 -36 105 -83t62 -105t29.5 -128t7.5 -152v-33
q-2 -107 -30 -257t-90 -352q-61 -200 -90.5 -346t-29.5 -250z" />
    <glyph glyph-name="less" unicode="&#x3c;" horiz-adv-x="2431" 
d="M1393 591q0 318 242 318q298 0 298 -428q0 -25 -2.5 -73t-6.5 -102q-4 -55 -7.5 -105.5t-3.5 -77.5q0 -251 120 -251q102 0 131 71q17 42 17 206q18 4 40.5 8t36.5 7q3 1 9.5 2.5t14 3.5t14.5 3.5t10 2.5q2 -38 4.5 -78t6.5 -77v-46q0 -319 -284 -319q-252 0 -252 463
q0 22 1.5 67t3.5 96q1 25 2.5 50.5t2.5 48t1.5 41t0.5 30.5q0 233 -142 233q-54 0 -84.5 -43t-36.5 -121q-3 -44 -6.5 -88t-6.5 -88q-4 -44 -7 -88t-6 -87q-36 -213 -220 -213q-210 0 -261 213q0 116 -3.5 210.5t-15 161t-34.5 103t-62 36.5q-20 3 -33 3q-60 0 -92.5 -49
t-38.5 -138q-5 -111 -11 -194t-11 -127q-27 -211 -209 -211q-97 0 -161.5 39.5t-95.5 116.5q-34 91 -38 313q24 5 50.5 9t46.5 6h-1q1 0 6.5 1t11.5 2.5t11.5 2.5t7.5 1q5 -97 9.5 -147.5t7.5 -59.5q22 -70 117 -70q125 0 125 261v88q0 11 -0.5 22t-1.5 19v27q0 70 20.5 128
t57 99t87.5 63.5t112 22.5q94 0 150.5 -53.5t81.5 -160.5v-185q0 -333 145 -333q14 0 38 9.5t60 29.5q12 26 21 56.5t12 62.5v256z" />
    <glyph glyph-name="equal" unicode="=" horiz-adv-x="1495" 
d="M215 223v134h1208v-134h-1208zM215 443v134h1208v-134h-1208z" />
    <glyph glyph-name="greater" unicode="&#x3e;" horiz-adv-x="2241" 
d="M1965 268q-1 109 -16.5 191.5t-50.5 145.5q4 -47 4.5 -92.5t0.5 -90.5v-696q2 -2 3.5 -2t3.5 -2q7 -5 11 -7t9 -5t13 -8.5t23 -15.5v219q0 14 -0.5 31t-0.5 37v33q0 8 0.5 16t0.5 17zM1333 927q329 0 329 -585q0 -18 -0.5 -55t-2.5 -82q-1 -26 -1.5 -55.5t-1 -58
t-1 -52.5t-0.5 -39h-109v27t0.5 40t1 46.5t0.5 47.5q0 22 0.5 46.5t1 46.5t1 40.5t0.5 29.5q0 369 -229 369q-43 0 -74.5 -7t-58 -27.5t-52 -56.5t-57.5 -94q-19 4 -25.5 6t-11.5 4q-2 1 -7 3t-7 3q-56 160 -199 160q-225 0 -225 -261q0 -110 34.5 -197t93.5 -159
q12 -20 12 -31q0 -20 -16 -28.5t-35 -8.5q-161 0 -242 79t-81 257q0 22 2 63.5t4 86.5q2 42 4 77t2 53q0 53 -3.5 72.5t-19.5 21.5q-43 -3 -55 -62q0 -44 -1.5 -90t-3.5 -79q-20 -3 -25 -5q-10 -2 -18.5 -4.5t-29.5 -5.5q-21 148 -21 200q0 242 197 260q92 -11 92 -100
q0 -25 -4.5 -75t-9.5 -110q-3 -34 -6.5 -68t-6 -65t-4 -56.5t-1.5 -42.5q0 -164 87 -270q1 -4 7 -4q-29 98 -43.5 178.5t-14.5 143.5q0 103 20.5 189.5t60 149t96 97.5t128.5 35h12q123 0 251 -155q1 -3 2 -9t2 -14q17 38 39.5 71t52.5 57t68.5 38t86.5 14h15zM1736 930
q250 -39 309 -281q15 -61 22 -173t7 -289v-593q72 -106 128 -213.5t97 -202.5q15 -49 41.5 -170.5t62.5 -326.5l-99 -34q-11 90 -30.5 179.5t-42.5 162.5q-26 80 -66.5 155t-92.5 141v-1013h-113v1131q-3 2 -6.5 4.5t-5.5 4.5q-16 12 -25.5 18t-18.5 16q1 -180 1.5 -359.5
t1.5 -359.5q0 -112 -12 -190t-35 -128q-69 -137 -269 -137q-131 0 -208 100q-5 9 -12 20.5t-12 22.5v-1q-15 27 -33.5 60t-43.5 73q-26 35 -61 55.5t-80 20.5q-101 0 -161 -81l2 2q-14 -27 -36.5 -70.5t-48.5 -98.5q-66 -103 -184 -103q-395 0 -395 620q0 171 50.5 387
t157.5 488q9 -5 21.5 -11t26 -13t26 -13t19.5 -9q-91 -185 -138.5 -358.5t-47.5 -345.5q0 -502 322 -502q68 0 131 89l-2 -1q8 14 16 27.5t16 26.5q15 27 30 53t30 50q74 98 155 98q115 0 176 -94q20 -41 40 -82.5t41 -83.5q54 -73 199 -73q68 0 111.5 25.5t66.5 70.5v-1
q14 29 22.5 86.5t8.5 148.5v661q-74 40 -128 59t-89 19q-16 0 -33.5 -5t-32 -13t-24 -20t-9.5 -25q0 -44 66 -192q36 -78 49.5 -132t16.5 -84q0 -41 -21 -80.5t-54.5 -70t-76 -49.5t-84.5 -19q-75 0 -138.5 42t-109.5 108t-72 148t-26 162q0 25 2.5 50.5t4.5 51.5
q1 10 2.5 28.5t2.5 28.5h5.5t9 -0.5t8.5 -0.5h5q16 -2 27 -3.5t30 -4.5q19 -393 218 -393q120 0 123 149q-91 187 -91 237q0 64 25.5 115t69.5 87t103 55.5t126 19.5q20 0 43 -3t52 -11v692q0 219 -89 427q-5 6 -5 15q0 26 32 26h3z" />
    <glyph glyph-name="at" unicode="@" horiz-adv-x="1386" 
d="M788 532q-41 0 -81 -38t-78 -113q-73 -134 -73 -225q0 -61 46 -61q47 0 89.5 37.5t81.5 108.5v-1q70 128 70 229q0 63 -55 63zM731 -348q-133 0 -242 43t-186.5 121.5t-120 190t-42.5 249.5q0 150 46 272.5t130 209t202.5 134t263.5 47.5q113 0 203.5 -33t153.5 -94.5
t97 -149.5t34 -198q0 -93 -29.5 -180.5t-81.5 -156t-123 -109.5t-153 -41q-108 0 -123 133q-134 -133 -217 -133q-30 0 -56.5 14.5t-46.5 39.5t-31.5 57t-11.5 68q0 73 30 152t85 158q62 85 130 130t140 45q57 0 105 -45q43 26 168 47q-73 -264 -109.5 -397.5t-36.5 -141.5
q0 -24 22 -24q98 0 176 145q70 132 70 254q0 83 -28.5 151t-80 116.5t-123.5 75t-160 26.5q-117 0 -214.5 -45t-167 -123.5t-108 -186.5t-38.5 -234q0 -221 128 -355q126 -135 350 -135q342 0 501 359h93q-25 -75 -58 -139t-69 -108q-89 -100 -205.5 -154.5t-265.5 -54.5z
" />
    <glyph glyph-name="A" unicode="A" horiz-adv-x="1547" 
d="M2036 -1q-32 0 -68 5.5t-76 15.5l-7 107q50 -9 83 -14t50 -5q66 0 123 21.5t99 60.5t65.5 94t23.5 122t-29.5 121.5t-85 92.5t-134.5 58.5t-178 20.5q-235 0 -411 -179q-78 97 -148 139.5t-139 42.5q-7 0 -19 -3q69 -83 102 -167.5t33 -179.5q0 -353 -246 -353
q-26 0 -51 16t-48 41t-43.5 55t-38.5 58q-12 19 -24 37.5t-22.5 32.5t-20 23t-16.5 9q-25 -2 -43.5 -20t-40.5 -50h1q-22 -32 -43.5 -63.5t-42.5 -63.5q-61 -71 -128 -71q-249 0 -249 255q0 58 39 171.5t117 288.5v1q0 13 -9 17q-90 -16 -119 -216l-83 2q6 211 65 309
t178 98q64 -3 88 -30.5t24 -75.5q0 -30 -10 -67t-25.5 -77.5t-35.5 -83.5t-41 -85l-19 -38l1 1q-28 -71 -28 -127q0 -44 20.5 -70t68.5 -26q56 0 90.5 10t45.5 35l26 60t26 59q17 41 44 65.5t82 24.5q69 0 108 -68q112 -198 153 -198q28 0 52.5 12t43 33t29 49t10.5 60
q0 65 -18.5 120t-52 95.5t-80 63t-103.5 22.5q-16 0 -36 -3t-46 -11q22 130 96.5 192t192.5 62q94 0 177.5 -54.5t166.5 -176.5q81 108 188 167.5t232 59.5q120 0 215 -34t161 -97.5t101.5 -154t35.5 -203.5q0 -94 -29 -174.5t-81.5 -140t-126 -93t-162.5 -33.5z" />
    <glyph glyph-name="C" unicode="C" horiz-adv-x="1572" 
d="M321 158q0 -24 6 -30q23 5 56 46.5t73 123.5q-68 -20 -101.5 -54.5t-33.5 -85.5zM2049 -1q-46 0 -144 26l-5 108q48 -11 79.5 -16.5t48.5 -5.5q77 0 138.5 21.5t104 63t65.5 101.5t23 137q0 62 -28 111t-80.5 83t-128 52t-171.5 18q-295 0 -416 -166h-61
q-81 166 -187 166q-18 0 -40 -1.5t-49 -5.5q118 -145 118 -300q0 -82 -24 -153.5t-67.5 -124.5t-103.5 -83.5t-133 -30.5q-32 0 -60 6.5t-60 25t-71 51t-91 85.5q-33 33 -66.5 58.5t-66.5 46.5q-37 -70 -60.5 -113t-33.5 -57q-72 -103 -153 -103q-116 0 -116 155
q0 72 25 133t70 107t108.5 74.5t140.5 35.5q33 66 33 133q0 95 -68 95q-88 0 -201 -284l-84 26q122 451 358 452l60 -9q35 -30 51.5 -69t16.5 -86q0 -27 -14 -97t-44 -185q37 -20 87 -59t110 -96q60 -54 110 -82t91 -28q28 0 52 13t42 35.5t28.5 53t11.5 65.5
q-7 151 -66 229t-171 78h-13.5t-19.5 -1.5t-31 -4t-49 -6.5q97 252 333 252q66 0 118.5 -14t90.5 -40q32 -24 65 -63.5t71 -109.5q78 119 183.5 173t248.5 54q261 -4 386.5 -128.5t125.5 -377.5q0 -49 -6 -95t-21 -87.5t-40 -78.5t-63 -68v1q-119 -96 -287 -96z" />
    <glyph glyph-name="D" unicode="D" horiz-adv-x="1587" 
d="M958 240q-8 0 -11 0.5t-4 1t-2 0.5t-4 -2q7 -33 21.5 -57.5t31.5 -41t34.5 -24.5t30.5 -8q45 0 45 19q0 112 -142 112zM2037 -2q-22 0 -52 2.5t-74 9.5v116q44 -8 70 -11t40 -3q77 0 140 13t112 54q106 86 106 235q0 65 -31.5 115t-91 84.5t-145 52.5t-193.5 18
q-62 0 -118 -11t-110 -31l1 1q-30 -13 -75 -46t-111 -87q-170 166 -291 166q-135 0 -213 -52t-101 -161q5 1 11.5 1h13.5q31 0 58.5 -9t52.5 -22.5t46.5 -30t40.5 -31.5q96 -83 96 -212q0 -84 -46.5 -122t-141.5 -38q-30 0 -62.5 17.5t-61.5 54.5q-20 26 -42.5 58t-36.5 73
q-24 -11 -52 -28t-56 -36t-54.5 -38t-47.5 -35q-18 -13 -32.5 -22.5t-19.5 -13.5q-40 -23 -82 -26.5t-91 -3.5q-39 0 -74 11.5t-61 42.5q-24 29 -37 64.5t-13 75.5q0 18 8 45t23.5 61.5t37.5 75.5t50 87q15 24 27 44.5t23 37.5q15 24 26 42t19 33t15 29t13 29q5 6 5 16
q0 14 -9.5 24.5t-21.5 10.5q-35 0 -71 -41.5t-68 -132.5l-76 18q7 71 33 135.5t64.5 113t86.5 77t99 28.5q32 0 58 -12.5t44.5 -33.5t28.5 -48.5t10 -57.5v-12t-1 -11q-5 -31 -48.5 -103t-120.5 -192q-8 -11 -23.5 -36.5t-31.5 -56.5t-28 -63.5t-12 -57.5q0 -16 8.5 -28.5
t29.5 -12.5q20 0 63 15.5t104 63.5q14 11 26 20t23 18q41 32 65.5 51.5t41.5 31t30.5 19t31.5 15.5q69 492 409 492q100 0 172 -52t124 -152q5 -12 8 -18t11 -21q89 124 198 184.5t249 60.5q131 0 225.5 -40t162.5 -117q28 -32 51.5 -68.5t40.5 -79t26 -92t9 -109.5
q0 -104 -30 -185.5t-107 -145.5q-65 -54 -140 -74t-163 -20z" />
    <glyph glyph-name="E" unicode="E" horiz-adv-x="1126" 
d="M385 1022q68 5 127 19.5t108 37.5q78 35 116.5 73.5t38.5 90.5q0 19 -14.5 31.5t-37.5 21t-52 13.5t-59 10q-13 2 -27 4.5t-27 4.5q-101 39 -101 165q0 61 30.5 110.5t86.5 84.5t136 55.5t178 23.5q-1 -6 -2 -14t-2.5 -16.5t-2.5 -16t-1 -11.5q-1 -5 -2 -17t-2 -19
q-117 -32 -184.5 -82t-67.5 -107q0 -46 51 -71q18 -3 52 -10t82 -19q93 -39 93 -154q0 -297 -486 -301zM392 627q110 290 300 290q85 0 153.5 -37t115.5 -101t72.5 -150t25.5 -185q0 -202 -112 -595q-57 -199 -83.5 -344.5t-26.5 -248.5q0 -81 16 -161.5t47 -167.5
q-10 -11 -24 -24t-22 -23q-5 -4 -12.5 -11.5t-15.5 -16t-16 -16.5l-12 -12q-40 100 -59 195t-19 192q0 48 6 110t20 138v-1q7 38 21.5 98t35.5 146l-1 -1q11 50 22 98t23 96q13 56 26.5 115.5t24.5 119.5t19 119.5t11 116.5q-3 61 -19 114.5t-47 93t-77.5 62t-110.5 22.5
q-66 0 -111 -23t-70 -64q-12 -28 -25 -92t-23 -165q-6 -2 -13 -4.5t-23 -6.5h2q-6 -2 -16 -5.5t-20.5 -6.5l-21 -6t-16.5 -5q-4 118 -37 251.5t-99 288.5q60 -11 102 -39.5t64 -68.5z" />
    <glyph glyph-name="F" unicode="F" horiz-adv-x="2126" 
d="M2428 135q14 -1 37 -2.5t36 -2.5q26 -2 51.5 -3.5t50.5 -1.5q59 0 112 13.5t100 55.5q86 74 86 199q0 286 -427 286q-73 0 -129 -5.5t-94 -16.5q-92 -27 -204 -124q-33 36 -64 68.5t-63 57t-65.5 39t-69.5 14.5q-8 0 -15.5 -1t-19.5 -3q33 -30 55 -73t35.5 -89.5
t19.5 -93.5t6 -86q0 -75 -19 -141t-53.5 -115t-82.5 -77.5t-107 -28.5q-71 0 -127 59q-18 26 -42 59.5t-50 69.5q-8 10 -15 20h1q-17 23 -29 35.5t-38 12.5q-32 0 -58 -21.5t-44 -47.5q-15 -23 -25 -42t-17 -36q-13 -27 -25.5 -48.5t-33 -35.5t-54.5 -21.5t-89 -7.5
q-246 0 -246 446q0 60 5 126t20 133q-45 -38 -65 -104t-20 -152q0 -48 3 -94q2 -24 3 -48t1 -47q0 -74 -7.5 -124t-25 -80t-46.5 -43t-72 -13q-132 0 -132 234q0 15 2 37t5 49t6.5 57t7.5 62t7.5 63.5t6.5 59t4.5 49.5t1.5 36q0 10 -2 24.5t-6 27.5t-10.5 22t-14.5 9
q-23 0 -35.5 -9.5t-18.5 -26.5t-7.5 -40t-1.5 -50q0 -49 21 -122l-93 -13q-17 63 -24 115.5t-7 100.5q0 116 41 177.5t128 61.5q72 0 106 -58t34 -165q0 -20 -2.5 -46t-6.5 -52q-3 -22 -6.5 -47.5t-6.5 -54.5q-2 -13 -4.5 -33.5t-5 -45.5t-4.5 -51.5t-2 -51.5
q0 -22 1.5 -42.5t5.5 -36t10.5 -24.5t16.5 -9q9 0 14.5 14t8 35.5t3.5 47.5t1 51q0 16 -0.5 29t-0.5 25v26q2 68 4 122.5t8 99.5t18 81t33 68q38 57 92 90t136 33h17t18 -1q10 -1 24 -2.5t29 -3t29.5 -2.5t23.5 -2q-161 -275 -161 -412q0 -42 12.5 -87t33 -82.5t47 -61.5
t53.5 -24q48 0 77 3.5t49.5 16t36 35.5t35.5 62q10 19 23.5 38t31 35t39 26t48.5 11q28 -1 46 -5t29.5 -11t19.5 -17t17 -24v1q3 -4 5.5 -7.5t6.5 -8.5q8 -11 14.5 -24.5t11.5 -27.5q7 -17 16 -35.5t22.5 -34t32.5 -25.5t48 -10q55 0 87 13.5t48.5 41t20.5 68.5t4 95
q0 57 -14.5 97.5t-40 67t-61.5 39t-78 12.5t-109 -16q8 66 32.5 114.5t61.5 80.5t85 48t105 16q206 0 342 -230q83 114 201.5 176t266.5 62q107 0 195.5 -36.5t152 -102t98.5 -157.5t35 -203q0 -93 -21 -176.5t-77 -145.5q-31 -34 -62 -56t-63 -35.5t-65.5 -19t-69.5 -5.5
q-45 0 -92 7t-93 15q-5 1 -15.5 3t-15.5 3z" />
    <glyph glyph-name="G" unicode="G" horiz-adv-x="1769" 
d="M1221 51q53 39 91.5 87t63.5 98t37 99t12 90q0 257 -410 257q-372 0 -372 -305q0 -66 41.5 -148t126.5 -193q0 -34 -33 -37q-48 3 -87.5 6t-72 9.5t-58.5 17.5t-46 29q-25 24 -47 52t-38 62.5t-25 77.5t-9 97q0 21 2 64.5t4 91.5t4 91t2 66q0 6 -0.5 18t-3.5 24t-9 21
t-16 9q-18 0 -29 -13.5t-16.5 -35t-7.5 -49t-2 -54.5q0 -20 2.5 -49t5.5 -59l-88 -15q-30 103 -30 194q0 62 14.5 114.5t41.5 90t65.5 58.5t86.5 21q24 0 43 -15t32.5 -36.5t21 -46t7.5 -43.5q0 -14 -1.5 -37.5t-3.5 -51.5t-5 -59t-6 -61q-3 -32 -6 -63t-5 -58.5t-3.5 -49.5
t-1.5 -35q0 -15 2.5 -40t10.5 -50.5t22.5 -48.5t38.5 -33q-12 27 -19 51.5t-10.5 49t-5 50.5t-1.5 57q0 120 35.5 215.5t103 163t163.5 103.5t218 36q487 0 487 -499q0 -17 -1.5 -40.5t-5.5 -51t-12.5 -57.5t-21.5 -60q17 15 32 41.5t25 58.5q43 165 76 262t53 129
q69 103 176.5 160t261.5 57q134 0 233 -25.5t167 -90.5q69 -69 104 -163q16 -47 23.5 -109.5t7.5 -152.5q0 -67 -7 -114t-24.5 -82t-46.5 -63.5t-73 -58.5q-68 -45 -148 -59.5t-180 -14.5q-12 0 -22 0.5t-21.5 3t-25.5 6t-34 9.5l-5 118q66 -16 105 -20t54 -4
q72 0 127.5 16.5t103.5 52.5t66.5 85t18.5 112q0 151 -109 227t-338 76q-125 0 -212.5 -30t-134.5 -86q-20 -29 -41.5 -94t-41.5 -169q-21 -99 -51 -161.5t-75 -91.5q-58 -36 -130.5 -44.5t-169.5 -8.5q-33 0 -33 27q0 11 11 22z" />
    <glyph glyph-name="H" unicode="H" horiz-adv-x="2016" 
d="M2882 425q0 -97 -29.5 -175t-83.5 -133t-129.5 -85t-168.5 -31q-4 -1 -14 -1q-16 0 -51.5 5.5t-94.5 22.5l6 122q54 -19 92 -24.5t68 -5.5q66 0 116.5 19.5t98.5 61.5q46 41 64.5 90.5t18.5 115.5q0 78 -33 136.5t-114 95.5q-63 29 -134.5 42.5t-158.5 14.5
q-106 0 -180.5 -13.5t-121.5 -46.5q-57 -41 -82.5 -95.5t-25.5 -135.5q0 -17 1 -33.5t2 -36.5q2 -23 2.5 -48.5t0.5 -50.5q0 -45 -5.5 -87t-21.5 -75t-45 -53t-76 -20q-41 0 -67 15.5t-41 41.5t-21 60t-6 72t4 77t9 74q4 29 7 53.5t3 42.5q0 56 -13 104t-39 83.5t-64.5 56
t-90.5 20.5q-58 0 -94 -21t-56.5 -54.5t-27.5 -75t-8 -82.5q-5 -140 -31 -230.5t-78 -143t-134 -73t-199 -20.5q-218 0 -322 103.5t-104 320.5q0 14 1 32t3 39q2 28 4.5 58t2.5 61q0 24 -2 46t-7.5 39t-14 27t-21.5 10q-15 0 -24.5 -9t-15.5 -24t-9 -35t-4 -42
q0 -14 0.5 -28t2.5 -33q2 -18 3.5 -48.5t2.5 -59.5l-88 -19q-28 116 -28 180q0 67 13 124.5t38 99.5t61.5 65.5t82.5 23.5q126 0 126 -188q0 -39 -3 -77t-6 -75q-3 -36 -5.5 -72.5t-2.5 -73.5q0 -52 21 -90.5t60 -64.5t94 -39t123 -13q71 0 135 9t112 38.5t76.5 84
t28.5 145.5q0 2 -0.5 14t-0.5 25v36q0 79 8.5 143t39.5 109t91.5 69t164.5 24q98 0 157 -38t90.5 -99t41.5 -138t10 -155q0 -31 -1 -59t-3 -55t-3.5 -56.5t-1.5 -61.5q0 -27 4 -46.5t18 -19.5q31 0 38 44t7 128v121q0 118 43 200t115 133.5t166 74.5t196 23q129 0 228 -34
t166.5 -99.5t102.5 -159.5t35 -214z" />
    <glyph glyph-name="I" unicode="I" 
d="M-463 1224q-44 51 -96 104t-100 97l-61 -73l-90 27q23 63 47.5 118t50.5 99q18 22 54 15q108 -72 259 -323zM-556 1147q260 126 260 282q0 255 -290 255q-302 0 -302 -231q0 -106 66 -175q12 -13 192 -137l-71 -84q-124 48 -241.5 136.5t-232.5 220.5l77 80
q13 -15 22 -25.5t19.5 -22.5t24.5 -27t37 -39q-12 48 -17 83t-5 60q0 187 112 294q56 52 130 77t168 25q203 0 318 -109q115 -108 115 -311q0 -283 -314 -444z" />
    <glyph glyph-name="K" unicode="K" horiz-adv-x="1785" 
d="M388 152q0 -32 24 -32q46 0 59 146q-83 -59 -83 -114zM958 280q-53 17 -111.5 29.5t-125.5 18.5q34 -58 72.5 -97.5t81.5 -64t90.5 -35.5t99.5 -11q30 0 47 3t17 19q0 40 -39.5 74.5t-131.5 63.5zM2242 2q-36 0 -73.5 2t-84.5 21v113q47 -11 82.5 -17t61.5 -6
q74 0 133 21.5t100.5 62.5t64 100.5t22.5 136.5q0 253 -440 253q-107 0 -182.5 -19t-123 -58t-69.5 -100t-22 -145q0 -14 1.5 -40.5t3.5 -55.5t3.5 -55t1.5 -39q0 -95 -37.5 -135t-114.5 -40t-114.5 55t-37.5 179q0 13 0.5 38t1.5 51l2 44t1 31q0 190 -88 248
q-71 47 -280 47q-89 0 -152 -5.5t-106 -20.5t-67 -42t-34 -69q595 -52 595 -405q0 -81 -66.5 -116t-208.5 -35q-124 0 -224.5 76.5t-175.5 241.5q-8 -2 -16 -3t-19 -3q-13 -164 -52.5 -241.5t-97.5 -77.5q-83 0 -118.5 45.5t-35.5 124.5q0 103 48 184t148 144
q-1 109 -14 160t-39 51q-65 0 -91 -79q-7 -45 -15 -94.5t-15 -93.5l-85 -31v144q0 193 52 290t156 97q143 0 158 -399q3 0 7 2q11 100 37 174.5t78.5 124t138 74t214.5 24.5q266 0 376 -129q46 -56 69 -165t27 -283q0 -31 0.5 -58.5t4 -48t11 -32.5t20.5 -12q28 0 36.5 20.5
t8.5 58.5q0 30 -3 71q-2 26 -3.5 55.5t-1.5 62.5q0 229 129 344.5t392 115.5q127 0 227.5 -34.5t170 -100t106.5 -160.5t37 -217q0 -98 -28 -176.5t-81.5 -133t-131.5 -84t-178 -29.5z" />
    <glyph glyph-name="L" unicode="L" horiz-adv-x="1886" 
d="M2342 -3q-47 0 -126 18l-15 106q48 -8 78.5 -11.5t48.5 -3.5q76 0 136.5 20t103.5 57.5t66 91.5t23 123q0 78 -26.5 135.5t-91.5 95.5q-110 64 -273 64q-88 0 -160.5 -14t-125.5 -48.5t-85 -93t-38 -147.5q-8 -108 -28.5 -182.5t-66 -120.5t-122.5 -66.5t-198 -20.5
q-142 0 -225.5 26.5t-126.5 84.5t-55.5 150t-12.5 223v62q0 40 -20.5 70.5t-50 50t-62 29.5t-55.5 10q-95 0 -140 -58.5t-45 -185.5q0 -31 1 -60.5t3 -59.5q2 -29 3.5 -61t1.5 -62q0 -116 -38.5 -167.5t-115.5 -51.5q-69 0 -104 61.5t-35 197.5q0 24 3.5 69t8.5 95
q5 51 8.5 99t3.5 71q0 17 1 32.5t3 29.5q2 12 3 23.5t1 20.5q0 17 -5.5 27t-22.5 10t-26.5 -12.5t-14 -31.5t-5.5 -40.5t-1 -39.5q0 -35 6.5 -76.5t20.5 -92.5l-95 -6q-20 57 -29.5 112t-9.5 112q0 130 30 186q11 20 23.5 36.5t30 28.5t41.5 18.5t57 6.5q23 0 44 -15t37 -44
t25.5 -71.5t9.5 -97.5q0 -5 -1 -23.5t-3 -45.5t-4.5 -59.5t-4.5 -66.5v1q-3 -35 -5.5 -68t-4.5 -60t-3 -45.5t-1 -24.5q0 -21 1 -41t3 -35t6 -24.5t10 -9.5q13 0 21.5 11t13.5 29.5t6.5 42t1.5 48.5q0 45 -1.5 76.5t-3.5 52.5q-1 12 -1.5 21t-0.5 16q0 114 17 196t53 134
t92 76.5t134 24.5q37 0 72 -5.5t66 -16t56 -27t42 -37.5q33 -51 42 -107t9 -115q0 -20 -0.5 -39.5t-0.5 -37.5v-65q0 -58 6 -101.5t33 -72.5q17 -18 47.5 -31.5t68.5 -22.5t80 -13.5t83 -4.5q64 0 116.5 9t92 28.5t64 49.5t31.5 73q5 29 9.5 57.5t7.5 54.5q10 69 20.5 128
t29 106t48.5 83t78.5 60t119.5 36.5t172 12.5q122 0 221 -36t169 -102.5t108 -161t38 -210.5q0 -100 -23.5 -182.5t-83.5 -145.5q-58 -61 -138 -81.5t-180 -20.5z" />
    <glyph glyph-name="M" unicode="M" horiz-adv-x="1440" 
d="M472 804q-75 -19 -117 -77t-42 -152q0 -38 14 -82.5t43 -105.5q-11 -5 -30 -11.5t-27 -10.5q-4 -2 -15 -6.5t-15 -6.5q-34 63 -49 115.5t-15 103.5q0 94 31 163.5t97.5 115.5t172 68t255.5 22h126q22 0 40.5 -1.5t33.5 -3.5h71v-179q-127 0 -202.5 -2.5t-110.5 -7.5h1
q-88 -15 -134.5 -42t-46.5 -68q0 -86 224 -86q11 0 32.5 0.5t47.5 2.5q15 1 33 1.5t35.5 1t32.5 0.5h24q1 -12 1.5 -30.5t1.5 -27.5q1 -8 1.5 -17t0.5 -36q-122 -2 -194.5 -4.5t-95.5 -5.5h1q-160 -23 -160 -93q0 -117 304 -117q160 0 266.5 43.5t154.5 119.5
q13 40 26.5 83.5t27.5 84.5q14 44 28 88.5t28 88.5q51 97 158 148.5t274 51.5q119 0 216.5 -39t166.5 -109.5t107 -167.5t38 -214q0 -86 -29.5 -159.5t-82.5 -127.5t-126.5 -85t-161.5 -31q-37 0 -75.5 5t-76.5 13q-3 16 -6.5 35t-5.5 32q0 2 -1.5 9t-2.5 15t-2.5 15.5
t-1.5 10.5q78 -21 149 -21q119 0 168 26q30 15 57 37.5t48 50.5t33.5 60.5t12.5 65.5q0 15 -3 30q1 7 1 14.5v14.5q0 63 -30.5 112.5t-84.5 84t-127 52.5t-158 18q-341 0 -420 -157l1 4q-11 -39 -19.5 -80t-16.5 -86q-14 -84 -49.5 -152t-100 -115.5t-161.5 -73t-233 -25.5
q-84 0 -158 19.5t-128.5 57t-86.5 91.5t-32 123q0 125 104 210q-108 59 -108 160q0 77 58 140z" />
    <glyph glyph-name="N" unicode="N" horiz-adv-x="1384" 
d="M396 148q0 -42 30 -42q34 0 40 163q-70 -53 -70 -121zM941 269q-95 33 -216 45q31 -49 65 -88.5t65 -62.5q43 -29 88.5 -42.5t94.5 -13.5q46 0 71 6.5t25 24.5q0 67 -192 131h-1zM1821 0q-43 0 -121 20l-6 109q37 -3 64 -5t46 -3t30.5 -1h18.5q76 0 134.5 19.5t98.5 55
t61 84.5t21 108q0 70 -32 125.5t-89.5 93.5t-138.5 58.5t-179 20.5q-72 0 -128 -8.5t-96 -24.5q-14 -5 -65 -36.5t-145 -95.5q-177 165 -319 165q-83 0 -156 -33.5t-115 -105.5q128 -11 232 -42t178 -78.5t114 -110t40 -135.5q0 -96 -58 -138t-173 -42q-72 0 -135 18.5
t-126 66.5q-58 45 -101.5 102t-71.5 128h-32q-16 -155 -49.5 -235t-86.5 -80q-156 0 -156 161q0 106 45.5 186t145.5 140q-2 109 -21 160.5t-54 51.5q-54 0 -72 -94q-2 -7 -4 -19t-4 -30q-3 -22 -8.5 -61t-12.5 -81h-87q4 254 53.5 382t144.5 128q57 0 93.5 -43.5
t54.5 -115.5q8 -30 13.5 -88t8.5 -149q3 1 6.5 2t8.5 3q19 84 54.5 157t82 126.5t101.5 84t114 30.5q88 0 145.5 -16.5t96 -46.5t64.5 -73t51 -96q177 227 447 227q117 0 214 -36t167 -102.5t109 -161t39 -211.5q0 -99 -30.5 -176t-89 -130t-143 -81t-192.5 -28z" />
    <glyph glyph-name="O" unicode="O" horiz-adv-x="1809" 
d="M1327 -414q-110 -51 -228 -85.5t-243 -66.5q-64 -17 -128 -34.5t-130 -37.5q-367 -120 -367 -459q0 -138 61 -253q30 -56 77 -99.5t115 -77.5q-2 28 -2.5 55.5t-2.5 55.5q0 135 40 243t113.5 184.5t177.5 117.5t233 41q241 0 424 -146q197 -158 197 -387
q0 -212 -108 -384l-76 29q79 194 79 283q0 368 -559 368q-97 0 -175 -26.5t-133 -77t-84.5 -122t-29.5 -161.5q0 -31 15.5 -96.5t45.5 -168.5q-130 40 -225 98t-155 134q-63 80 -95.5 181t-32.5 221q0 236 102 398t305 253l724 211h-1q367 132 367 546q0 190 -66.5 281.5
t-194.5 91.5q-63 0 -124.5 -48.5t-130.5 -150.5q-30 44 -58 80t-61 61.5t-74.5 39t-99.5 13.5q-42 0 -73 -15.5t-53.5 -41t-37 -59t-23 -69.5t-12 -72t-3.5 -67q0 -95 37 -174.5t119 -161.5l-30 -35q-111 1 -182.5 25.5t-113 69.5t-58 109.5t-16.5 147.5q0 27 1.5 58t3.5 62
q0 12 3 33v-1q2 20 4.5 47t2.5 55q0 21 -2 41t-5.5 36t-9.5 26t-15 11q-22 -6 -34 -27t-17 -58q2 -16 2.5 -33t1.5 -34t2 -41t2 -40l-86 -22q-15 69 -21.5 114t-6.5 70q0 144 42.5 222.5t137.5 78.5q36 0 60 -16t38 -43t19.5 -63.5t5.5 -76.5q0 -51 -7 -106.5t-13 -100.5
q-4 -26 -6.5 -49.5t-4.5 -37.5q-2 -21 -3 -41.5t-1 -42.5q0 -44 9 -82t38 -60q-11 32 -12.5 70.5t-1.5 79.5q0 35 3 91t13 119t30.5 127t55 115.5t86 84t124.5 32.5q55 0 99.5 -14t81 -41t65.5 -67.5t54 -92.5q45 108 115.5 161.5t159.5 53.5q93 0 158.5 -33t107.5 -98.5
t61 -163t19 -227.5q0 -158 -25.5 -290t-76.5 -235q-52 -103 -127.5 -185t-176.5 -128z" />
    <glyph glyph-name="P" unicode="P" horiz-adv-x="1368" 
d="M1835 -2q-30 0 -68.5 9.5t-77.5 19.5v134q123 -40 166 -40q66 0 121 23.5t94.5 65t62 99.5t22.5 127q0 67 -38 120.5t-121 88.5q-63 28 -133 41t-150 13q-83 0 -153 -12.5t-123.5 -43t-89.5 -81t-51 -126.5q-18 -109 -46.5 -190.5t-82.5 -135.5t-140.5 -81t-219.5 -27
q-123 0 -203 33t-127 94t-66 147t-19 191q0 16 1.5 36.5t3.5 41.5q2 25 3.5 50t1.5 48q0 39 -7 66t-28 27q-20 0 -31.5 -7t-17 -19.5t-7 -29.5t-1.5 -38q0 -14 0.5 -27.5t3 -33.5t8 -49t15.5 -73h-101q-17 54 -22.5 100t-5.5 91q0 286 184 286q128 0 128 -162
q0 -42 -3.5 -79.5t-7.5 -73.5q-4 -37 -6.5 -73.5t-2.5 -75.5q0 -55 14.5 -97.5t48 -72t88 -44.5t135.5 -15q75 0 145 9.5t125.5 36t92 72.5t44.5 120q15 122 41.5 208.5t81.5 141t149 80t244 25.5q132 0 234.5 -33.5t173 -97t107 -156.5t36.5 -213q0 -97 -30.5 -177.5
t-86.5 -138.5t-134 -90t-174 -32z" />
    <glyph glyph-name="Q" unicode="Q" horiz-adv-x="1537" 
d="M1821 166q57 -29 102 -34t74 -5q34 0 67.5 7t64.5 19.5t57.5 28.5t47.5 34q38 36 61.5 82t25.5 109q-1 142 -125 215t-378 73q-96 0 -175 -45q-31 -17 -69.5 -44.5t-87.5 -69.5h-44q-45 79 -104 126.5t-127 47.5q-11 0 -16 -1q63 -60 92.5 -132.5t29.5 -161.5
q0 -57 -18 -114t-50 -107t-76 -90t-96 -62q11 -29 25 -63t24 -60l-85 -7q-16 26 -30 51t-26 48q-40 -5 -80 -7t-85 -2q-114 0 -198 22.5t-139 74.5t-82 136.5t-27 208.5q0 11 2 27.5t4 36.5q4 32 8 68.5t4 69.5t-5.5 56t-17.5 25q-14 -3 -23 -14t-15 -28t-8.5 -38.5
t-2.5 -44.5q0 -46 17 -134l-86 -35q-21 75 -31 127.5t-10 84.5q0 51 9.5 96.5t27.5 88.5q25 56 58.5 78t80.5 22q70 0 106.5 -33.5t36.5 -117.5q0 -15 -4 -36.5t-11 -49.5h1q-3 -17 -6.5 -34t-7.5 -37q-10 -51 -13 -88t-3 -62q0 -69 27.5 -114t72.5 -72t103 -38t120 -12
q10 1 16.5 1.5t13 0.5t14 0.5t18.5 1.5q-68 111 -167 215q-19 -15 -42.5 -36.5t-49.5 -47.5l-58 56q32 65 71 125t87 121q85 -85 158 -191.5t139 -234.5q49 4 87 20.5t64.5 41t40 56.5t13.5 68q0 233 -241 233q-12 0 -38.5 -2.5t-69.5 -7.5l-9 43q89 238 292 238
q192 0 332 -211q97 109 208 162t240 53q114 0 206.5 -36t158 -103t101 -161.5t35.5 -211.5q0 -87 -31 -164.5t-88.5 -136t-139 -92.5t-183.5 -34q-29 0 -52.5 0.5t-44.5 5t-41.5 13.5t-42.5 26z" />
    <glyph glyph-name="R" unicode="R" horiz-adv-x="1348" 
d="M281 52q60 59 101.5 113t66.5 104t36 95.5t11 87.5q0 17 -2.5 43t-8 54.5t-14 56.5t-21 50.5t-29.5 36.5t-39 14q-41 0 -84 -141l-91 6q1 8 2 19.5t2 23.5t2 23t1 20q2 27 4 57t5 59q4 19 10.5 48t18 56t29 46t43.5 19q39 0 76 -22t69.5 -59.5t59.5 -86.5t46.5 -102.5
t30 -108.5t10.5 -104q0 -72 -9 -128t-31 -107q19 15 31.5 40t20.5 56t12 66.5t6 71.5q4 50 11 105.5t20.5 109t36.5 102t58.5 85.5t87 58.5t122.5 21.5q106 0 179 -57.5t120 -165.5q52 61 103 104t103 69t107 38t115 12q120 0 216 -36.5t164 -104t104.5 -162t36.5 -209.5
q0 -99 -28.5 -178t-81 -135t-127.5 -86t-169 -30q-21 0 -41.5 1t-40 5.5t-39.5 14t-41 27.5l14 98q50 -17 83.5 -26t56.5 -9q60 0 116.5 18.5t103.5 50.5q22 19 39.5 47.5t29 60.5t17.5 64.5t6 60.5q0 39 -7 67t-22 51.5t-38.5 43.5t-55.5 42q-56 39 -124 55.5t-151 18.5
q-293 0 -488 -210q-3 7 -8 18.5t-10.5 23.5t-10 23.5t-7.5 17.5q-15 37 -29 66t-38 49t-62 30.5t-101 10.5q-58 0 -98.5 -24.5t-68 -63t-42.5 -86t-22 -94.5v2q-4 -84 -8 -150t-16.5 -116t-37.5 -85t-72.5 -57.5t-120.5 -33.5t-181 -13q-22 4 -30 13t-8 19q0 11 10 21z" />
    <glyph glyph-name="S" unicode="S" horiz-adv-x="1420" 
d="M458 303q-148 0 -148 -155q0 -17 4 -22.5t14 -5.5q32 0 67.5 42.5t77.5 137.5q-7 0 -11 2q-3 1 -4 1zM1894 1q-3 0 -19.5 0.5t-42 3.5t-58 9.5t-67.5 17.5l25 108q64 -11 108 -16.5t68 -5.5q149 0 227 92q72 87 72 239q0 62 -42.5 108t-119.5 77q-63 22 -134.5 35
t-146.5 13q-147 0 -250 -43t-141 -119q-18 -45 -31.5 -100t-24.5 -106q-5 -29 -12 -59t-15 -59q-29 -94 -97.5 -147.5t-175.5 -53.5q-48 0 -92 17t-82 40q-27 16 -61.5 44.5t-75.5 67.5q-31 32 -65 59t-71 48q-67 -139 -127.5 -203.5t-120.5 -64.5q-31 0 -52 10.5t-34 28
t-19.5 40t-7.5 46.5q-1 72 24 136.5t72 117.5q47 51 107 81t134 36q3 11 6.5 20.5t7.5 20.5q9 29 18 62t13 63q-12 71 -66 71q-59 0 -119 -95q-14 -20 -40 -67.5t-64 -125.5l-74 19q123 460 368 460q62 0 95 -75v1q12 -25 17.5 -53t5.5 -60q0 -124 -59 -263q35 -20 86 -58.5
t116 -92.5q63 -51 112 -78.5t79 -27.5q72 0 113.5 37t62.5 118q14 51 24 91.5t19 74.5q14 60 27 105t30 82v-1q48 103 165 151t292 48q236 0 381 -127q149 -134 149 -372q0 -195 -110 -311q-111 -115 -307 -115z" />
    <glyph glyph-name="T" unicode="T" horiz-adv-x="1763" 
d="M2255 1q-43 0 -88.5 8.5t-81.5 25.5l-15 106q32 -8 66.5 -15.5t60.5 -15.5q78 0 142.5 20t110.5 57.5t71.5 90.5t25.5 120q0 144 -98.5 216.5t-303.5 72.5q-107 0 -186.5 -22.5t-131.5 -59t-77.5 -82.5t-25.5 -92v-27q0 -30 0.5 -57t1.5 -53q1 -20 1.5 -43.5t0.5 -40.5
q0 -48 -5.5 -86.5t-23.5 -66t-50.5 -42t-86.5 -14.5q-47 0 -76.5 22t-46 58t-23 81t-6.5 92q0 50 3.5 91.5t7.5 72.5q2 17 3 28.5t1 18.5q0 66 -30.5 112.5t-79.5 76t-111.5 42.5t-126.5 13q-283 0 -283 -126q0 -10 7.5 -15.5t20 -8.5t28 -3.5t31.5 -0.5h30q82 0 132.5 -16
t78.5 -45.5t37.5 -70.5t9.5 -91q0 -97 -24.5 -161t-73.5 -102t-122 -53.5t-170 -15.5q-90 0 -167.5 23t-133.5 68.5t-88 113t-32 156.5q0 25 6.5 69t13.5 95q4 25 8 50.5t7 47.5t4.5 39.5t1.5 28.5q0 39 -25 39q-52 0 -52 -114q0 -22 9 -113l-80 -35q-18 57 -27.5 104.5
t-9.5 86.5q0 140 49.5 209t157.5 69q30 0 49.5 -11.5t31 -31t16 -45t4.5 -52.5q0 -38 -5.5 -74t-10.5 -62q-2 -8 -3 -14.5t-2 -12.5q-11 -62 -17 -106t-6 -74q0 -55 13 -96t43.5 -68t82 -40t128.5 -13q65 0 120 5.5t95 16t62.5 24.5t22.5 32q0 33 -8 45t-20 12
q-11 0 -26.5 -4t-30.5 -9q-20 -7 -41 -12t-44 -5q-104 0 -148.5 57t-44.5 173q0 93 17 161t63 113t127 67t210 22q97 0 165 -14.5t113 -42t71 -67t40.5 -89.5t20 -110t9.5 -128q1 -12 1.5 -25.5t1.5 -26.5v-7q0 -9 -0.5 -21t-2.5 -25q-2 -17 -3.5 -38t-1.5 -38q0 -20 2 -39
t8 -34t16 -24t27 -9h-2q21 1 33 15.5t18 37t8 50.5t2 55v64q0 129 26 226t86 161.5t158 96.5t241 32q125 0 221 -36.5t161 -104.5t98.5 -165.5t33.5 -218.5q0 -87 -28.5 -162t-80.5 -130t-125 -86t-161 -31z" />
    <glyph glyph-name="V" unicode="V" horiz-adv-x="1630" 
d="M995 250q-8 0 -16.5 -0.5t-16.5 -1.5q31 -132 140 -132q23 0 23 31q0 28 -11 47.5t-29.5 32t-42 18t-47.5 5.5zM526 456q-60 219 -171 219q-32 0 -47 -144h-87v128v39t2.5 51t8 54t17 49t29.5 35.5t44 13.5q46 0 84 -18.5t68 -50.5t53.5 -75.5t41 -93t30.5 -103.5
t21 -106q-14 -2 -36 -5t-34 -6zM2076 -2q-25 0 -57 3.5t-71 10.5l-5 108q45 -8 72 -11t42 -3q77 0 143 23t116 65q25 21 43 40.5t29.5 41.5t17 49.5t5.5 65.5q0 67 -28 123t-85 96t-143 62.5t-202 22.5q-66 0 -119.5 -10.5t-102.5 -31.5t-96.5 -54t-101.5 -78
q-36 34 -70.5 64.5t-71 52.5t-77 35t-88.5 13q-268 0 -305 -221q77 -8 137.5 -33.5t102 -64.5t63 -90t21.5 -109q0 -164 -190 -164q-122 0 -192 212q-51 -35 -100 -68.5t-100 -68.5l1 1q-25 -17 -55 -33t-63 -28.5t-68 -20t-70 -7.5q-39 0 -75.5 10.5t-68.5 35.5
q-18 15 -28 33t-15.5 38t-6.5 42.5t-1 45.5q0 79 128 146l88 -71l-31 -23h1q-24 -20 -38.5 -35t-14.5 -35q0 -8 2.5 -17.5t14.5 -9.5q21 0 51 15.5t62 38t63 47.5t54 43q66 55 120.5 95.5t96.5 58.5q25 244 129.5 364t286.5 120q69 0 118 -20t85 -53t63 -76.5t52 -90.5
q85 117 199 177.5t256 60.5q122 0 218.5 -36.5t163 -106.5t102 -170.5t35.5 -229.5q0 -86 -33 -158t-92 -123.5t-140 -80t-177 -28.5z" />
    <glyph glyph-name="W" unicode="W" horiz-adv-x="1522" 
d="M2297 112q-39 -40 -76.5 -60t-72.5 -32h1q-25 -8 -66 -15t-102 -7q-54 0 -101 17q-8 27 -16 60.5t-17 74.5q53 -15 85 -19t54 -4q75 0 136.5 12.5t109.5 50.5q37 35 54.5 85t17.5 110q0 148 -112.5 222t-353.5 74q-267 0 -357 -156h-29l-21 13q-21 47 -47.5 78t-58 50
t-68 28t-77.5 11q60 -57 90.5 -122.5t30.5 -138.5q0 -101 -33 -183t-94.5 -140t-150 -89t-198.5 -31q-147 0 -237 34.5t-138.5 97t-65 149t-16.5 190.5q0 18 4 49t9 63q5 29 8.5 54t3.5 35q0 6 -0.5 15t-3 18t-7 15.5t-13.5 6.5q-21 0 -32.5 -11t-17 -28t-6 -39t-0.5 -44
v-14l2 -7l9 -115l-76 -27q-21 72 -29.5 118.5t-8.5 70.5q0 59 12.5 112t35.5 93t55 63.5t71 23.5q129 0 129 -147q0 -24 -7 -65.5t-16 -87.5q-5 -24 -9 -47.5t-7.5 -44t-5.5 -37t-2 -26.5q0 -57 16.5 -99t62.5 -69.5t126 -41t208 -13.5q52 0 109.5 6.5t105 26.5t78.5 58.5
t31 102.5q0 63 -20.5 105.5t-55 68.5t-80.5 37.5t-96 11.5q-16 0 -43.5 -2t-63.5 -6q94 274 301 274q94 0 175.5 -58.5t152.5 -179.5q134 242 345 242q137 0 247 -35.5t187 -102.5t118 -162.5t41 -216.5q0 -187 -114 -304z" />
    <glyph glyph-name="X" unicode="X" horiz-adv-x="2106" 
d="M2878 119q-113 -119 -308 -119q-19 0 -55 7t-91 21v121q115 -27 164 -27q66 0 119.5 19t91.5 54.5t59 85.5t21 113q0 65 -26.5 117t-77 88t-123.5 55t-166 19q-283 0 -368 -91q-29 -31 -35.5 -85t-6.5 -138q0 -32 -1 -71t-5.5 -79t-14.5 -77.5t-28.5 -67t-46.5 -47
t-68 -17.5q-65 2 -100 63.5t-35 182.5q0 17 2 53t5 76q3 39 5.5 74.5t2.5 52.5q0 198 -205 198q-102 0 -155 -51q-6 -11 -10.5 -20t-9.5 -18q-17 -34 -28 -54.5t-13 -25.5q-57 -81 -148 -81q-103 0 -149 69q-15 49 -28 83t-34 56t-55 32t-91 10q-129 0 -184 -67
q-29 -59 -48 -95.5t-31 -53.5q-60 -81 -145 -81q-244 0 -244 207q0 27 6 74.5t19 121.5l97 -5l-6 -106q0 -40 29.5 -58.5t93.5 -18.5q97 0 129 54l-2 -3q15 41 30.5 82t30.5 82q67 98 282 98q119 0 173 -113q7 -14 12.5 -28.5t10.5 -28.5q7 -21 15.5 -40t20 -33.5t28 -23
t40.5 -8.5q44 0 71 20.5t51 55.5q2 4 11 19t24 41l-1 -1q6 11 12.5 22.5t14.5 26.5q35 44 71.5 67t75.5 23q175 0 258.5 -110.5t83.5 -336.5q0 -54 -1.5 -111t-3.5 -113q-1 -11 -1.5 -20.5t-0.5 -19.5q0 -25 4.5 -43.5t23.5 -18.5q13 0 22.5 16t16.5 42t11.5 58.5t7.5 65
t4.5 62.5l2.5 50q1 9 1.5 16t0.5 12q9 115 25.5 192t39.5 115q50 69 149.5 107t246.5 38q129 0 230 -33t170.5 -96.5t106 -157t36.5 -213.5q0 -197 -109 -312z" />
    <glyph glyph-name="Y" unicode="Y" horiz-adv-x="1660" 
d="M2139 4q-33 0 -70 8t-77 22l-11 134q57 -20 96.5 -29.5t65.5 -9.5q67 0 123.5 20t97 57.5t63.5 91.5t23 122q0 60 -28 111t-77 87.5t-115.5 57t-144.5 20.5q-77 0 -146.5 -6t-124.5 -23t-90 -47.5t-43 -79.5l-60 -333q-36 -203 -265 -203q-238 0 -322 254v-1
q-10 26 -23.5 94.5t-30.5 188.5q-31 -115 -54 -189t-38 -106q-63 -117 -152 -181t-207 -64q-49 0 -92 21.5t-75.5 58t-51 85.5t-18.5 104q0 57 29 166.5t89 270.5v-2q2 7 3 12t1 7v3h-12q-26 0 -42.5 -22.5t-26.5 -59.5t-14 -86t-5 -101l-94 -35l-8 202q0 71 16.5 128.5
t47.5 98t76.5 62.5t104.5 22q97 0 97 -146q0 -65 -63 -207q-31 -69 -45 -117.5t-14 -80.5t11 -60.5t30.5 -49.5t46 -33.5t57.5 -12.5q269 0 347 570l118 61q23 -174 40.5 -276.5t31.5 -135.5q77 -217 254 -217q76 0 118.5 42.5t58.5 117.5q11 58 20.5 110.5t16.5 90.5
q11 60 18 96.5t15 51.5q16 50 53 87t90.5 61t122 36t148.5 12q522 -20 522 -478q0 -15 -0.5 -32.5t-2.5 -33.5q0 -87 -30 -158.5t-83.5 -122.5t-129 -78.5t-166.5 -27.5z" />
    <glyph glyph-name="Z" unicode="Z" horiz-adv-x="1978" 
d="M692 2q-308 6 -308 365q0 21 3 64t7 89t7 85.5t3 57.5q0 1 -0.5 8t-3.5 14.5t-9 14t-16 7.5q-28 -7 -40 -31.5t-12 -66.5q0 -14 1.5 -29t3.5 -29q2 -9 3 -23t3 -37l-85 -20q-3 13 -8 32.5t-7 29.5q-5 17 -8 31t-5.5 28t-3.5 29.5t-1 35.5q0 281 168 281q137 0 137 -203
q0 -12 -2 -32.5t-5 -46t-7 -53.5t-8 -55l-8 -54t-7 -50.5t-5 -42t-2 -27.5q0 -34 5 -66.5t18 -61t34 -52.5t54 -42q-64 137 -64 283q0 124 18.5 217.5t63 156t117 94t180.5 31.5q54 0 90.5 -17t62 -45.5t42 -65t28.5 -74.5q19 51 41.5 89t57 63.5t86 38.5t128.5 13
q36 0 71.5 -10t68 -31t60.5 -53t49 -76q31 -69 46 -145t16 -155q0 -136 -82 -298q88 61 114 164q41 162 70 256t46 127q60 109 168 166t262 57q123 0 222 -36t168 -104t106 -165.5t37 -220.5q0 -95 -30 -171t-84.5 -129t-131 -82t-169.5 -29q-23 0 -62 7t-97 21l5 122
q89 -32 159 -32q69 0 127 20.5t99 58.5t64 90.5t23 117.5q0 66 -30.5 118.5t-86.5 89.5t-134 56.5t-173 19.5q-308 0 -394 -160l1 5q-24 -82 -48.5 -167.5t-47.5 -167.5q-15 -38 -47.5 -74t-80.5 -64t-110.5 -45t-138.5 -17q-32 0 -32 25q0 10 6 19q102 102 150 201t48 187
q0 262 -251 262q-43 0 -82.5 -12t-66.5 -29q-28 -22 -99 -119h-45q-23 51 -46.5 82t-49 48t-53.5 22.5t-60 5.5q-29 0 -55.5 -6t-50.5 -15t-44 -20.5t-36 -22.5q-87 -66 -87 -228q0 -91 45 -179.5t132 -177.5l3 3l6 -6l-2 -3q0 -3 3 -4q0 -33 -28 -33z" />
    <glyph glyph-name="backslash" unicode="\" horiz-adv-x="1855" 
d="M798 0h-83q-321 0 -321 429q0 16 3 50t8 72q5 37 8 71t3 48v6q0 12 0.5 22t-4.5 17q-5 0 -8.5 1t-7.5 2q-57 -6 -57 -110q0 -3 0.5 -14.5t1.5 -29.5t2 -41.5t2 -49.5l-84 11q-15 54 -21 97t-6 78q0 60 13 109.5t37 85.5t58 56t76 20q137 0 137 -143q0 -30 -8 -83.5
t-17 -112.5q-5 -30 -9 -59t-7.5 -54.5t-5.5 -46t-2 -33.5q0 -169 103 -243q-35 91 -48.5 159.5t-13.5 127.5q0 488 394 488q124 0 217 -224q62 112 140 170t171 58q309 0 309 -506v-428h-107v308q0 196 -57.5 294.5t-187.5 98.5q-44 0 -75 -7.5t-58 -25.5t-54 -49t-62 -78
l-49 -13q-73 173 -191 173q-289 0 -289 -280q0 -82 41 -175.5t129 -202.5z" />
    <glyph glyph-name="bracketright" unicode="]" horiz-adv-x="1863" 
d="M1054 0l-54 243l1 -1q-10 40 -32 78.5t-53 72.5q-13 -11 -27.5 -25.5t-28.5 -31.5l-78 31q9 23 12 33.5t4 15.5q6 22 13.5 45.5t19.5 48.5t31 52.5t48 57.5q62 -45 106.5 -112.5t69.5 -151.5q20 -70 32.5 -150.5t14.5 -171.5zM1179 54q182 206 182 361q0 269 -350 269
q-395 0 -395 -257q0 -200 167 -376q8 -11 8 -23q0 -10 -5 -15.5t-13 -8.5t-18 -4t-19 -1q-14 0 -23 0.5t-17 0.5h-18q-313 0 -313 420q0 18 3 50.5t8 69.5q5 36 8.5 68.5t3.5 48.5q0 20 -7 38.5t-23 18.5q-11 0 -20.5 -7.5t-16.5 -19.5t-12 -26t-8 -27q1 -6 1 -13t1 -13
q2 -32 4 -66.5t9 -80.5h-92l-22 181q0 58 14.5 111.5t40.5 93.5t63 64t81 24q111 0 111 -171q0 -26 -6.5 -74t-14.5 -100q-4 -26 -8 -52.5t-7 -50t-5 -42.5t-2 -29q0 -37 6 -75t19.5 -73t34.5 -64t51 -47q-8 12 -15 25.5t-13.5 26.5t-11 23t-6.5 16q-8 23 -13 40.5t-7.5 32
t-3 26t-0.5 22.5q0 71 6 132.5t21 114t39.5 97.5t60.5 84h-1q130 138 369 138q111 0 199 -33.5t148.5 -95.5t92.5 -150.5t32 -199.5q0 -44 -20.5 -112t-61.5 -164q113 105 113 347q0 72 -51 411q329 -35 329 -503v-435h-107v276q0 159 -18 257.5t-66 139.5q1 -5 2.5 -10.5
t3.5 -13.5q2 -11 4.5 -21t4.5 -30q0 -5 0.5 -23t1.5 -37t2 -36.5t1 -22.5q0 -102 -19 -189.5t-65 -152.5t-122.5 -102t-191.5 -37q-18 0 -34.5 5t-16.5 28q0 8 3 12.5t7 8.5v-1z" />
    <glyph glyph-name="asciicircum" unicode="^" 
d="M66 1061q-158 5 -276.5 71.5t-196.5 188.5q-68 109 -103 235.5t-35 269.5q0 13 2 74t6 150l170 -32v-16.5t-0.5 -25.5t-1 -30t-0.5 -30q-1 -36 -2 -71.5t-1 -54.5q0 -151 25.5 -263t80 -190t141 -125.5t208.5 -68.5zM-944 1142q263 129 263 273q0 272 -298 272
q-71 0 -127 -16.5t-95.5 -47t-60.5 -73.5t-21 -97q0 -109 67 -175q14 -8 64 -43.5t128 -92.5q-23 -55 -67 -90q-124 47 -244 137.5t-241 225.5l78 81q13 -15 23.5 -27t22 -25t27 -29.5t39.5 -41.5q-13 54 -18.5 92.5t-5.5 61.5q0 92 29 165.5t83 124.5t131.5 78.5
t175.5 27.5q103 0 184 -28t137 -82t85.5 -134t29.5 -184q0 -284 -315 -446z" />
    <glyph glyph-name="underscore" unicode="_" horiz-adv-x="534" 
d="M362 244q-102 0 -102 102t102 102q112 0 112 -102t-112 -102z" />
    <glyph glyph-name="grave" unicode="`" horiz-adv-x="2062" 
d="M843 305q0 22 -27 32q-45 0 -67 -13.5t-38 -45.5q-14 -23 -21.5 -41t-12.5 -34q81 13 121 34t45 51v17zM1875 0v435q0 259 -259 259q-165 0 -291 -180q-109 175 -319 175q-32 0 -62.5 -10.5t-55.5 -28.5t-43 -43t-27 -54q-11 -1 -24.5 -1.5t-20.5 -1.5h-8t-12.5 -0.5
t-12.5 -0.5h-9q3 76 24 145t61 121.5t101 84.5t144 33q127 -2 194 -87l-2 1q5 -4 27.5 -32.5t51.5 -86.5q52 103 130.5 152.5t184.5 50.5q335 0 335 -466v-465h-107zM394 741q-35 -35 -60 -74.5t-48 -84.5l-85 1q12 71 38 134t61 110t78 74.5t89 27.5q69 0 100.5 -25
t31.5 -89q0 -9 -4 -26t-17.5 -47.5t-38 -77.5t-66.5 -116q-47 -81 -72.5 -140t-26.5 -86q0 -115 207 -120q42 218 237 218q47 0 75.5 -10t44 -27.5t20.5 -42t5 -53.5q0 -57 -21.5 -114t-64 -102.5t-107 -74.5t-150.5 -30q-3 -33 -5 -53t-2 -22q0 -258 283 -258
q135 0 275 282l74 -2q-52 -245 -154.5 -362.5t-256.5 -117.5q-78 0 -139 32t-103 89t-64 135.5t-22 171.5q0 18 1.5 38.5t3.5 52.5v1q1 7 1 6.5t1 7.5q-78 21 -127.5 45t-75.5 52h1q-73 76 -73 215q0 25 14 68t34.5 93t45 102t45.5 96q20 42 33 69.5t13 29.5q0 11 -11 11
t-18 -7z" />
    <glyph glyph-name="a" unicode="a" horiz-adv-x="1541" 
d="M1361 0v302q0 100 -10 175t-42 125q-19 27 -44 51t-55 41q48 -49 70 -126t22 -182q0 -194 -57 -290.5t-187 -96.5q-107 0 -181 189q-2 6 -3.5 12.5t-3.5 11.5q-5 19 -8.5 30.5t-5.5 16.5q-9 12 -24 19.5t-33 7.5q-24 0 -41 -5.5t-32.5 -26t-32 -60.5t-39.5 -109
q-44 -86 -180 -86q-50 0 -90 20.5t-68 57t-43.5 86.5t-15.5 108q0 41 21.5 109.5t58.5 154.5q20 46 40 90.5t40 90.5q-3 7 -4 13q-12 5 -19.5 7t-12.5 2q-59 0 -88 -223h-94q36 413 271 413q97 0 97 -133q0 -21 -25 -74.5t-73 -144.5q-98 -180 -98 -203q0 -133 178 -133
q31 0 69 68h-1q17 31 34 61t34 61q51 69 109 69q67 0 110 -70l55 -127q46 -75 103 -75q118 0 118 230q0 50 -18.5 96t-50.5 80.5t-75 55t-92 20.5q-7 0 -33 -8.5t-74 -27.5q77 261 285 261q76 0 139.5 -28t109.5 -77t71.5 -116t25.5 -145v-568h-107z" />
    <glyph glyph-name="b" unicode="b" horiz-adv-x="2144" 
d="M1898 453q0 -273 -118 -367q-40 -31 -116.5 -54t-188.5 -32q-31 0 -31 28q0 14 11 25q102 100 148 193.5t46 190.5q0 251 -261 251q-100 0 -141 -38v1q-31 -31 -118 -146q-53 89 -107.5 136t-89.5 47q-310 0 -310 -272q0 -202 161 -363q10 -10 10 -24q0 -10 -8.5 -20
t-20.5 -10h-112q-141 0 -211 121t-70 372q0 16 2.5 36t6.5 42q5 26 8.5 52.5t3.5 47.5q0 20 -4 32.5t-15 15.5q-19 -1 -32 -11t-20.5 -26t-11 -37t-3.5 -44q0 -7 2 -36.5t5 -70.5l-88 -22l-20 190q0 268 192 268q63 0 89.5 -48.5t26.5 -134.5q0 -26 -5.5 -75.5t-13.5 -103.5
q-4 -27 -7.5 -53.5t-6.5 -49t-4.5 -41t-1.5 -28.5q0 -94 28.5 -156t79.5 -92q-30 72 -46 142.5t-16 142.5q0 108 24.5 199t69 157t107 103.5t139.5 37.5q60 0 103 -15t75 -44q36 -37 90 -161q132 220 282 220q77 0 141 -34t110.5 -93t72.5 -139.5t26 -174.5q0 -69 -19 -142
t-57 -165q51 45 79.5 119t30.5 177q-3 90 -7.5 154t-10.5 110t-13.5 77t-16.5 55l2 -3q-7 11 -7 25t6 22.5t26 8.5q78 0 133.5 -27t90 -87.5t50.5 -158t16 -239.5v-413l-106 -1q-1 18 -1.5 47.5t-0.5 50.5v84q0 22 0.5 44t0.5 44q0 93 -2 160t-8 113.5t-17.5 75.5t-30.5 45
q0 -2 0.5 -6t0.5 -10v-31q0 -23 -0.5 -62t-0.5 -102z" />
    <glyph glyph-name="c" unicode="c" horiz-adv-x="1545" 
d="M357 267q-20 -16 -34.5 -44t-14.5 -52q0 -10 5 -18t17 -8q9 0 23.5 12.5t32 34t36.5 51t37 64.5q-67 -9 -100 -39zM1365 -1v169q0 9 0.5 16.5t0.5 9.5q0 59 -1.5 118.5t-8.5 115.5t-20 105.5t-36 88t-57.5 63.5t-83.5 32q69 -62 101 -145t32 -194q0 -42 -3.5 -81
t-13.5 -75t-29 -69t-49 -62q-51 -48 -101.5 -69.5t-113.5 -21.5q-35 0 -64.5 7t-61.5 25t-70.5 50t-90.5 83q-33 32 -67 60.5t-63 51.5l-2 -4l-2 -4q-35 -67 -62.5 -117.5t-54 -84t-55 -50.5t-65.5 -17q-30 0 -53.5 17t-39.5 42.5t-24.5 55t-8.5 54.5q0 144 87 231.5
t259 99.5q17 61 26.5 100t9.5 52q0 82 -68 82q-86 0 -201 -283h-29l-55 10q120 473 355 473q124 0 124 -178q0 -35 -14 -98.5t-46 -166.5q17 -6 34.5 -18t35 -27.5t34 -32.5t31.5 -33q14 -16 26.5 -29t20.5 -19q121 -100 204 -100q35 0 63 11.5t48 32.5t30.5 50t10.5 64
q0 300 -253 300q-8 0 -30.5 -2.5t-64.5 -9.5q69 256 278 256q85 0 151.5 -32.5t112.5 -92.5t70 -144t24 -187v-478z" />
    <glyph glyph-name="d" unicode="d" horiz-adv-x="1734" 
d="M949 259q-5 0 -26 -3q8 -26 20 -46.5t27 -39.5h-1q42 -46 82 -46q51 0 51 33q0 102 -153 102zM1552 0v292q2 103 -15.5 177.5t-55.5 122.5q-84 107 -282 107q-274 0 -307 -225q69 -8 126 -31t100 -58q48 -43 73.5 -97t25.5 -119q0 -84 -33 -124t-101 -42q-60 -2 -104 10
t-75.5 39.5t-53.5 69.5t-40 100q-22 -14 -38.5 -27t-37.5 -31h1q-8 -8 -19 -16.5t-22 -17.5q-44 -34 -80 -58.5t-64 -37.5q-38 -17 -83 -26t-94 -9q-41 0 -74 20t-58 57q-20 32 -31 68.5t-11 78.5q0 55 125 270q121 215 121 238q0 12 -40 12q-37 0 -63 -41t-52 -120l-94 -2
q20 142 82 231q84 122 206 122q141 0 141 -162q0 -82 -85 -201q-3 -4 -6 -8.5t-7 -9.5q-16 -24 -46.5 -68.5t-81.5 -104.5q-13 -17 -24 -36.5t-19 -38t-12.5 -35t-4.5 -28.5q0 -15 5 -25q20 -25 42 -25q27 0 63.5 25t79.5 59l10 8l10 8q81 64 136.5 102.5t97.5 56.5v17
q0 127 32.5 216t92.5 144.5t145.5 80.5t190.5 25q206 0 318 -147q97 -132 97 -338v-448h-107z" />
    <glyph glyph-name="e" unicode="e" horiz-adv-x="1100" 
d="M357 645q41 131 118 199.5t192 68.5q91 0 161.5 -36.5t120.5 -105.5q38 -60 61 -139t23 -175q0 -203 -111 -590q-110 -392 -110 -591q0 -78 15 -158t47 -162q-14 -15 -31 -33t-29 -30q-3 -3 -9.5 -10t-14 -14t-14 -14t-9.5 -10q-44 112 -63 198.5t-19 164.5q0 99 26 244
t80 338q107 386 107 583q0 60 -17 111.5t-46 90.5v-1q-35 43 -81.5 66t-106.5 23q-221 0 -227 -340q-22 -8 -47 -16t-44 -16q-1 0 -6 -2t-10.5 -4t-10.5 -4t-6 -2q-2 143 -40.5 280.5t-114.5 282.5q9 -3 23.5 -8t30 -11t28.5 -11t18 -7q8 -4 20 -8.5t29 -10.5
q7 -14 20.5 -46.5t36.5 -95.5z" />
    <glyph glyph-name="f" unicode="f" horiz-adv-x="2143" 
d="M627 235q-2 -65 -8.5 -120.5t-35.5 -89.5q-18 -11 -37.5 -17t-41.5 -7q-23 0 -39.5 5t-28.5 12t-19.5 15t-12.5 15q-14 22 -22 43.5t-11.5 43t-4 45t-0.5 49.5q0 69 18 204q10 67 14 116t4 81q0 26 -1 43t-4 24q-7 10 -14.5 17.5t-18.5 6.5q-30 -2 -40.5 -19.5
t-10.5 -43.5q0 -6 0.5 -13t1.5 -15q1 -4 1 -8.5t1 -9.5q2 -22 7 -52.5t15 -74.5h-94q-34 140 -34 191q0 251 155 251q129 0 129 -207q0 -39 -4 -97t-12 -137q-8 -78 -12 -134.5t-4 -94.5q0 -8 6 -75q0 -8 8 -13t20 -7q8 1 17 4.5t13 10.5q8 65 9.5 122t1.5 114
q0 44 0.5 89.5t4.5 89.5q6 77 23 137.5t53 103t96.5 67t153.5 29.5q13 -1 21.5 -8t13 -16t6 -18t-0.5 -13q-27 -67 -48.5 -135t-36.5 -128t-22.5 -108t-7.5 -76q0 -40 13.5 -74t37 -59t55 -39t67.5 -14q8 0 26.5 5t39 14t39.5 21t28 26q20 38 37.5 69.5t27.5 43.5
q24 30 53.5 46.5t64.5 16.5q65 0 113 -62q5 -7 19.5 -35t37.5 -79v1q32 -62 56 -62q225 0 225 217q0 98 -50 168q-55 73 -147 73q-13 0 -40 -6.5t-70 -20.5q27 251 265 251q370 0 370 -623v-305h-107v269q0 197 -53 309.5t-150 144.5q19 -19 34 -43.5t29 -54.5
q24 -56 34 -124.5t13 -145.5q4 -123 -63 -235q-74 -119 -199 -119q-66 0 -130 68l-95 123q-26 34 -50.5 52t-46.5 18q-54 0 -88 -57v1q-20 -32 -41 -66.5t-41 -66.5q-56 -72 -127 -72q-145 0 -226 136q-70 116 -70 273q0 54 14 134.5t37 167.5q-30 -18 -50 -51v1
q-23 -37 -35 -79.5t-17 -88t-6 -92t-1 -91.5q0 -19 0.5 -38t-0.5 -38z" />
    <glyph glyph-name="g" unicode="g" horiz-adv-x="1890" 
d="M1611 682q5 -5 10 -5q-3 2 -5.5 2.5t-4.5 2.5zM1643 466q0 -46 -5.5 -95.5t-19 -97t-35 -89.5t-54.5 -73l-4 -4l-4 -4q-19 -18 -42.5 -36.5t-63.5 -34t-102.5 -25t-159.5 -9.5q120 138 176.5 240t56.5 177q0 270 -360 270q-400 0 -400 -263q0 -52 8 -99t25.5 -91
t46 -87.5t69.5 -88.5q7 -9 6.5 -19t-6 -18.5t-14 -14t-17.5 -5.5h-84q-144 0 -215 102.5t-71 313.5q0 22 3 52t8 70q12 81 12 117q0 37 -36 53q-58 -33 -52 -101l10 -150h-91q-11 88 -16 132.5t-5 51.5q0 285 191 285q117 0 117 -170q0 -60 -18 -175q-8 -58 -13 -99.5
t-5 -68.5q0 -204 97 -265q-27 78 -39 144.5t-12 127.5q0 506 505 506q225 0 348 -128q124 -132 124 -353q0 -99 -79 -272q28 28 49 67.5t34.5 86t20.5 99.5t7 109q-3 75 -8 130t-12.5 95.5t-15.5 69t-17 50.5q-6 15 1 30.5t26 15.5q78 0 135.5 -26.5t95 -87t56 -158.5
t18.5 -240v-413h-106q-1 21 -2 54.5t-1 57.5q0 17 0.5 35t0.5 35q0 22 0.5 43.5t0.5 43.5q0 92 -3 159t-10.5 113.5t-20.5 76t-33 46.5q2 -24 2.5 -56.5t0.5 -63.5z" />
    <glyph glyph-name="h" unicode="h" horiz-adv-x="2153" 
d="M1906 287q0 -286 -142 -286q-2 0 -13 0.5t-25 3t-28 8.5t-22 17l1 -1q-29 33 -40 76.5t-11 97.5q0 20 2 49t7 64q5 36 7 64t2 45q0 142 -33 199q-44 78 -167 78q-46 0 -80 -18.5t-57.5 -54t-38 -86.5t-21.5 -116q-2 -14 -3 -28.5t-2 -27.5q-3 -45 -8.5 -86t-17.5 -80
q-47 -103 -156.5 -153.5t-279.5 -50.5q-205 0 -317 129q-89 107 -89 271q0 14 0.5 28.5t2.5 28.5q-1 8 -1 15.5v15.5q0 35 3 64t6 56q2 14 3.5 29.5t3.5 31.5q1 18 -3.5 29t-11.5 17t-15 7t-12 -2l1 2q-22 -16 -32 -42.5t-11 -62.5q1 -25 4 -50.5t8 -51.5q2 -9 4.5 -26.5
t4.5 -27.5l-83 -25q-20 62 -30 113t-10 92q0 293 192 293q61 0 97 -57h-1q16 -23 23.5 -53t5.5 -61q-3 -66 -20 -138q-8 -32 -12 -73.5t-4 -92.5q-1 -9 -1.5 -16t-0.5 -14q0 -184 314 -184q170 0 250 45q53 29 73 81.5t20 128.5q0 11 1 32t2 44q2 23 2.5 44.5t0.5 32.5
q0 161 99 227v-1q79 55 248 55q253 0 253 -383q0 -19 -1 -43t-3 -54q-1 -11 -1 -23.5t-1 -26.5q-6 -98 -6 -144v-22v-31.5t2 -28t6.5 -20t13.5 -7.5q13 0 21.5 14t13.5 37.5t7 55t2 66.5q-1 144 -6 238.5t-12.5 156.5t-18 99t-22.5 67q-5 14 2 29.5t25 15.5
q79 0 135.5 -26.5t93 -87t53.5 -158.5t17 -240l2 -419h-107v276q0 91 -2.5 158t-9 113.5t-19 75.5t-31.5 46q2 -28 3 -77v-157z" />
    <glyph glyph-name="i" unicode="i" 
d="M-549 1149q260 126 260 282q0 255 -291 255q-301 0 -301 -231q0 -108 67 -175q12 -14 191 -137q-8 -11 -21 -26t-19 -22q-2 -2 -11 -12.5t-20 -24.5q-124 48 -242 137t-232 221l78 79q13 -14 22 -24.5t19 -22t24 -27t37 -39.5q-12 48 -17 83t-5 60q0 187 112 294
q111 102 298 102q203 0 318 -109t115 -311q0 -283 -314 -444z" />
    <glyph glyph-name="j" unicode="j" horiz-adv-x="1575" 
d="M1396 0q-7 112 -34 175.5t-80 89.5q-32 12 -105.5 19.5t-189.5 9.5l-6 105l182 11q33 2 50.5 3t22.5 2h-1q153 33 153 125q0 152 -302 152h-125q-169 0 -253 -55q-48 -32 -70 -87t-22 -137q0 -171 167 -371q6 -7 4.5 -14.5t-6 -13.5t-10.5 -10t-9 -4q-10 0 -19 -0.5
t-17 -0.5q-123 0 -194 28.5t-107 81t-46 127t-10 166.5q0 43 9 130q9 85 9 126q0 28 -5.5 40t-18.5 13q-30 2 -43.5 -23t-13.5 -72q0 -9 2 -28.5t5 -42.5t7 -47t8 -43l-88 -12q-8 28 -14 57.5t-10.5 56.5t-7.5 48t-4 31t-1 20v18q0 57 12 103.5t34 80.5t53 52.5t69 18.5
q19 0 40 -6q30 -8 50 -25t32 -39.5t16.5 -49.5t4.5 -56q0 -51 -9.5 -100t-17.5 -86v1q-9 -60 -11.5 -99t-2.5 -67q0 -45 5.5 -86t18 -74.5t32.5 -57t49 -32.5q-19 40 -31.5 75t-20.5 68t-11.5 64.5t-3.5 65.5q0 499 564 511q162 -14 276 -88q66 -45 102.5 -110.5
t38.5 -150.5q2 -83 -33 -147.5t-101 -95.5q0 -2 3 -2q16 -8 28 -16t24 -23t26.5 -42t36.5 -74q6 -26 13 -68.5t15 -118.5h-108z" />
    <glyph glyph-name="k" unicode="k" horiz-adv-x="1940" 
d="M393 118q0 -1 3 -1zM398 117q15 -3 16 -3q24 0 35 40.5t14 134.5q-17 -16 -31 -35.5t-24 -39.5t-16 -39t-6 -34q0 -20 10 -24h2zM962 287q-108 39 -244 51q32 -52 72 -94t81.5 -72t83 -46.5t76.5 -16.5q113 0 113 29q0 84 -182 149zM1697 427q1 -10 1 -20.5v-18.5
q0 -117 -4.5 -192.5t-20.5 -119t-47 -60.5t-83 -17q-38 0 -62 18.5t-38.5 62.5t-20 117t-6.5 181q-4 99 -16 162t-49.5 99t-110 50t-197.5 14q-314 0 -360 -141q138 -11 249 -41t189 -77.5t119.5 -109.5t41.5 -136q0 -199 -250 -199q-62 0 -126 25t-121.5 70t-104 107
t-72.5 136h-18t-18 -2q-3 -100 -9.5 -165t-24.5 -103t-50 -53t-84 -15q-36 0 -61 12t-41 32.5t-23.5 49t-7.5 61.5q0 45 14.5 95.5t40 97.5t61 86.5t77.5 62.5q-2 47 -4.5 87.5t-9 70t-19.5 46.5t-36 17q-42 0 -71 -68.5t-37 -215.5l-84 2q7 489 211 489q66 0 105.5 -92.5
t46.5 -287.5q7 3 18 6q19 193 138.5 286.5t331.5 93.5q161 0 263 -43.5t150 -130.5q26 -53 40 -160t14 -278q0 -10 -0.5 -19t-0.5 -18v-32q0 -46 6.5 -72t32.5 -26q12 0 19 19.5t10.5 48.5t5 62t1.5 60q0 135 -4.5 225t-12.5 149.5t-18.5 96.5t-22.5 65q-3 3 -3 5.5v8.5
q0 13 8.5 23t22.5 10q78 0 134 -26.5t92.5 -87t53.5 -158t17 -239.5v-413h-107v269q0 94 -2 161.5t-9 114.5t-19 76t-31 45v-3q1 -17 2 -43t1 -61v-132z" />
    <glyph glyph-name="l" unicode="l" horiz-adv-x="2104" 
d="M1758 120q-53 -66 -134 -94t-187 -28q-163 0 -258 54t-132 157q-18 57 -23.5 119.5t-7.5 126.5q-1 56 -6 112q-8 73 -46 112t-116 39q-102 0 -149 -69t-47 -217q0 -14 2 -44.5t4 -65.5t4 -67.5t2 -47.5q0 -104 -38.5 -155.5t-109.5 -51.5q-141 0 -141 219q0 15 1 36.5
t3 47.5t4.5 55t5.5 59q3 31 5.5 61t5 56.5t3.5 48t1 34.5q0 29 -1 49t-4 25q-2 4 -4.5 8t-4.5 7q-4 7 -9.5 11t-23.5 4q-17 0 -28 -24.5t-11 -68.5q0 -7 8 -44.5t25 -112.5l-96 -21q-23 83 -35 140.5t-12 92.5q0 254 180 254q122 0 122 -217q0 -16 -1.5 -40.5t-3.5 -54
t-5 -63t-6 -67.5t-5.5 -67.5t-4.5 -62.5t-3.5 -52.5t-1.5 -37.5v-74q4 -13 9.5 -24.5t18.5 -12.5q15 1 25 14t16.5 34.5t9 50t2.5 60.5q0 13 -1.5 38.5t-3.5 55.5q-2 29 -3.5 58.5t-1.5 43.5q0 418 291 418q209 0 260 -179v1q10 -33 21 -110t11 -205q0 -54 11.5 -92
t44.5 -62t93.5 -35t159.5 -11t159.5 14t93.5 44t45 76t13 109q-3 90 -8.5 154.5t-12.5 111t-16 78t-18 56.5q-2 4 -2 14q0 32 28 32q79 0 136 -27t93.5 -87.5t53.5 -158t17 -239.5v-421h-107v277q0 93 -2 160.5t-9 114.5t-19 76t-32 46q2 -22 4 -56t2 -74v-23t-1 -23
t-1.5 -22t-0.5 -24v-14q0 -83 -23.5 -163.5t-76.5 -153.5v-1z" />
    <glyph glyph-name="m" unicode="m" horiz-adv-x="1591" 
d="M1353 408q-6 -110 -39.5 -187.5t-94.5 -126.5t-148 -71.5t-199 -22.5q-240 0 -358 72.5t-118 230.5q0 103 103 193q-48 19 -76 53t-28 84q0 45 8.5 83t31.5 69q-43 -15 -67 -37t-36 -49t-14.5 -59.5t-2.5 -69.5q0 -25 10.5 -63t32.5 -98l-83 -55q-37 61 -56 126t-19 134
q0 315 471 315h355v-193q-136 0 -228 -3t-147.5 -13.5t-79 -32t-23.5 -57.5q0 -25 22.5 -40t58 -23.5t79.5 -11t88 -2.5h166v-104l-249 3q-94 -2 -138.5 -29t-44.5 -78q0 -62 80.5 -97t256.5 -35q191 0 279 64q28 16 47 43.5t30.5 63t16 77t4.5 85.5q0 57 -6 112.5
t-14.5 101t-16.5 76.5t-11 39q-5 4 -5 7v9q0 14 6.5 24t20.5 12q80 -2 137 -29t93 -88t53 -158.5t17 -239.5v-412h-107v56q0 11 -0.5 21.5t-0.5 20.5v85q0 22 0.5 44t0.5 44q0 94 -2 161.5t-9 114t-19 75t-33 44.5q2 -28 4 -75t2 -99v-42.5t-1 -41.5z" />
    <glyph glyph-name="n" unicode="n" horiz-adv-x="1604" 
d="M398 123q50 0 67 171q-85 -78 -85 -136q0 -35 18 -35zM899 321q-107 28 -189 31q59 -125 155 -182q54 -31 103.5 -46.5t105.5 -15.5q70 0 70 42q0 78 -247 171h2zM1423 0v35q1 28 3 102.5t2 202.5q0 129 -26.5 209t-76.5 112q-83 49 -304 49q-315 0 -343 -152h2
q106 0 200.5 -22.5t178.5 -60.5q110 -52 167.5 -121t57.5 -154q0 -200 -213 -200q-148 0 -284 100q-62 47 -108.5 105.5t-83.5 141.5q-10 -1 -12.5 -1t-9.5 -2v-30q0 -316 -167 -316q-141 7 -141 174q0 205 193 320q-2 35 -6 77t-11 90q-5 32 -18 49.5t-32 17.5
q-20 0 -34 -13t-24 -33t-16.5 -45.5t-11.5 -50.5v3q-1 -2 -1 -7q-2 -11 -5.5 -44t-5.5 -103q-17 -2 -35 -3t-26 -2h-6.5t-10 -0.5t-10 -0.5h-5.5q0 5 -0.5 20t-0.5 20v21q0 439 193 449q78 -10 115.5 -55.5t42.5 -142.5v1q2 -27 4 -50.5t3.5 -46.5t3.5 -46.5t4 -50.5
q4 1 13 4q34 380 499 387q453 -9 453 -437v-500h-107z" />
    <glyph glyph-name="o" unicode="o" horiz-adv-x="1128" 
d="M699 6q-36 0 -67 9.5t-54 27t-36 41t-13 50.5q0 32 9.5 59.5t27 48t41.5 32.5t54 12q13 0 26.5 -2.5t26 -11t23.5 -23.5t20 -39v-9v-4q0 -3 1.5 -6t8 -5.5t19.5 -4t36 -1.5q35 0 59.5 17.5t44.5 47.5q17 26 20.5 57.5t3.5 70.5q0 85 -28 153t-87 115t-151 72t-219 25
q-39 0 -84 -9t-92 -24.5t-95.5 -35.5t-95.5 -42l-34 52q180 264 467 264q118 0 215 -39t166 -110t107 -171.5t38 -223.5q0 -111 -32 -190.5t-112 -134.5q-20 -13 -41.5 -25.5t-47 -22t-56.5 -15t-69 -5.5z" />
    <glyph glyph-name="p" unicode="p" horiz-adv-x="1504" 
d="M1268 367q0 -2 0.5 -5t0.5 -5q0 -28 -6.5 -60t-20 -64.5t-34.5 -64.5t-49 -61q-65 -61 -152.5 -84t-190.5 -23q-234 0 -345.5 117.5t-111.5 351.5q0 21 2 49.5t11 72.5q5 23 6.5 40.5t1.5 32.5q0 34 -4 50.5t-21 16.5q-56 0 -56 -138q0 -2 0.5 -12t1.5 -27
q0 -8 0.5 -20.5t1.5 -26.5t1.5 -28t0.5 -26h-9t-13 -0.5t-12.5 -0.5h-8.5h-36q-14 56 -21 102t-7 82q0 297 189 297q27 0 44 -3t27.5 -9.5t16.5 -15.5t11 -21q10 -23 12.5 -52t2.5 -67q0 -25 -6 -69t-14 -92q-7 -46 -12.5 -86t-5.5 -59v-12q0 -57 24.5 -96t73.5 -63.5
t122.5 -35t172.5 -10.5q179 0 236 57q66 64 66 272v4q-3 68 -8.5 117t-12.5 85q-2 14 -4 27t-4 25q-3 17 -5 34.5t-6 28.5q-2 4 -2.5 7.5t-0.5 8.5q0 32 28 32q78 0 130.5 -35.5t89.5 -95.5q35 -60 52 -156.5t17 -235.5v-417h-107v56q0 11 -0.5 21.5t-0.5 21.5v88
q0 22 0.5 44t0.5 44q0 89 -2 154.5t-8 112t-17.5 76t-31.5 47.5q3 -30 5 -77t2 -94q0 -35 -1 -66t-4 -54v-7z" />
    <glyph glyph-name="q" unicode="q" horiz-adv-x="1516" 
d="M1337 0v273q0 107 -6 184t-33 130q-38 72 -107 101q30 -32 49 -66t30 -69t15 -70.5t4 -70.5q0 -84 -20 -147t-52.5 -108.5t-74 -75t-85.5 -46.5q8 -26 14 -57.5t11 -67.5l-70 -10q-11 24 -25 52t-30 54q-38 -6 -75.5 -8.5t-75.5 -2.5q-230 0 -337 113.5t-107 339.5
q0 20 4 51.5t8 65.5q5 31 8 57t3 38q0 20 -4.5 37.5t-28.5 24.5q-51 -22 -51 -137q0 -11 2 -25.5t5 -32.5q1 -6 2.5 -14.5t3 -18t3 -18.5t2.5 -16l-84 -26q-19 54 -27.5 103t-8.5 86q0 48 4.5 95t21.5 92q22 59 60.5 89t76.5 30q78 0 113 -33.5t35 -101.5q0 -28 -5 -78
t-18 -107q-14 -60 -16.5 -109t-2.5 -75v-8q0 -96 74.5 -138.5t232.5 -42.5h70q-35 48 -75 98.5t-93 114.5q-17 -16 -39 -37.5t-36 -35.5l-61 39q28 54 64.5 112t87.5 124q58 -48 128.5 -149.5t155.5 -260.5q103 16 153 63t50 134q0 112 -57.5 172t-182.5 60q-8 0 -36 -3
q-4 0 -12.5 -1t-18.5 -1.5t-19 -1.5t-15 -1q62 271 289 271q69 0 127 -28t100 -77t65.5 -114t23.5 -138v-576h-107z" />
    <glyph glyph-name="r" unicode="r" horiz-adv-x="1480" 
d="M273 57q121 85 172.5 177.5t51.5 199.5q0 84 -26.5 150.5t-92.5 114.5h1q-8 6 -16.5 7.5t-16.5 1.5q-11 0 -18.5 -15t-13.5 -38.5t-11 -52.5t-9 -57l-82 11q-5 43 -9 91t-4 89q0 39 4.5 74t15 61.5t29 42t46.5 15.5q63 0 121 -42.5t108 -128.5q41 -74 63 -149.5
t22 -145.5q0 -35 -2.5 -71.5t-10 -74.5t-22 -77t-39.5 -79q22 15 40 36t31.5 44t22 46.5t10.5 42.5q3 31 5.5 61t4.5 61q4 59 10 117.5t20 111.5t38.5 98.5t66 78.5t103 52t148.5 19q118 0 191 -25.5t113.5 -79t55 -137t14.5 -199.5v-488h-107v411q0 77 -12 134t-42 95
t-81.5 57t-131.5 19q-99 0 -155 -27.5t-85 -75t-38 -111t-15 -135.5l-6 -70q-12 -103 -57 -172.5t-120 -101.5q-24 -9 -79.5 -16t-126.5 -7h-28.5t-28.5 1l-2 -1q-15 0 -22 10t-7 24q0 8 1 12t6 9z" />
    <glyph glyph-name="s" unicode="s" horiz-adv-x="1557" 
d="M308 138q0 -16 10 -20q23 5 59 54t83 133h-21q-63 0 -94.5 -42t-36.5 -125zM1326 427q-1 -106 -30.5 -186t-83 -133.5t-128.5 -80.5t-167 -27q-39 0 -90.5 31.5t-118.5 92.5l-150 133q-3 -6 -4 -8.5t-4 -7.5q-32 -63 -51 -98t-32 -51v1q-72 -93 -178 -93q-90 0 -90 137
q0 74 23 139t66.5 114.5t106.5 80t144 36.5q17 42 25 80t8 73q0 75 -63 75q-44 0 -90.5 -71.5t-109.5 -214.5l-94 16q127 468 361 468q26 0 51 -15.5t44.5 -41t31 -58t11.5 -65.5q0 -20 -15 -89.5t-45 -185.5q17 -11 38.5 -28t50.5 -40q20 -17 44.5 -36t53.5 -42
q69 -54 116 -81t81 -27q40 0 68 15t47.5 40t31 57.5t17.5 66.5t8 67.5t2 60.5q0 76 -2 129.5t-6.5 92t-11.5 65.5t-16 50v-1q-2 5 -3.5 9.5t-1.5 11.5q0 18 10.5 30.5t28.5 12.5q79 -1 132 -28t84.5 -87t44.5 -157.5t13 -240.5v-418h-107v275q0 91 -2 158t-8 113.5
t-17.5 75.5t-30.5 46q4 -35 5 -76t1 -83v-41t1 -40v-1z" />
    <glyph glyph-name="t" unicode="t" horiz-adv-x="1868" 
d="M1630 662q4 -31 6.5 -82t2.5 -135q3 -29 3 -55q0 -95 -6.5 -167.5t-23.5 -121.5t-46.5 -74t-76.5 -25q-127 0 -127 203q0 14 2 42.5t4 58.5q2 31 3.5 59t1.5 42q0 75 -14.5 132.5t-50 96t-95.5 58t-152 19.5q-60 0 -114 -7t-94.5 -21t-64 -35t-23.5 -48q0 -35 68 -43
q74 -8 118 -13.5t66 -11.5q107 -42 107 -176q0 -114 -25 -184.5t-72 -108.5t-114.5 -51t-151.5 -13q-53 0 -99.5 4t-86.5 14.5t-74 29t-64 48.5q-51 50 -75 113t-24 148q0 22 6 65t14 93q8 51 14.5 96t6.5 65q0 6 -0.5 14t-1.5 15.5t-3 12.5t-5 5q-25 0 -41 -24t-16 -73
q0 -28 4 -59.5t11 -67.5l-87 -31q-38 87 -38 162q0 62 13.5 116.5t38 95t58.5 63.5t75 23q126 0 126 -126q0 -12 -2 -32.5t-5.5 -45.5t-8 -51.5t-8.5 -50.5q-5 -27 -9 -54.5t-8 -52.5t-6 -45.5t-2 -32.5q0 -206 281 -206q47 0 94.5 5.5t85.5 15.5t62 24t24 30q0 69 -74 69
q-9 0 -25.5 -1t-36.5 -3q-19 -2 -37 -3.5t-28 -1.5q-168 0 -168 192q0 373 423 373q106 0 172.5 -17t107 -50t63.5 -81t43 -110q7 -39 11.5 -69.5t7 -54.5t3.5 -44t1 -39q0 -17 -0.5 -34.5t-1.5 -37.5q-2 -30 -3 -70t-1 -100q0 -9 0.5 -22.5t3 -25.5t7 -20.5t13.5 -8.5
q13 0 20.5 8t12 20.5t6.5 29t4 34.5q2 13 3 26.5t3 25.5v28.5t1 28.5q0 11 0.5 28.5t0.5 29.5q0 106 -6 180t-15.5 125t-21 84.5t-21.5 59.5q1 -1 -1.5 7t-4.5 12q-5 5 -5 18q0 32 29 32q78 0 133.5 -26.5t91.5 -87t52.5 -158.5t16.5 -240v-413h-97q0 28 -0.5 61.5
t-0.5 69.5v71.5v67.5q0 89 -2.5 154.5t-9.5 112t-19.5 77t-31.5 48.5z" />
    <glyph glyph-name="u" unicode="u" 
d="M-279 -1138q35 141 56.5 314t32.5 373q-15 -94 -42 -176t-67 -163h1q-17 -43 -40 -92.5t-49 -104.5q-27 -56 -51.5 -106.5t-47.5 -98.5q-51 -86 -91 -203q-11 -31 -11 -54q0 -48 54 -70q79 -1 141.5 99.5t113.5 281.5zM-75 -11v-167q0 -265 -3 -487q-2 -119 -16.5 -245.5
t-41.5 -265.5q-54 -258 -148 -425q-89 -153 -257 -153q-25 0 -49 3q-75 4 -114 52.5t-38 143.5q1 179 135 407q2 3 6.5 11.5t12.5 22.5q9 17 21.5 40.5t29.5 53.5q4 8 9 16.5t10 18.5q11 20 23 42t26 46q20 37 36.5 70t29.5 62q58 107 93.5 231.5t47.5 268.5q15 -5 38 -11
t40 -11q1 51 1.5 102t0.5 95v79h107z" />
    <glyph glyph-name="v" unicode="v" horiz-adv-x="1846" 
d="M1235 132q0 19 -16.5 43t-44.5 45.5t-63.5 36.5t-72.5 17q10 -23 29.5 -51t44 -52t50.5 -40.5t49 -16.5q11 0 17.5 5t6.5 13zM650 445q-20 57 -47.5 107.5t-55 88.5t-50.5 60t-33 22q-7 0 -17.5 -13.5t-21 -33.5t-19 -43t-11.5 -42h-86q0 66 13.5 126.5t33.5 107t44 74
t45 27.5q27 0 57 -22t59.5 -59t57 -85.5t51 -100.5t41 -105t26.5 -99zM1771 0h-107v343q0 96 -19 164.5t-58 112t-99 64t-141 20.5t-137.5 -11t-88.5 -34q-18 -11 -34.5 -32.5t-29.5 -48.5t-22 -56.5t-13 -57.5q50 -4 95.5 -21t84.5 -43t71 -59t54.5 -69t34.5 -72.5
t12 -68.5q0 -58 -37 -94.5t-118 -36.5q-39 0 -81.5 17.5t-81.5 49.5t-71 76t-50 98l-96 -84t-96 -83q-58 -39 -116 -56.5t-117 -17.5q-83 0 -128.5 34t-45.5 112q0 51 40.5 112t122.5 118l64 -77q-105 -84 -105 -126q0 -9 12.5 -12.5t24.5 -3.5q19 0 38.5 6t42 20.5
t50.5 39.5t63 63l18 19h-1q26 27 48 49.5t45 40.5t50 32.5t63 26.5q3 106 34 194t83.5 150t124 96.5t155.5 34.5q303 0 407 -188q19 -35 30 -80t16.5 -101t7 -123t1.5 -145v-292z" />
    <glyph glyph-name="w" unicode="w" horiz-adv-x="1484" 
d="M1412 0h-107v284q0 62 -3.5 131t-18.5 129.5t-45.5 104.5t-84.5 56q34 -29 54.5 -63.5t31 -75.5t14 -87.5t3.5 -98.5q0 -89 -20.5 -159.5t-75.5 -119.5t-152.5 -74.5t-251.5 -25.5q-108 0 -184.5 29t-125 87t-71 145t-22.5 203q0 19 2.5 44.5t7.5 60.5l6 33q5 23 8 44
t3 38q0 14 -5 23t-19 9q-16 0 -26 -9.5t-16 -26t-8 -39t-2 -47.5q0 -29 2 -65.5t4 -66.5l-90 -34q-15 65 -18 104.5t-3 65.5q0 63 11.5 122t33 105.5t52.5 74.5t71 28q43 0 70.5 -12t43.5 -33.5t22 -52t6 -67.5q0 -26 -6.5 -71.5t-15.5 -94.5v1q-8 -46 -15 -85.5t-7 -58.5
q0 -111 82 -159t258 -48q65 0 126.5 3.5t109.5 21.5t77 56.5t29 108.5q0 60 -13.5 101.5t-50 67t-101 38t-166.5 15.5q100 269 287 269q160 0 234.5 -126.5t74.5 -387.5v-415z" />
    <glyph glyph-name="x" unicode="x" horiz-adv-x="2259" 
d="M1990 76q-8 -20 -16 -34t-21 -23.5t-33 -14t-51 -4.5q-70 0 -98 56.5t-28 172.5q0 30 2 63.5t4 68.5q2 34 4 66.5t2 63.5q0 112 -47 163.5t-159 51.5q-51 0 -90.5 -9t-63.5 -41q-2 -5 -5 -11.5t-5 -11.5q-17 -39 -33 -71.5t-37.5 -56.5t-50.5 -37.5t-72 -13.5
q-103 0 -147 67l-37 131q-17 23 -56 35t-104 12q-72 0 -122.5 -18.5t-79.5 -51.5q-20 -47 -35 -82.5t-27 -61.5q-54 -83 -155 -83q-241 0 -241 207q0 30 7 77.5t21 113.5l90 -5q1 -54 7.5 -88.5t20.5 -55t36 -28t55 -7.5q117 0 133 62l46 160q62 101 264 101q132 0 179 -90
q28 -108 42 -135q24 -54 130 -54q23 0 44 18.5t44 60.5q15 29 30.5 57.5t30.5 57.5q61 85 145 85q344 0 344 -451q0 -15 -1.5 -43.5t-3.5 -60.5q-2 -35 -4 -73t-2 -61q0 -42 5 -71.5t21 -29.5q12 0 18.5 9.5t10 25t4.5 35.5t1 40l2 194q-3 100 -9 171.5t-13.5 122.5
t-16.5 85t-19 59q-2 3 -2 7v9q0 32 30 32q78 0 134.5 -26.5t93 -87.5t53.5 -159t17 -240v-426h-107v264q0 101 -1.5 172.5t-8 120.5t-19 78.5t-33.5 45.5q0 -8 1 -12q2 -23 3 -59t1 -85v-217q0 -57 -4.5 -114t-15.5 -114z" />
    <glyph glyph-name="y" unicode="y" horiz-adv-x="1865" 
d="M301 451h-100q7 487 216 487q27 0 51 -10.5t42 -28.5t28 -42t10 -51q0 -35 -8.5 -89t-39.5 -127q-29 -69 -45 -119.5t-16 -85.5q0 -34 6 -62t27 -51v1q41 -44 105 -44q153 0 245 206q39 86 57 178t22 197q61 30 152 54q13 -160 33.5 -279t53.5 -197.5t80 -117.5t115 -39
q93 0 133 67.5t40 207.5q0 55 -4.5 116t-11.5 115t-15.5 94t-16.5 54q-5 5 -5.5 9t-0.5 10q0 32 29 32q79 0 136.5 -26.5t95 -87t55.5 -158.5t18 -240v-424h-107v57q0 11 -0.5 21.5t-0.5 21.5v88q0 22 0.5 43.5t0.5 43.5q0 105 -3.5 178t-13.5 121.5t-26.5 74.5t-37.5 41
q-7 7 -19 12l-8 3q0 1 3.5 -15.5t9 -44t11.5 -64t11.5 -76t9 -78.5t3.5 -73q0 -80 -18.5 -145.5t-54 -112t-86.5 -72t-117 -25.5q-92 0 -162 54t-115 152q-19 42 -41 125t-50 227q-31 -140 -76 -245t-98 -174.5t-112 -104t-118 -34.5q-276 0 -276 270q0 69 56 222
q29 73 42 128.5t12 89.5q0 25 -31 25q-10 0 -18.5 -12t-16.5 -30.5t-14 -40t-10 -40t-6.5 -31.5t-2.5 -14z" />
    <glyph glyph-name="z" unicode="z" horiz-adv-x="2953" 
d="M692 2q-308 6 -308 365q0 21 3 64t7 89t7 85.5t3 57.5q0 1 -0.5 8t-3.5 14.5t-9 14t-16 7.5q-28 -7 -40 -31.5t-12 -66.5q0 -14 1.5 -29t3.5 -29q2 -9 3 -23t3 -37l-85 -20q-3 13 -8 32.5t-7 29.5q-5 17 -8 31t-5.5 28t-3.5 29.5t-1 35.5q0 281 168 281q137 0 137 -203
q0 -12 -2 -32.5t-5 -46t-7 -53.5t-8 -55l-8 -54t-7 -50.5t-5 -42t-2 -27.5q0 -34 5 -66.5t18 -61t34 -52.5t54 -42q-64 137 -64 283q0 124 18.5 217.5t63 156t117 94t180.5 31.5q54 0 90.5 -17t62 -45.5t42 -65t28.5 -74.5q19 51 41.5 89t57 63.5t86 38.5t128.5 13
q36 0 71.5 -10t68 -31t60.5 -53t49 -76q31 -69 46 -145t16 -155q0 -136 -82 -298q88 61 114 164q41 162 70 256t46 127q60 109 168 166t262 57q123 0 222 -36t168 -104t106 -165.5t37 -220.5q0 -95 -30 -171t-84.5 -129t-131 -82t-169.5 -29q-23 0 -62 7t-97 21l5 121
q51 -17 90.5 -24t68.5 -7q69 0 127 20.5t99 58.5t64 90.5t23 117.5q0 66 -30.5 118.5t-86.5 89.5t-134 56.5t-173 19.5q-308 0 -394 -160l1 5q-24 -82 -48.5 -167.5t-47.5 -167.5q-15 -38 -47.5 -74t-80.5 -64t-110.5 -45t-138.5 -17q-32 0 -32 25q0 10 6 19
q102 102 150 201t48 187q0 262 -251 262q-43 0 -82.5 -12t-66.5 -29q-28 -22 -99 -119h-45q-23 51 -46.5 82t-49 48t-53.5 22.5t-60 5.5q-29 0 -55.5 -6t-50.5 -15t-44 -20.5t-36 -22.5q-87 -66 -87 -228q0 -91 47 -182t138 -177q0 -1 1 -1l-1 -1q0 -3 0.5 -6.5t0.5 -4.5
l1 -3q0 -25 -28 -25z" />
    <glyph glyph-name="braceleft" unicode="{" horiz-adv-x="1303" 
d="M1820 1q-86 0 -162 30l-18 128q60 -15 99 -22t65 -7q78 0 136.5 16t96.5 51t57 92t19 139q0 58 -25.5 107.5t-77 85.5t-130 56t-183.5 20q-92 0 -157 -6.5t-110.5 -22.5t-75 -43.5t-49.5 -70t-34 -101.5t-29 -138q-20 -88 -69 -158.5t-136 -116.5q7 -25 14.5 -54.5
t13.5 -50.5l-78 -16l-39 88q-23 -4 -49.5 -5.5t-53.5 -1.5h-36q-9 0 -18 0.5t-20 0.5q-203 0 -302.5 102t-99.5 302q0 17 1.5 39t3.5 49q4 38 7 81t3 81q0 42 -4 70.5t-15 28.5q-18 0 -29 -12t-16.5 -29.5t-7.5 -37t-2 -33.5q0 -11 3.5 -47t20.5 -106l-93 -35
q-18 50 -27.5 100t-9.5 102q0 142 47 207.5t146 65.5q31 0 52.5 -14.5t34 -39.5t18 -58t5.5 -70q0 -48 -6 -98t-12 -92q-4 -26 -6.5 -48t-2.5 -33q0 -73 18.5 -120t53 -74.5t84.5 -38t114 -10.5h101q-21 32 -45 64.5t-48 62.5t-48 57t-46 48q-5 -6 -11.5 -12t-12.5 -11
q-10 -9 -24.5 -22t-24.5 -22l-66 33q35 74 76 134t90 106q105 -135 172.5 -243t109.5 -193q37 9 65.5 27.5t49.5 45t35.5 58.5t24.5 67l-1 -2q12 73 23.5 138.5t32 121t54 99.5t89.5 75t139 47.5t201 16.5q130 0 229.5 -25t167 -83.5t102.5 -156t35 -241.5q0 -43 -7 -88
t-21 -87t-35.5 -78.5t-50.5 -63.5q-114 -105 -286 -105z" />
    <glyph glyph-name="bar" unicode="|" horiz-adv-x="1387" 
d="M975 1112q-15 0 -27 -6q-11 -14 -11 -24q0 -13 15 -23.5t38 -21.5q10 -3 22 -5.5t22 -4.5q9 -1 25 -2t35 -1q-67 88 -119 88zM313 451q-15 -4 -26 -6t-22 -5l-30 -8q-20 77 -28.5 132.5t-8.5 93.5q0 273 176 273q137 0 137 -150q0 -23 -5.5 -61t-17.5 -92l1 1
q-22 -98 -22 -151q4 -231 379 -231q356 0 356 336q0 59 -9 127.5t-27 150.5q-20 -2 -40.5 -3.5t-39.5 -1.5q-115 0 -178 51q-89 71 -89 174q12 151 157 151q9 0 18.5 -0.5t17.5 -1.5q93 -2 200 -177q68 30 101 68q39 47 74 121l36 -18h-1q15 -7 28 -12.5t24 -10.5
q-33 -201 -208 -304q26 -94 39.5 -194t13.5 -200q0 -131 -30 -215q-14 -44 -35.5 -81.5t-47.5 -70.5q-62 -65 -156.5 -101t-225.5 -36q-242 0 -356 122q-109 118 -109 286q0 24 3.5 58t8.5 79q6 40 12 105q0 3 0.5 6t0.5 6q5 50 -35 50q-37 0 -44 -62q-2 -10 -2 -18v-17
q0 -31 5.5 -65.5t16.5 -72.5z" />
    <glyph glyph-name="braceright" unicode="}" horiz-adv-x="1751" 
d="M1102 -20l-60 262h1q-26 113 -89 144q-19 -21 -41 -63q-7 3 -19.5 8.5t-16.5 7.5q-5 1 -11.5 4.5t-31.5 18.5q43 140 116 258q140 -102 185 -281q9 -40 20.5 -119t22.5 -196zM1461 145q32 17 55.5 60t37.5 109q30 151 56.5 246t49.5 140q65 112 179 168t285 56
q126 0 225.5 -36t169 -103.5t106.5 -163t37 -214.5q0 -93 -30 -171t-85 -134.5t-132.5 -88t-171.5 -31.5q-25 0 -61.5 4.5t-88.5 15.5q-2 12 -5 29t-6 34.5t-5.5 33.5t-4.5 27q50 -11 94 -17.5t78 -6.5q61 0 117.5 20t99.5 55.5t68.5 82.5t25.5 101q0 152 -104.5 236.5
t-305.5 84.5q-331 0 -417 -160l1 5q-12 -42 -23.5 -84.5t-23.5 -84.5q-11 -42 -23.5 -89t-23.5 -85q-33 -89 -141.5 -136t-304.5 -53q237 250 237 426q0 261 -387 261q-101 0 -173.5 -21.5t-119 -66.5t-68 -115.5t-21.5 -168.5q0 -136 212 -297q-112 -31 -158 -31
q-313 0 -313 410q0 19 2 55.5t4 75.5q2 40 3.5 75t1.5 53q0 49 -28 49q-65 0 -65 -105q0 -47 21 -137q-8 -3 -18 -6t-13 -4t-9.5 -3.5t-14.5 -5.5t-16.5 -6t-14.5 -5q-11 46 -17.5 78t-11 56t-6 43t-1.5 40q0 268 191 268q29 0 54.5 -14t44 -38t29.5 -57t11 -71
q0 -25 -7.5 -66.5t-15.5 -88.5q-5 -24 -9 -47.5t-8 -44.5t-6 -38t-2 -27q0 -170 99 -263q-31 77 -47 142t-16 121q0 118 35.5 211.5t101.5 158t161 99t214 34.5q489 0 489 -530q0 -62 -79 -241z" />
    <glyph glyph-name="asciitilde" unicode="~" horiz-adv-x="1337" 
d="M824 303q-8 5 -13 5q-30 0 -56 -21.5t-51 -67.5q65 13 95.5 30.5t35.5 40.5zM2138 98q-81 -62 -155 -82h1q-51 -16 -164 -16q-23 0 -54.5 2.5t-69.5 10.5q-5 23 -8 34t-7 22v-1q-2 6 -5.5 21t-10.5 44q77 -15 124.5 -19.5t80.5 -4.5q64 0 115 24t86.5 62t54.5 85t20 94
q-10 165 -121 252t-324 87q-272 0 -342 -175h-61q-73 175 -247 175q-145 0 -235 -151q-15 15 -24 32t-13.5 33t-5.5 29.5t-1 20.5q0 49 24 93.5t63.5 79t90 55.5t102.5 23q87 -4 158 -57t128 -160q71 111 162 164t206 53h38q118 0 212.5 -36t160.5 -102t101 -159.5
t35 -207.5q0 -195 -112 -322zM796 -546q-296 0 -296 314q0 51 8 107.5t24 123.5q-283 5 -283 270q0 47 24 115.5t69 156.5l90 175q-1 13 -10 13q-62 0 -133 -158q-6 2 -20 4.5t-19 4.5q-6 2 -20 4t-20 4q10 68 34.5 130t59.5 108.5t77.5 74t88.5 27.5q21 0 42 -7t37.5 -20.5
t27 -33.5t10.5 -45q0 -68 -72 -188q-52 -87 -87.5 -162.5t-56.5 -144.5v-6q0 -119 202 -119h4q124 225 250 225q24 0 45.5 -9.5t38 -25t26 -34.5t10.5 -38q1 -7 1 -14.5v-14.5q0 -53 -17.5 -100t-55 -85.5t-95.5 -66t-139 -41.5q-12 -44 -17.5 -81.5t-5.5 -72.5
q0 -190 216 -190q51 0 98.5 14t87 46.5t70 85.5t48.5 132q5 -1 20.5 -3t20.5 -3l17.5 -2.5t27.5 -6.5q-7 -104 -41 -189.5t-90 -146t-131.5 -94t-165.5 -33.5z" />
    <glyph glyph-name="exclamdown" unicode="&#xa1;" 
d="M-114 -1523q-77 -260 -298 -279q-68 19 -105 75q-17 23 -25 52t-8 63q0 124 148 266v-1q94 94 127 164q5 -1 13 -3t15.5 -3.5t12.5 -2t4 -0.5q5 -1 17.5 -3t17.5 -3q-24 -89 -99 -190q-51 -55 -79 -107q-25 -43 -14 -64q7 -19 49 -19q154 0 156 458h107q-2 -252 -39 -402
v-1z" />
    <glyph glyph-name="cent" unicode="&#xa2;" 
d="M169 -1475q0 -53 -27 -125q-12 -34 -35 -88t-49 -114q-29 4 -49 13t-39 33q64 148 64 204q0 52 -64 91h1q-11 7 -56.5 19.5t-123.5 31.5q2 8 4.5 26t4.5 26q9 43 15.5 86.5t6.5 85.5q0 15 -1.5 25t-6.5 40h111q1 -41 2 -64t4 -41q122 -38 180 -99.5t58 -149.5z" />
    <glyph glyph-name="yen" unicode="&#xa5;" 
d="M-177 -1100q0 202 -5.5 319.5t-16.5 159.5q-9 36 -25 74t-40 72t-55 61t-70 40q32 -34 54.5 -73.5t36 -80t19.5 -81t6 -77.5q0 -415 -266 -415q-83 0 -148 68q-12 12 -20 29t-16 37h1q-9 20 -18.5 42t-22 39.5t-28.5 29t-36 10.5q-25 3 -42 -5t-29.5 -23.5t-22 -37
t-18.5 -43.5v1q-11 -28 -23.5 -55t-30.5 -49t-44 -35.5t-63 -13.5q-69 -1 -117 16.5t-81 48.5t-52 72.5t-29 87.5t-12.5 94t-2.5 92q0 54 11 130t31 178q-26 -9 -43.5 -34t-29 -61t-16.5 -80.5t-5 -93.5v-146q0 -298 -147 -298q-133 0 -133 246q0 32 4 81t11 112
q8 61 11.5 109t3.5 77v13q0 16 -0.5 31.5t-4 27.5t-11 19t-21.5 8q-17 1 -28 -7.5t-17 -23.5t-8.5 -34.5t-2.5 -40.5q0 -23 2.5 -48.5t4.5 -48.5q1 -7 2.5 -23.5t2.5 -20.5h-96q-21 94 -21 216q0 121 40.5 175.5t130.5 54.5q64 0 99 -53.5t35 -173.5q0 -34 -4.5 -83
t-12.5 -115t-12.5 -113.5t-4.5 -79.5v-26q0 -8 -0.5 -16.5t-0.5 -17.5q0 -16 1 -31.5t4.5 -27.5t10 -19.5t17.5 -8.5q10 0 16.5 14t11 39.5t7 59t4.5 72.5q6 148 12 242t13 125q14 68 40 109.5t62 64.5t81 30.5t96 7.5q10 0 19.5 -0.5t18.5 -0.5q14 0 21.5 -4t10.5 -11
t3.5 -15t-0.5 -15v-8q-107 -219 -107 -359q0 -258 209 -258q18 0 32.5 11t26.5 28t21.5 37.5t17.5 38.5q4 9 8.5 21.5t8.5 19.5q29 38 62.5 55.5t70.5 17.5q78 0 117 -87q11 -32 24.5 -60t30.5 -49t37.5 -33t44.5 -12q174 0 174 199q0 57 -15 103t-42 81q-59 77 -165 77
q-5 0 -31 -3t-74 -10q49 125 120 180.5t169 55.5q91 0 161 -37.5t118 -118.5q38 -69 59.5 -154t21.5 -182v-429h-102z" />
    <glyph glyph-name="copyright" unicode="&#xa9;" horiz-adv-x="1100" 
d="M256 -1144h-193q100 309 203 622.5t203 616.5t201 611t202 617h189z" />
    <glyph glyph-name="logicalnot" unicode="&#xac;" 
d="M-4 1523q-93 0 -93 118t93 118q91 0 91 -118t-91 -118zM-65 602v641h110v-641h-110z" />
    <glyph glyph-name="registered" unicode="&#xae;" 
d="M-247 -406q-11 8 -19.5 2.5t-1.5 -25.5l8 1zM-228 -655q0 -223 -98 -332t-304 -113q-26 7 -32 23.5t11 36.5q88 97 128 188t40 182q0 236 -219 236q-41 0 -71 -13t-56.5 -36.5t-51 -57t-53.5 -75.5q-15 25 -37.5 56.5t-51 58.5t-62 45.5t-70.5 18.5q-64 -1 -104 -16
t-62.5 -46t-30.5 -78.5t-8 -112.5q0 -97 36 -185.5t101 -163.5q7 -6 8 -16.5t-2 -20.5t-10.5 -17t-17.5 -7h-98q-62 0 -113 31t-87.5 89.5t-56.5 142.5t-20 189v16q0 4 0.5 8t0.5 8q1 15 3 33t5 37q5 29 8.5 57t3.5 52q0 35 -6 40q-16 -1 -27 -11.5t-18.5 -26.5t-11 -36
t-3.5 -41q0 -3 0.5 -13t1.5 -25t2 -33.5t3 -37.5l-94 -27q-6 43 -12 96.5t-6 104.5q0 49 7.5 95t27.5 82t54.5 58t88.5 22q57 0 87 -47.5t30 -133.5q0 -30 -3.5 -73t-12.5 -101q-9 -57 -12 -98.5t-3 -67.5q0 -79 22.5 -133.5t60.5 -84.5q-45 126 -45 252q0 88 17.5 168
t46.5 146q45 88 104.5 133t138.5 43q51 -2 88.5 -16t64.5 -38t46 -56t33 -69q18 39 43.5 71t56.5 56t67.5 37.5t78.5 14.5q153 2 241 -142v1q38 -60 56 -132.5t18 -159.5q0 -67 -15 -137.5t-47 -155.5q24 23 41 57.5t28.5 73t17.5 78t7 72.5q-3 83 -7 144t-8.5 105.5t-11 75
t-13.5 51.5q-2 8 -4.5 19.5t-0.5 22.5t10.5 18t26.5 6q70 0 121 -26.5t84 -86t48.5 -155.5t15.5 -235v-407h-104q-1 21 -1.5 48.5t-1 57t-0.5 59v55.5v49q0 78 -2.5 136t-7.5 101t-13.5 71.5t-21.5 47.5v-3v-36q0 -23 -0.5 -56.5t-0.5 -84.5z" />
    <glyph glyph-name="macron" unicode="&#xaf;" 
d="M-238 -662q-1 -29 -5.5 -69.5t-15.5 -85t-29.5 -89.5t-46.5 -84q-23 -30 -48 -51t-55 -34t-67 -19t-86 -6q-130 0 -201.5 32t-105 89.5t-40 136.5t-6.5 174q0 15 0.5 31.5t1.5 31.5t1.5 30t0.5 29q0 30 -5 56t-19.5 45.5t-41.5 30.5t-72 11q-48 0 -81 -16.5t-53.5 -50.5
t-30 -85.5t-10.5 -120.5q0 -14 1.5 -33.5t3.5 -42.5q0 -4 0.5 -8t0.5 -7q2 -25 4 -53.5t2 -56.5q0 -43 -6 -83.5t-22 -71.5t-43.5 -49.5t-69.5 -18.5t-70 19.5t-44.5 53t-23.5 77.5t-7 94q0 57 6 114t12 108l2 23q5 35 8 63t3 48q0 63 -9 78l-2 11l1 -7q-3 9 -8.5 13
t-23.5 4q-23 0 -31 -21t-8 -50q0 -37 7.5 -74.5t13.5 -60.5q2 -6 2 -7v-2q2 -3 3 -8t1 -19l-88 -27q-48 174 -48 235q0 252 179 252q60 0 91.5 -53.5t31.5 -162.5q0 -35 -3.5 -89.5t-11.5 -126.5q-8 -73 -12.5 -130t-4.5 -92v-26v-25.5t2.5 -25t7.5 -18.5t15 -6q12 0 19 12
t11.5 32t6 44.5t1.5 50.5q0 32 -1.5 60.5t-3.5 48.5q0 2 -0.5 4t-0.5 4v99q0 47 2.5 95t12 92.5t27 83.5t48 67.5t75 45t107.5 16.5q100 0 154.5 -45.5t78.5 -131.5v1q11 -34 15 -110.5t4 -198.5q0 -68 19 -108t53 -60t81 -25.5t103 -5.5q36 0 60 2.5t40.5 7t28.5 10.5
t26 14q1 0 4 3q2 1 4 2.5t4 2.5l4 2q35 22 49.5 58.5t14.5 103.5q1 17 1 33v33q0 95 -11 185t-44 175q-7 17 0.5 32t26.5 17q77 -1 133 -27.5t92 -86t53.5 -156t17.5 -237.5v-407h-107v265q0 88 -3 152t-10.5 109t-19 73t-29.5 45q5 -44 5.5 -94.5t0.5 -95.5v-16z" />
    <glyph glyph-name="plusminus" unicode="&#xb1;" 
d="M493 -1071q-85 -381 -222 -440h1q-70 -34 -178 -37h-46h-37.5t-20.5 -1q-11 -1 -37.5 1t-72.5 7q154 172 255 382v-1q28 60 51 119.5t39.5 116t25.5 108t9 95.5q0 4 -15 21q-5 5 -10.5 8.5t-7.5 3.5q-67 0 -74 -72q-2 -17 -3 -54.5t-1 -94.5q-11 -2 -27.5 -5.5
t-24.5 -5.5q-2 -1 -8 -2.5t-13 -3.5t-13 -3.5t-9 -2.5q-9 94 -13 144t-4 57q0 110 41 184v-1q47 95 149 95q94 0 146 -76q22 -35 34 -74.5t12 -89.5q0 -79 -27 -171.5t-76 -189.5q-2 -5 -12 -21.5t-28.5 -49t-48 -82t-70.5 -119.5q101 10 129 44l-1 -2q80 115 123.5 293.5
t43.5 416.5q0 142 -18 319h97q15 -58 22 -130t7 -160q0 -230 -67 -526z" />
    <glyph glyph-name="twosuperior" unicode="&#xb2;" 
d="M293 -1536q-100 0 -160 103q-48 87 -48 198q0 8 2.5 43.5t6.5 91.5q7 7 14.5 12t14.5 9q8 -1 18.5 -1.5t17.5 -1.5q3 0 12.5 -0.5t11.5 -0.5q6 -227 134 -227q112 0 112 140q0 178 -285 186q-1 9 -2 26.5t-2 25.5q-1 12 -2 24.5t-5 35.5q248 4 248 120q0 91 -80 91
q-84 0 -115 -123q-16 -5 -38 -7.5t-50 -4.5q8 341 217 341q208 0 208 -287q0 -101 -116 -181q159 -117 159 -307q0 -306 -273 -306z" />
    <glyph glyph-name="mu1" unicode="&#xb5;" 
d="M-915 1919q-2 -1 -3.5 -1.5t-3.5 -1.5h8q2 0 4 1zM-945 1942l-12 -29q5 -1 11 -1q3 0 6.5 -0.5t6.5 1.5zM-946 1657q76 0 115.5 16.5t41.5 44.5v-1q0 11 -13.5 20t-35 15.5t-50 10t-58.5 3.5t-57.5 -3.5t-49 -10t-34.5 -16t-14 -21.5q-3 -24 38.5 -41t116.5 -17z
M-880 1026q290 90 290 169q0 144 -308 144q-320 0 -320 -132q0 -42 71 -86t217 -97l-87 -72q-134 30 -267 89.5t-270 148.5l109 51q14 -8 38.5 -23.5t53.5 -32.5q-6 23 -10 39.5t-4 26.5q0 48 13 86.5t42 68t77 49.5t118 32q-71 18 -128 51.5t-96.5 80.5t-61.5 106t-23 127
l98 -9q17 -65 50.5 -109t80.5 -71q-9 12 -14.5 26t-5.5 28q0 23 10 45.5t31.5 41.5t54.5 33t80 22q-9 8 -11.5 18.5t3.5 26.5l74 167q6 9 14.5 13t17.5 3t17 -6t12 -14l72 -162q10 -17 6.5 -27.5t-12.5 -18.5q91 -14 133.5 -53t42.5 -89q0 -28 -21 -52q47 28 80 71t50 107
l98 9q2 -133 -75 -227.5t-217 -134.5q58 -8 111.5 -23.5t85.5 -38.5q105 -78 105 -195q0 -179 -341 -281z" />
    <glyph glyph-name="cedilla" unicode="&#xb8;" 
d="M-906 1814q-1 0 -1 -1zM-947 1807q2 4 2 3zM-922 1812q9 0 13 1l-18 49l-18 -50q2 -1 5 -0.5t6 0.5h12zM-927 1365q111 0 165 27.5t56 80.5q0 22 -19 39.5t-50 29.5t-71.5 18.5t-83.5 6.5q-42 0 -80 -6.5t-68 -19.5t-49.5 -31t-23.5 -40q0 -22 16 -41t45 -33.5
t70.5 -22.5t92.5 -8zM-967 2074q17 20 39.5 19t38.5 -24l98 -282q6 -16 4.5 -28.5t-7.5 -22.5t-15 -17t-19 -11q70 -9 120.5 -31.5t83 -53.5t48 -70t15.5 -81t-24.5 -80t-68.5 -70q92 43 159.5 128.5t95.5 226.5l124 10q1 -141 -44 -258t-130.5 -201t-207 -130t-273.5 -46
q-149 0 -269 45.5t-205 129t-131.5 200.5t-48.5 260l126 -10q27 -138 92 -222.5t153 -128.5q-38 30 -60.5 67t-22.5 79q0 41 15.5 79.5t47.5 70t82.5 54t120.5 32.5q-12 5 -21 11t-14.5 15t-5.5 21.5t6 31.5z" />
    <glyph glyph-name="ordmasculine" unicode="&#xba;" 
d="M-744 1811q-1 0 -1 -1zM-785 1804l2 4zM-760 1809q9 0 13 1l-18 49l-18 -50h11h12zM-765 1362q111 0 165 27.5t56 80.5q0 22 -19 39.5t-50 29.5t-71.5 18.5t-83.5 6.5q-42 0 -80 -6.5t-68 -19.5t-49.5 -31t-23.5 -40q0 -22 16 -41t45 -33.5t70.5 -22.5t92.5 -8z
M-805 2071q17 20 39.5 19t38.5 -24l98 -282q6 -16 4.5 -28.5t-7.5 -22.5t-15 -17t-19 -11q70 -9 120.5 -31.5t83 -53.5t48 -70t15.5 -81t-24.5 -80t-68.5 -70q92 44 159.5 129.5t95.5 225.5l124 10q1 -141 -44 -258t-130.5 -200.5t-207 -130t-273.5 -46.5q-149 0 -269 45.5
t-205 129t-131.5 200.5t-48.5 260l126 -10q27 -138 92 -222.5t153 -128.5q-38 30 -60.5 67t-22.5 79q0 41 15.5 79.5t47.5 70t82.5 54t120.5 32.5q-12 5 -21 11t-14.5 15t-5.5 21.5t6 31.5z" />
    <glyph glyph-name="guillemotright" unicode="&#xbb;" horiz-adv-x="1292" 
d="M655 -617q-129 0 -316 205l65 68q84 -53 146.5 -85t111.5 -32q48 0 73 10t18 36q-4 11 -15 21t-31.5 21t-52.5 24t-77 30q-17 7 -28.5 12t-17.5 8q-104 49 -104 123q0 147 176 147q47 0 104 -28.5t116 -65.5l-49 -76q-17 6 -40.5 16t-37.5 16q-31 13 -53.5 21.5
t-39.5 8.5q-27 0 -42.5 -7.5t-13.5 -21.5l-1 2q5 -23 32 -34.5t75 -26.5q24 -7 53 -15.5t62 -22.5q25 -10 47 -27t38 -39t25.5 -48t9.5 -54q0 -50 -16 -85t-46.5 -57.5t-73.5 -33t-97 -10.5zM294 398q19 -39 45.5 -69.5t63 -52t85.5 -32.5t115 -11q98 0 164 17t100 35
q40 26 62.5 88t22.5 159q0 40 -7.5 80.5t-19.5 80t-27.5 78.5t-31.5 77v-1q-7 15 -10.5 26t-3.5 20q0 26 18.5 34t60.5 8q69 0 123 -35t91.5 -90t57.5 -121.5t20 -130.5v-558l-108 -1q1 73 1.5 138.5t1 115.5t0.5 82.5v40.5q0 81 -8.5 142.5t-25.5 112.5q-11 35 -27 61.5
t-37 40.5q23 -80 29.5 -142t6.5 -107q0 -88 -6.5 -149.5t-22.5 -111.5q-9 -26 -21 -50t-29 -45q-48 -57 -140 -92.5t-233 -35.5q-69 0 -132.5 20t-117.5 60t-95.5 100.5t-64.5 142.5z" />
    <glyph glyph-name="onequarter" unicode="&#xbc;" horiz-adv-x="1633" 
d="M458 257q-53 -49 -53 -118q0 -25 12 -25q25 0 40.5 41.5t20.5 113.5zM965 271q-54 18 -111.5 28.5t-124.5 16.5q26 -52 57.5 -89t73.5 -66q49 -35 95.5 -52t96.5 -17q45 0 70 11t31 30q-28 83 -188 138zM2215 -397q-27 51 -65 75t-90 24q-32 0 -79.5 -6.5t-111.5 -20.5v1
q-66 -15 -113.5 -22t-76.5 -7q-194 0 -237 119q-18 48 -18 151v32q14 213 19.5 329.5t3.5 139.5t-4 41t-5 29q-32 94 -135.5 145t-284.5 51q-269 0 -311 -138q110 -5 206 -26.5t174 -59.5q211 -106 211 -297q0 -82 -66 -127h1q-61 -43 -143 -43q-77 0 -150 23t-137 66
q-65 43 -112 102t-72 134q-8 0 -10 -0.5t-4 -1.5q-7 -2 -11.5 -2.5t-9.5 -1.5q-3 -73 -14.5 -131.5t-30.5 -100t-46.5 -63.5t-62.5 -22q-150 0 -150 220q0 98 212 271v38q2 85 -20 130t-64 51q-30 -5 -49 -29.5t-22 -63.5q-6 -21 -13.5 -69.5t-17.5 -119.5q-7 -2 -19 -4
t-18 -4q-3 -1 -9.5 -2.5t-14 -3t-14 -2.5t-9.5 -2v123q0 69 9 128.5t25 110.5q26 73 65 110t96 37q84 0 127.5 -93t47.5 -291q1 0 3.5 0.5t3.5 0.5q15 107 53 183t97 125q50 34 120.5 56t158.5 22q14 0 29.5 -0.5t29.5 -2.5q10 0 18 0.5t18 0.5q260 0 356 -135
q47 -63 69 -144.5t22 -184.5v-21.5t-1 -22.5q-10 -88 -15.5 -161t-5.5 -133q0 -194 51 -240q13 -7 30.5 -12t32.5 -5q42 0 98 33q59 8 102 12.5t75 4.5q150 0 234 -69q58 -51 132 -201z" />
    <glyph glyph-name="onehalf" unicode="&#xbd;" horiz-adv-x="1556" 
d="M870 1762q-1 0 -2 -1q1 0 1 0.5t1 0.5zM867 1755q0 -2 2 -4zM853 1760q7 0 12 1l-16 43l-15 -44h9h10zM850 1330q106 0 157.5 26.5t53.5 76.5v-1q0 21 -18 38t-48 29t-68.5 18t-79.5 6t-78 -6t-65.5 -18t-46.5 -29.5t-21 -39.5q0 -43 57 -71.5t157 -28.5zM811 2008
q16 22 38 21t38 -24l94 -270q10 -29 -1.5 -48t-30.5 -27q66 -10 114 -32t78.5 -52t45 -67t14.5 -77q0 -39 -21.5 -74t-59.5 -64q85 42 147.5 123t88.5 213l120 9q0 -136 -43.5 -248.5t-125 -193t-198 -125t-262.5 -44.5q-143 0 -258.5 44t-197.5 124t-126.5 192.5
t-46.5 250.5l122 -9q13 -65 35 -117t51 -93t65.5 -71.5t77.5 -51.5q-35 28 -54.5 62t-19.5 73t14.5 75.5t45 67t78.5 53t115 32.5q-22 9 -32 26t0 50zM525 629q0 -64 165 -68q7 -1 16.5 -1h19.5h23.5t27.5 1q17 0 34 0.5t34 0.5q9 0 21 0.5t24.5 0.5h24.5h20v-107
q-29 1 -64 1.5t-60 1.5t-49 1.5t-52 0.5q-208 4 -208 -105q0 -122 341 -122q187 0 273 66h-1q98 77 98 257q0 56 -10.5 148t-30.5 228q152 -7 231.5 -91t79.5 -230v-612h-107q0 63 0.5 131.5t1.5 128.5q1 54 1 121t1 124q1 60 -19.5 104t-59.5 71q5 -48 7 -96.5t2 -93.5
q0 -492 -463 -492q-460 0 -460 311q0 61 24.5 111t79.5 93q-104 75 -104 204q0 17 15.5 41.5t44.5 55.5q-154 -52 -154 -236q0 -25 10.5 -67.5t30.5 -98.5q-15 -12 -29 -24t-34 -32q-74 129 -74 256q0 325 457 325q62 0 150.5 -3.5t188.5 -10.5q2 -27 3.5 -60.5t3.5 -58.5
q1 -16 1.5 -41.5t1.5 -41.5h-69t-66 1h-24.5t-30 0.5t-30.5 0.5h-27q-231 1 -231 -94z" />
    <glyph glyph-name="threequarters" unicode="&#xbe;" 
 />
    <glyph glyph-name="questiondown" unicode="&#xbf;" horiz-adv-x="320" 
 />
    <glyph glyph-name="Agrave" unicode="&#xc0;" 
d="M-1264 -617q-18 -9 -24 -11.5t-7 -2.5t1 1t0 0q-7 -2 -17 -7.5t-21 -12.5q-26 59 -38 110t-12 99t10.5 94t30.5 88q26 51 60 79.5t76 28.5q32 0 61.5 -8t57.5 -26q11 -29 16 -59t5 -61q0 -53 -27 -156l1 1q-10 -51 -16.5 -91.5t-7.5 -64.5q8 -107 62 -166.5t157 -59.5
q193 0 235 163l-1 -3q4 24 4.5 64t2.5 80q1 24 2 50.5t2 50.5t2.5 45t3.5 35q19 94 87.5 148t185.5 54h16t16 -1q267 3 267 -369v-555h-112q1 62 1 129.5t1 125.5q1 57 1.5 115t0.5 119q2 119 -33 160q-21 26 -59 40t-95 14q-164 0 -180 -160q-2 -11 -2 -19.5v-16.5v-19
t1 -19q1 -12 1 -25.5v-26.5q-2 -62 -6 -113t-14 -97q-26 -100 -102.5 -151t-204.5 -46q-353 -9 -353 309v20q0 7 -0.5 15.5t-0.5 18.5q0 27 2 59.5t10 70.5v-1q8 60 12.5 105.5t4.5 78.5q0 34 -28 34q-45 0 -45 -93v-15t1 -15z" />
    <glyph glyph-name="Aacute" unicode="&#xc1;" horiz-adv-x="1910" 
d="M1413 262q63 35 92 109q-16 4 -31 7.5t-31 6.5q-8 -29 -16.5 -62.5t-13.5 -60.5zM1642 468q14 -8 29.5 -16t29.5 -17q-5 98 -18.5 152t-43.5 79q2 -29 2.5 -75t0.5 -121v-2zM1142 611q-176 291 -429 291q-196 0 -299 -126q-48 -58 -71.5 -138t-23.5 -183
q0 -113 65 -170.5t200 -57.5q11 0 30.5 0.5t43 2.5t47.5 6t44 12t32.5 19.5t12.5 29.5q0 28 -20.5 46t-52 28t-68.5 13.5t-70 3.5q-8 0 -19.5 -0.5l-23 -1t-21.5 -1.5t-16 -1l14 108q16 2 37.5 3.5t32.5 2.5t18 1t18 2q136 12 136 69q0 34 -21.5 59.5t-61.5 25.5
q-21 0 -42.5 -9t-42 -24t-40.5 -35t-39 -42l-68 48q16 42 36.5 83t48 74t64.5 53t87 20q42 0 80 -11t66.5 -33.5t45 -57t16.5 -82.5q0 -26 -2 -52t-9.5 -50t-23.5 -45t-44 -37q45 -19 75 -62t30 -111q0 -9 -0.5 -17t-0.5 -16l39 74q41 -33 74 -52.5t61.5 -30t54.5 -13.5
t55 -3h27t29 1q94 1 154 33h-76q-18 129 -18 309q55 -5 110 -17.5t109 -32.5q1 12 1 25v26v3q-8 122 -21.5 200t-30.5 120q-5 17 1.5 31t26.5 14q78 0 134 -28t92 -90.5t53 -162t18 -243.5v-48q55 -43 103.5 -91t88.5 -102l-129 -1q-16 13 -31 25t-31 24l2 -219h-103
q0 28 -0.5 61.5t-1 69t-0.5 71v67.5v18q-17 11 -35 20t-37 17q-12 -76 -40 -136t-77.5 -102t-124 -64t-177.5 -22q-64 0 -112 22.5t-84 57t-61.5 75.5t-44.5 78q-6 -65 -27.5 -109t-60 -71.5t-94 -39.5t-127.5 -12q-114 0 -189.5 41.5t-121 109t-64.5 153t-19 173.5
q0 235 127 382q134 152 367 152q322 0 534 -372z" />
    <glyph glyph-name="Acircumflex" unicode="&#xc2;" 
d="M-657 -559q-135 60 -221 89.5t-123 29.5q-77 0 -144 -43q-80 -48 -80 -119q0 -192 150 -298q38 -28 76 -55l76 -54q38 -26 79 -55t79 -55q116 -99 163 -286q109 202 189.5 382t134.5 344q-79 11 -173 41t-206 79zM-167 -681q-64 -182 -119.5 -322t-100.5 -233
q-32 -68 -72 -136t-83.5 -132.5t-89 -122.5t-88.5 -107q-14 6 -33.5 14.5t-30.5 13.5q-8 4 -27 13t-27 13q70 71 108.5 134t38.5 114q0 139 -154 248v-1q-22 14 -69.5 47.5t-122.5 84.5q-25 17 -53 36t-58 39q-183 151 -183 343q0 168 154 274q136 94 313 94q123 0 318 -114
q106 -63 181 -101t124 -54q10 44 20 102.5t18.5 126t13.5 143t7 153.5h107q-3 -104 -16 -239.5t-39 -298.5q78 20 173 73q4 -5 12 -17t10 -16q3 -5 7 -11.5t18 -24.5q-57 -54 -119.5 -87t-129.5 -43z" />
    <glyph glyph-name="Atilde" unicode="&#xc3;" 
d="M-539 -353q-200 93 -280 93q-50 0 -110 -34q-66 -37 -66 -86q0 -138 115 -239l-2 2q5 -3 9 -7t9 -7q57 -40 115.5 -80.5t115.5 -80.5q90 -81 132 -217q68 130 127.5 268t110.5 290q-58 11 -128 35.5t-149 62.5h1zM-134 -449q-97 -282 -211 -491.5t-247 -353.5
q-12 7 -28.5 16.5t-33.5 19.5t-33 19t-26 15q120 103 120 192q0 48 -35 96t-98 93q-95 64 -159.5 109.5t-84.5 65.5q-128 114 -128 254q0 147 129 230q114 72 264 72q50 0 114.5 -23.5t133.5 -63.5q78 -47 138 -79t97 -48q20 57 30 136t10 179h107q0 -88 -9.5 -168
t-29.5 -150q28 8 57 22.5t58 36.5q6 -7 15.5 -19t13.5 -17q3 -3 12 -14t13 -16q-44 -42 -88.5 -68.5t-94.5 -40.5z" />
    <glyph glyph-name="Adieresis" unicode="&#xc4;" 
d="M-421 -1641q56 49 97 99.5t71 109.5l-2 4q-9 -2 -19.5 -4.5t-21.5 -7.5q-4 -1 -5.5 -1t-4.5 -1q-36 -11 -55 -11q-50 0 -127.5 24.5t-179.5 70.5q-102 45 -180.5 69.5t-123.5 24.5q-114 0 -114 -91q0 -71 134 -103q14 -4 70.5 -11t159.5 -19q7 -1 31 -3q12 -2 27 -3
q17 -2 35 -4t39 -4q66 -11 109 -45t60 -94zM-619 -1752q109 82 109 110q0 25 -38.5 39t-112.5 22q-142 10 -227.5 19t-99.5 14h1q-196 51 -196 210q0 50 34 90t97 69q49 19 107.5 31t113.5 12q141 0 322 -74h-1q80 -32 150.5 -61t150.5 -61q12 42 20 88.5t8 96.5
q0 6 -0.5 13t-0.5 14h107q-5 -218 -121.5 -399t-345.5 -312z" />
    <glyph glyph-name="Aring" unicode="&#xc5;" 
d="M-226 -962q42 25 42 103v15.5t-1 15.5q-1 88 -6 206t-13 268v-2q-6 42 -5.5 64.5t11.5 27.5q4 1 30 3.5t74 5.5q7 -103 11 -188.5t5 -134.5t1 -101v-108q0 -327 -158 -313q-126 -15 -126 219q0 17 1 41.5t3 59.5q2 33 2.5 58t0.5 42q0 274 -155 274q-20 0 -39.5 -17.5
t-36.5 -53.5q-7 -10 -15 -29.5t-22 -51.5q-3 -7 -7.5 -18t-8.5 -19l-2 1q-53 -77 -142 -77q-93 0 -142 72l-70 127l1 -2q-45 57 -116 57h-13q-88 0 -123 -38q-8 -11 -37 -100q-26 -74 -56 -90q-24 -9 -45 -12.5t-41 -3.5q-164 0 -246 354q17 2 42.5 4t39.5 4q13 1 34.5 2.5
t33.5 2.5q34 -205 94 -205h11q20 11 35 69t29.5 98.5t26.5 58.5q31 42 79 67t108 25q120 0 184 -67q17 -17 37.5 -51t40.5 -80q16 -34 34 -54.5t35 -25.5h12q29 0 49.5 9.5t31.5 31.5q2 16 5.5 34.5t7.5 35.5q2 8 4.5 16t4.5 17q2 8 5 18.5t6 19.5q23 45 65 66t99 28h21
q82 0 136 -51t77 -159q8 -44 14 -144t9 -261q1 -51 3 -80.5t4 -40.5h-1q5 -42 24 -43h3z" />
    <glyph glyph-name="AE" unicode="&#xc6;" 
d="M-188 -1109q1 12 2 33t2 31q4 93 6.5 144.5t2.5 74.5q0 81 -6 154t-19 139q-20 93 -76 125q17 -85 25.5 -146.5t8.5 -99.5v-177q0 -60 -4 -106.5t-12 -73.5q-17 -49 -51 -76t-85 -27q-123 0 -123 233v30t1 37v15q0 5 0.5 9.5t0.5 9.5q0 4 0.5 8t0.5 8v15q1 21 1 38v31
q0 274 -155 274h-22.5t-18.5 -1q-11 -17 -34 -65t-58 -130q-53 -69 -139 -69t-138 65q-6 8 -25.5 41t-49.5 90q-24 26 -54.5 42t-64.5 16h-10q-72 0 -109 -26q-34 -26 -51 -101l1 1q-25 -114 -135 -114q-107 0 -185 91q-70 85 -70 199q0 9 0.5 20.5t4.5 39.5q23 2 48 4t43 4
q4 0 11.5 0.5t16 1.5t16 2t11.5 1q-1 -11 -2.5 -31.5t-1.5 -31.5q0 -142 99 -142h8q18 20 45 103q17 51 28 81t19 44q31 41 79.5 65.5t108.5 24.5q121 0 184 -67q16 -15 35 -47.5t42 -83.5v1q34 -70 68 -81h13q62 0 79 44v-2q2 9 5.5 22t7.5 27q5 21 11.5 48t13.5 54
q45 96 162 96q103 0 183 -84q41 -42 61 -106t22 -151q1 -42 -2 -113t-8 -172q-1 -11 -1 -21.5v-20.5q0 -125 43 -125q24 26 24 111v168q0 119 -27 243.5t-81 259.5h51q102 0 172.5 -39t109.5 -110q26 -53 40 -135t14 -193v-452z" />
    <glyph glyph-name="Ccedilla" unicode="&#xc7;" 
d="M-1122 -812q-64 -140 -169 -211.5t-259 -77.5v193q146 23 239 93.5t134 187.5q19 66 33 200.5t21 330.5q4 -1 11 -2t14.5 -2.5t14 -2.5t9.5 -1q5 -1 19 -2.5t20 -2.5q0 -17 0.5 -43.5t2.5 -61.5q0 -4 0.5 -8.5t0.5 -9.5v-17q1 -19 1 -38.5v-30.5q0 -289 -92 -494z
M-174 -1100q0 29 1 69t3 96q2 55 3 95t1 67q0 81 -10.5 142.5t-30.5 103.5q-23 46 -65.5 78.5t-109.5 50.5q89 -98 89 -275v-21.5t-1 -22.5q-2 -83 -25.5 -154t-69.5 -123q-97 -110 -270 -106q-357 -5 -357 590q0 35 1.5 86t3.5 121q2 48 2.5 87.5t1.5 71.5v47q9 -2 26 -4
t23 -3l38 -5l-2 -162v-139q0 -466 263 -466q259 0 259 214q0 80 -33.5 145t-94.5 113q-45 32 -118 58t-161 41q145 143 295 143q216 0 331 -147q106 -135 106 -355v-436h-99z" />
    <glyph glyph-name="Egrave" unicode="&#xc8;" 
d="M-68 -628q0 -462 -340 -453q-272 0 -313 198q-5 112 -11.5 196.5t-11.5 145.5l1 -3q-39 164 -292 164q-78 0 -132.5 -22.5t-86.5 -62.5q-23 -35 -35.5 -94t-12.5 -140v-124q0 -36 29 -70q14 -16 31 -25t34 -9q110 0 110 149q0 27 -3.5 66.5t-13.5 96.5q28 5 34.5 6t8.5 2
q7 2 15.5 4t27.5 4q16 -80 24 -132.5t8 -77.5q0 -108 -43 -184q-54 -94 -152 -94q-60 0 -106.5 40.5t-75.5 114.5q-20 54 -31.5 120t-11.5 134q0 531 434 531q93 0 161.5 -24t109.5 -69q76 -88 76 -280v-66q0 -72 8 -120t23 -74q23 -38 70 -57t120 -23q240 -17 240 502
q0 44 -2 101.5t-6 109.5h108q4 -140 5.5 -264.5t1.5 -216.5z" />
    <glyph glyph-name="Eacute" unicode="&#xc9;" 
d="M-232 -1426q-194 -288 -705 -288q-319 0 -511 292q-166 254 -166 582q0 26 21 165t63 394h62q6 -2 11 -5q5 -2 9 -4.5t7 -3.5q2 -2 6 -3.5t13 -4.5q-16 -80 -29 -159t-21 -145t-12 -114.5t-4 -80.5q0 -667 655 -667q100 0 184 19t153 58q138 74 205 203q32 62 54.5 132
t32.5 136q9 78 15 296t7 613h107q0 -19 0.5 -41t0.5 -44.5v-44.5v-40q0 -1012 -158 -1245z" />
    <glyph glyph-name="Ecircumflex" unicode="&#xca;" 
d="M-306 -1526q26 -50 43 -102t22 -100h-65l-101 126q-233 -122 -519 -122q-163 0 -295 55.5t-230 158.5q-94 105 -141.5 240t-47.5 302q0 322 281 577q22 7 45 13.5t44 14.5q20 6 43 13.5t42 12.5l17 -29q-334 -304 -334 -555q0 -242 159 -401q160 -157 403 -157
q124 0 219 11.5t173 37.5q-79 109 -167.5 189.5t-194.5 138.5q-10 -8 -20.5 -16t-21.5 -15q-4 -14 -8 -27.5t-8 -27.5q-2 -9 -8 -26t-8 -25q-9 3 -21.5 7.5t-25.5 9.5t-24.5 10t-18.5 8q20 88 41.5 179t43.5 180q7 2 16.5 5t14.5 5q1 0 5 0.5t5 0.5q274 -190 536 -534
q134 98 203 251.5t69 361.5q0 304 -229 692q6 1 15.5 2t19 2.5t17.5 2.5t11 2q5 0 17 1.5t19 2.5q128 -170 192 -355.5t64 -396.5q0 -423 -291 -714z" />
    <glyph glyph-name="Edieresis" unicode="&#xcb;" horiz-adv-x="285" 
d="M-238 -1582q-115 -60 -274.5 -90t-366.5 -30h-45q-608 0 -835 347q-78 118 -116 301.5t-38 435.5q0 66 1 122t3 103q2 46 7 100t10 98h110q-5 -40 -8.5 -78.5t-5.5 -73.5q-2 -38 -3 -89t-1 -119q0 -219 52.5 -382t159.5 -279q218 -237 650 -237h14q379 0 581 68
q143 48 238 146t141 229q14 50 25.5 119t19.5 150q8 85 11.5 173t3.5 183q0 38 -0.5 139t-1.5 262.5t-2.5 381.5t-3.5 497h106l9 -1184q0 -113 -4 -219t-12 -206q-8 -98 -21 -184.5t-24 -171.5l-55 -173l-103 -153l-102 -110z" />
    <glyph glyph-name="Igrave" unicode="&#xcc;" horiz-adv-x="219" 
d="M257 -1604l-329 213q-118 -158 -342 -234.5t-560 -76.5q-217 0 -392 82t-304 233q-117 149 -177.5 333.5t-60.5 409.5q0 40 2.5 80t6.5 73q4 34 11.5 81t19.5 106q22 -8 32.5 -11.5t15 -4.5t5.5 -0.5t4 -0.5v1q3 -1 -3.5 2.5t-9 5t7 -2t44.5 -17.5q-7 -48 -14.5 -113.5
t-7.5 -133.5q-7 -495 259 -703q233 -185 744 -185q154 0 307 33q184 39 275 120q-87 57 -172 85.5t-168 28.5q-32 -18 -47 -114h-80q1 124 11.5 217t28.5 153q145 -35 277.5 -100t258.5 -158q58 99 93.5 240t46.5 314q2 30 4 136.5t2 293.5q2 187 2.5 468t0.5 643h110
q-1 -174 -2 -361.5t-3 -373.5v-111q-1 -187 -2 -367t-2 -355q-14 -206 -50 -359.5t-95 -253.5q25 -20 53 -42t54 -45v1q24 -19 50.5 -41t53 -43.5t52.5 -42.5t48 -39z" />
    <glyph glyph-name="Iacute" unicode="&#xcd;" horiz-adv-x="1035" 
d="M190 -1660q-233 -43 -804 -43q-1425 0 -1425 948q0 70 5.5 146.5t16.5 159.5q23 165 73 338q15 -2 34.5 -5.5t30.5 -5.5h-1q2 0 8 -1t12.5 -1.5t12 -1.5t8.5 -1q-23 -97 -40 -184t-28 -165q-11 -74 -15.5 -132.5t-4.5 -101.5q0 -482 468 -644h-1q262 -90 923 -90
q580 0 788 47q215 48 347.5 164t184.5 293l-1 -2q14 62 26 273q4 54 7 115.5t6 133.5q3 71 6 140.5t5 138.5q3 133 6 267.5t5 265.5t3 256t1 241q10 4 16.5 6t11.5 2.5t10 0.5h11q4 0 11.5 1t15.5 1.5t16 1.5t12 1v-1484q0 -224 -33.5 -402t-113.5 -308
q-95 -143 -248.5 -237t-365.5 -132z" />
    <glyph glyph-name="Icircumflex" unicode="&#xce;" 
d="M-264 -1183q-68 -65 -138.5 -105.5t-145.5 -58.5q-89 -22 -365 -22q-139 0 -254 51.5t-206 146.5q-85 97 -130 217t-45 258q0 9 4.5 62t15.5 150q4 34 9 81.5t10 92.5h46q19 0 58 -24l-27 -318v-7v-7.5t-2 -9.5l1 2q-1 -5 -1.5 -9t-0.5 -6q0 -97 52.5 -180.5
t143.5 -146.5q82 -49 187.5 -77.5t224.5 -28.5q286 0 432 99q169 112 202 385q9 65 12.5 244.5t3.5 388.5h102v-31.5t1 -26.5q0 -2 0.5 -5.5t1.5 -8.5q2 -26 2.5 -47t0.5 -33v-385q0 -456 -195 -642v1z" />
    <glyph glyph-name="Idieresis" unicode="&#xcf;" horiz-adv-x="1450" 
d="M782 -617q-130 0 -315 203l54 68q85 -53 152 -84t116 -31q50 0 79.5 14.5t21.5 43.5q-4 16 -29.5 26.5t-78.5 29.5q-17 5 -36.5 12.5t-42.5 15.5q-35 14 -45 20q-104 49 -104 123q0 147 176 147q47 0 104 -28.5t115 -65.5l-43 -65q-66 25 -109 38t-67 13q-27 0 -43 -7.5
t-14 -21.5l-1 2q6 -23 32.5 -34.5t74.5 -26.5q24 -7 53 -15.5t63 -22.5q51 -20 78 -60.5t27 -96.5q0 -197 -218 -197zM1284 -1q0 32 -0.5 69t-0.5 63q0 81 1 135.5t2 83.5q0 7 0.5 15t0.5 11q0 52 -6 105.5t-18 100t-31 81.5t-46 52q8 -42 14.5 -84t11.5 -79.5t7.5 -70
t2.5 -54.5q0 -70 -5.5 -129t-22.5 -106.5t-47.5 -83.5t-80.5 -60t-122 -36t-171 -12q-42 0 -88.5 9t-90.5 26t-83 42.5t-67 57.5q-26 31 -42.5 65t-25.5 70.5t-12.5 75.5t-3.5 81v15q0 23 0.5 53t7.5 66q5 24 6.5 43.5t1.5 34.5q0 8 -0.5 15.5t-0.5 13.5v19q0 12 -10 21.5
t-31 6.5q-18 -14 -26 -37.5t-9 -50.5q3 -20 9.5 -67.5t14.5 -104.5l-94 -9q-16 102 -23.5 154t-7.5 57q0 59 10 107.5t31 83t53 53.5t75 19q8 0 17.5 -1t22.5 -4q42 -9 63 -41t21 -107v-6q0 -26 -2 -63.5t-13 -89.5q-11 -47 -13 -82.5t-2 -61.5v-6q0 -107 74 -159t238 -52
q99 0 164.5 10.5t98.5 27.5q41 26 63.5 82.5t22.5 144.5q0 39 -7.5 79.5t-20 80.5t-28 79.5t-31.5 76.5q-6 14 -10 27.5t-4 21.5q0 26 18 35.5t59 9.5q26 0 59.5 -9t66 -27.5t60.5 -46t44 -64.5q23 -57 36 -115.5t13 -121.5l2 -538z" />
    <glyph glyph-name="Udieresis" unicode="&#xdc;" horiz-adv-x="257" 
d="M528 707q-60 -6 -111 -22t-93 -42q-60 -38 -84 -93.5t-24 -128.5q0 -53 -0.5 -112.5t-0.5 -126.5q0 -86 -0.5 -181.5t-0.5 -202.5q0 -125 1 -261t3 -285v-59q0 -197 -25.5 -358.5t-91.5 -282.5q-38 -65 -102.5 -118t-137.5 -90t-166 -57t-208 -18q-160 -2 -292.5 34.5
t-228 113t-148 193t-52.5 273.5q0 108 73 236q74 129 209 205l512 223h-1q63 31 109.5 79t79.5 106l-1 -1q32 60 50 121.5t21 136.5h107q-5 -94 -26 -169.5t-59 -147.5q-39 -73 -94.5 -131t-130.5 -93l-320 -125l1 1q-406 -190 -406 -460q0 -86 31.5 -150.5t102 -107.5
t184 -64.5t278.5 -21.5q130 0 231 17.5t183.5 66.5t124 137.5t51.5 230.5q14 185 20 372t7 369v106q0 125 -1 249t-3 251q-1 28 -1 63t-1 63q-5 493 482 493h37q246 0 398 -155q73 -75 114 -173.5t41 -221.5q0 -114 -38.5 -192t-119.5 -134q-41 -28 -95 -48t-129 -19
q-80 3 -126.5 34.5t-46.5 85.5q0 88 34 123.5t96 35.5q2 0 13 -2t26 -8t31.5 -16.5t29.5 -28.5q5 -8 9 -15.5t6 -12.5q3 -6 6 -10.5t9 -7.5t15.5 -4t26.5 -1q71 1 112 62q18 27 27.5 59.5t9.5 73.5q0 344 -531 344h-6z" />
    <glyph glyph-name="Thorn" unicode="&#xde;" 
d="M-72 -662q-1 -29 -6 -69.5t-15.5 -85t-29 -89.5t-46.5 -84q-24 -30 -48.5 -51t-54.5 -34t-67 -19t-86 -6q-87 0 -147 14.5t-99 41.5t-61 65.5t-32 86.5t-12 104.5t-2 119.5v31.5t1 31.5t1.5 30t0.5 29q0 30 -4.5 56t-19.5 45.5t-42 30.5t-72 11q-95 0 -133.5 -67
t-40.5 -206q0 -14 1.5 -33.5t3.5 -42.5q0 -4 0.5 -8t0.5 -7q2 -25 4 -53.5t2 -56.5q0 -43 -6 -83.5t-22 -71.5t-43.5 -49.5t-69.5 -18.5t-70 19.5t-44.5 53t-23.5 77.5t-7 94q0 57 6 114t11 108l3 23q5 35 8 63t3 48q0 63 -9 78l-2 11l1 -7q-4 9 -9.5 13t-22.5 4
q-23 0 -31 -21t-8 -50q0 -37 7.5 -74.5t13.5 -60.5q2 -6 2 -7v-2q1 -3 2 -8t1 -19l-87 -27q-48 174 -48 235q0 252 178 252q60 0 92 -53.5t32 -162.5q0 -35 -3.5 -89.5t-11.5 -126.5q-8 -73 -12.5 -130t-4.5 -92v-26v-25.5t2.5 -25t7.5 -18.5t15 -6q12 0 19 12t11.5 32
t6 44.5t1.5 50.5q0 32 -1.5 60.5t-3.5 48.5q0 2 -0.5 4t-0.5 4v99q0 47 2.5 95t12 92.5t27 83.5t48 67.5t75 45t107.5 16.5q100 0 154.5 -45.5t78.5 -131.5v1q11 -34 14.5 -110.5t3.5 -198.5q0 -68 19 -108t53 -60t81 -25.5t103 -5.5q37 0 61 2.5t40.5 7t28.5 10.5t26 14
q1 0 4 3q2 1 4 2.5t4 2.5l4 2q35 22 49.5 58.5t14.5 103.5v20q0 13 -0.5 28t-0.5 32q-1 11 -1 31v47q0 17 -0.5 35.5t-0.5 40.5q0 26 -0.5 52.5t-0.5 48.5v36v16h107z" />
    <glyph glyph-name="germandbls" unicode="&#xdf;" 
d="M-1397 -874q-1 13 -1 26.5v25.5q0 169 52.5 291t143.5 200t213 114.5t261 34.5q103 -2 205 -24.5t184.5 -71.5t135 -126.5t57.5 -188.5q-1 -66 -20.5 -116t-50.5 -87t-70.5 -61.5t-79 -39t-76.5 -20.5t-64 -5l7 107q17 0 42 6t52.5 17.5t55 29t49.5 39.5t35.5 48.5
t13.5 57.5q0 36 -24.5 65.5t-64 52.5t-90 39t-102.5 26t-101 13.5t-86 1.5q-41 -2 -97.5 -9t-117 -22.5t-120.5 -42.5t-107 -69.5t-76 -101.5t-29 -140q0 -16 1 -32.5t4 -35.5q9 -64 43 -116.5t88 -94.5t125 -73t153.5 -51.5t173.5 -31t185 -10.5q149 0 301.5 27.5
t290.5 81.5l15 -108q-77 -53 -160.5 -91t-169.5 -63t-173 -37t-172 -12q-107 0 -209 18t-193.5 52t-168.5 84t-134 114t-91 142t-39 167z" />
    <glyph glyph-name="agrave" unicode="&#xe0;" 
d="M-170 -893q-253 -217 -485 -217q-210 0 -339 106q-140 116 -140 320q0 116 44 209.5t126 164.5q79 61 180 95t219 34q353 0 353 -247q0 -209 -274 -282q-2 6 -5 16t-6 21t-6.5 20t-4.5 14q198 81 198 205q0 44 -89 65q-60 17 -123 17q-81 0 -169.5 -22t-167.5 -60
q-90 -45 -138 -105t-48 -131q0 -224 343 -224q290 0 627 206v-422h-95v217z" />
    <glyph glyph-name="aacute" unicode="&#xe1;" 
d="M-175 -1110v26t0.5 31.5t1 32.5t0.5 29v-1q1 29 1.5 60t0.5 62q0 54 -2.5 106.5t-11 99.5t-23 85.5t-38.5 62.5q-42 41 -107 62.5t-162 21.5q-188 0 -279 -78t-93 -239q-1 -66 31 -137t106 -151h-1q6 -6 7.5 -17t-1.5 -22.5t-12.5 -20t-26.5 -8.5h-79
q-126 -1 -195.5 89.5t-69.5 281.5q0 45 6 132q2 42 3.5 75.5t1.5 55.5q0 59 -14 59q-40 0 -55 -48v-189l-83 -6q-23 133 -23 177q0 139 42.5 215t140.5 76q24 0 45.5 -13.5t37 -34t25 -44t9.5 -44.5q0 -36 -4.5 -89t-14.5 -125q-11 -70 -15.5 -121.5t-4.5 -86.5
q0 -58 13.5 -100.5t52.5 -80.5q-20 67 -23 125.5t-3 116.5q0 215 109 349q60 75 141 111.5t184 36.5q482 0 482 -450v-473h-100z" />
    <glyph glyph-name="acircumflex" unicode="&#xe2;" 
d="M-340 -1095q-51 0 -85 14.5t-56.5 37.5t-36.5 51.5t-26 56.5q-14 36 -32 62.5t-49 26.5h-4q-25 -1 -41 -9t-26.5 -21.5t-17.5 -30.5t-14 -35v1q-9 -28 -21.5 -56.5t-35.5 -51t-61.5 -36.5t-99.5 -14q-27 0 -57 10t-58.5 29.5t-53 48t-42.5 66.5q-26 58 -46.5 124.5
t-20.5 128.5q0 51 10 121t38 162q-33 -25 -50.5 -67.5t-25.5 -93t-9 -104.5t-1 -102v-27q0 -292 -151 -292q-136 0 -136 241l27 372v43q1 1 1 0q0 20 -8.5 35t-34.5 15q-18 0 -28 -5.5t-15 -15.5t-6.5 -22.5t-1.5 -27.5v-40q0 -22 7 -54t19 -75h-112q-20 100 -20 212
q0 234 181 234q127 0 127 -232l-34 -383v-16v-36.5t3 -35.5t10 -31t21 -22q16 3 25 13t13 26t5 38t1 49v26t1 28q5 142 11 233.5t15 126.5l-1 -1q14 67 39.5 108.5t60.5 63.5t78.5 29.5t93.5 7.5h45q15 -2 25.5 -11t10.5 -30q0 -14 -6 -27v1q-49 -106 -75.5 -190t-26.5 -149
q0 -128 43.5 -190t122.5 -62q15 0 29 7.5t27 20t26 28.5t27 34q18 24 38 48.5t43 43.5t50.5 31t62.5 12q32 0 54.5 -11.5t39 -29.5t29 -41.5t24.5 -47.5q9 -18 19 -36.5t23 -34t30 -25.5t38 -11h9q85 0 126.5 49.5t41.5 145.5q0 282 -136 415l80 56q57 -40 92.5 -100.5
t56 -128.5t28 -137.5t7.5 -127.5q0 -406 -273 -406z" />
    <glyph glyph-name="atilde" unicode="&#xe3;" 
d="M-77 -655q-2 -111 -26 -194t-73 -138t-124 -83t-178 -30q-26 7 -32 23.5t11 36.5q88 97 128 188t40 182q0 236 -219 236q-41 0 -71 -13t-56.5 -36.5t-51 -57t-53.5 -75.5q-15 25 -37.5 56.5t-51 58.5t-62.5 45.5t-71 18.5q-63 -1 -103 -16t-62.5 -46t-30.5 -78.5
t-8 -112.5q0 -97 36 -185.5t101 -163.5q7 -6 8 -16.5t-2 -20.5t-10.5 -17t-17.5 -7h-98q-62 0 -113 31t-87.5 89.5t-56.5 142.5t-20 189v16q0 4 0.5 8t0.5 8q1 15 3 33t5 37q5 29 8.5 57t3.5 52q0 35 -6 40q-16 -1 -27 -11.5t-18.5 -26.5t-11 -36t-3.5 -41q0 -3 0.5 -13
t1.5 -25t2 -33.5t2 -37.5l-93 -27q-6 43 -12 96.5t-6 104.5q0 49 7.5 95t27.5 82t54.5 58t88.5 22q56 0 86.5 -47.5t30.5 -133.5q0 -30 -4 -73t-12 -101q-9 -57 -12 -98.5t-3 -67.5q0 -79 22.5 -133.5t60.5 -84.5q-45 126 -45 252q0 88 17 168t47 146q45 88 104 133t139 43
q51 -2 88.5 -16t64.5 -38t46 -56t33 -69q18 39 43.5 71t56.5 56t67.5 37.5t78.5 14.5q75 1 135.5 -34.5t104.5 -107.5v1q39 -60 56.5 -132.5t17.5 -159.5q0 -67 -14.5 -137.5t-46.5 -155.5q22 24 39.5 59t29 74t18 78t7.5 71q0 19 -0.5 40.5t-0.5 41.5v37.5v28.5l43 16
l-1 -1q22 10 40 6.5t20 -11.5v1q5 -27 5.5 -61.5t0.5 -77.5v-44z" />
    <glyph glyph-name="adieresis" unicode="&#xe4;" 
d="M-655 -859q-42 0 -85 -18q26 -44 62.5 -73t78.5 -46q33 5 51.5 28t18.5 64q0 24 -31.5 34.5t-94.5 10.5zM-187 -1110v367q0 168 -72 251t-224 83q-309 0 -309 -312q0 -4 4 -19q32 7 61.5 9t56.5 2q50 0 93 -12.5t79 -38.5q41 -29 62.5 -67.5t21.5 -88.5q0 -174 -200 -174
q-47 0 -101.5 44t-113.5 133q-14 -11 -28.5 -22t-28.5 -22l1 1q-28 -23 -61 -46t-70.5 -42t-80.5 -32t-91 -14q-83 12 -151 55.5t-115 115.5q-42 66 -67.5 147.5t-25.5 172.5q0 48 11.5 99t33 98.5t53 90t71.5 74.5t88.5 50.5t103.5 18.5q83 0 148.5 -19t118.5 -57l-35 -78
q-117 48 -178 48q-154 0 -227 -87t-73 -269q0 -42 19 -78t59 -65l-1 1q86 -55 169 -55q9 0 84 18t217 56q-2 26 -3.5 58.5t-1.5 64.5q0 462 407 462q203 0 305.5 -120t102.5 -362v-440h-112z" />
    <glyph glyph-name="aring" unicode="&#xe5;" 
d="M-176 -1081v44q0 30 -0.5 61t-1.5 61v-1q-1 27 -1 54.5v54.5q0 202 -61 300t-191 98q-49 0 -83.5 -11.5t-61.5 -32.5t-51.5 -51t-53.5 -68h-48q-44 87 -91.5 125t-102.5 38q-287 0 -287 -277q0 -148 159 -366q14 -20 7 -36t-33 -17q-24 -2 -39 -3q-9 -1 -15.5 -1.5
t-8.5 -0.5q-322 0 -322 430q0 20 3 50.5t8 72.5q6 40 8.5 69t2.5 49q0 15 -3 27t-14 16q-58 -5 -58 -133q0 -17 1 -41t4 -58h-82q-17 42 -25 86t-8 92q0 130 42 197t135 67q63 0 96.5 -57t33.5 -166q0 -27 -4 -64.5t-12 -87.5t-12 -86t-4 -60q0 -163 95 -241
q-29 75 -43 144.5t-14 133.5q0 93 18.5 180.5t62 156t115.5 109t180 38.5q52 -1 90 -20.5t65 -50t45.5 -69t33.5 -77.5q25 46 51.5 86.5t61 70t80 46.5t107.5 17q100 0 169 -43.5t107 -128.5q25 -58 38 -141t13 -192v-421h-101v28z" />
    <glyph glyph-name="egrave" unicode="&#xe8;" horiz-adv-x="1263" 
d="M821 1123q-10 0 -21 -5q-16 -26 -16 -32q0 -29 65 -50q15 -7 34 -9t42 -2h17q-30 45 -61 71.5t-60 26.5zM316 382q26 -38 67.5 -65t99.5 -41q45 -11 91.5 -16.5t94.5 -5.5q30 0 62 3q339 10 339 327q0 60 -10.5 117.5t-32.5 122.5h-11q-3 0 -5.5 -0.5t-5.5 -0.5
q-11 -1 -24 -1h-23q-118 0 -203 69q-44 38 -67 85.5t-23 104.5q0 150 191 150q72 0 185 -171q54 34 90 80.5t59 108.5q2 1 4.5 2t4.5 3q3 2 6 3q1 1 7 4t29 14q0 -16 8 -26.5t14 -16.5q2 -2 4 -4.5t4 -4.5q5 -31 6 -45t1 -16q0 -169 -150 -281q-1 -2 -2 -5t-2 -5
q62 -151 62 -338q0 -268 -109 -398q-58 -64 -155 -99.5t-228 -35.5q-187 -3 -324 94q-68 50 -112 115.5t-64 150.5z" />
    <glyph glyph-name="eacute" unicode="&#xe9;" 
d="M-182 -1100q0 75 -4.5 143t-24.5 122.5t-62.5 92t-118.5 49.5q19 -18 33 -38.5t23 -41t13.5 -40t4.5 -34.5q0 -61 -38.5 -108t-110.5 -79t-176.5 -48.5t-236.5 -16.5q-56 0 -114 6.5t-113.5 20t-106.5 34t-93 48.5q-47 32 -77 68.5t-47.5 77t-24.5 85t-7 92.5
q0 112 73.5 213t208.5 183q42 24 97 44t116 35.5t125 27.5t125.5 19.5t117.5 11.5t100 4q5 -12 9 -22t7.5 -20t6.5 -22l7 -28q-168 -29 -305.5 -70.5t-250.5 -96.5q-300 -147 -300 -338q0 -62 39 -105t106.5 -70t158 -39.5t194.5 -12.5h31t31 1q25 1 57 3t65 7t64.5 12.5
t56.5 19.5t40 29t15 41q0 124 -193 157q-7 2 -12.5 2h-11.5q-20 0 -50.5 -3.5t-65.5 -8.5q-39 -6 -87.5 -12t-102.5 -11q-8 0 -15.5 7.5t-13.5 18.5q-3 5 -7 11t-11.5 12.5t-20.5 13.5t-33 14q277 139 563 139q107 0 182 -16.5t125.5 -49t80 -82t44 -116.5t18.5 -151t4 -185
h-107z" />
    <glyph glyph-name="ecircumflex" unicode="&#xea;" horiz-adv-x="394" 
d="M142 713q0 -4 1 -6q0 2 -0.5 3t-0.5 3zM119 693q3 -3 9 -5q-2 2 -4.5 2.5t-4.5 2.5zM207 280q0 91 -2 157.5t-8.5 113.5t-18.5 76.5t-31 46.5q2 -13 2.5 -28t1.5 -31t1 -36.5v-38.5q0 -42 3 -268v-1259q-1 -206 -41 -358t-110 -245q-36 -43 -89 -76t-117.5 -56.5
t-140 -35.5t-156.5 -13q-20 -2 -42 -2.5t-42 -0.5q-230 0 -422 105q-231 129 -242 514q4 166 76 280q35 54 86.5 103.5t117.5 91.5q48 27 100 52t109 48q58 23 140.5 61.5t192.5 92.5q112 52 181 122q63 64 61 293h108q-8 -290 -96 -375q-86 -85 -171 -124
q-87 -42 -178.5 -86t-179.5 -86q-206 -87 -309 -194t-106 -230q5 -96 50 -170.5t120.5 -126t186 -78t256.5 -25.5q393 0 470 157q83 160 83 482v1372q-6 102 -12 168.5t-11 86.5q-5 23 -10.5 41.5t-10.5 34.5q-4 14 -8.5 27t-10.5 27q-5 16 2.5 31t24.5 15q79 -1 135.5 -27
t93 -86.5t53.5 -159.5t16 -245v-293q0 -142 0.5 -238t0.5 -190v-199t1 -188q1 -130 1 -260v-264q0 -130 0.5 -270.5t0.5 -274.5h-106q0 134 -0.5 274.5t-0.5 269.5v264.5t-1 259.5q0 86 -0.5 169.5t-0.5 167.5v169t-1 167v298z" />
    <glyph glyph-name="edieresis" unicode="&#xeb;" horiz-adv-x="544" 
d="M148 713q0 -4 1 -6q0 2 -0.5 3t-0.5 3zM125 693q3 -3 9 -5q-2 2 -4.5 2.5t-4.5 2.5zM323 -418q33 12 58.5 19t41.5 7q96 0 151 -89q23 -37 35 -81.5t12 -94.5q0 -44 -15 -108.5t-43.5 -145.5t-68.5 -176t-91 -200q6 -1 13 -2l14 -2l38 9.5t38 8.5q160 167 160 630
q0 164 -92 475q4 1 11 3t14.5 4t14 4t10.5 3q6 1 14 4t17 6t17.5 5.5t13.5 4.5q89 -351 89 -527q0 -873 -415 -873h-23q-17 1 -38.5 2.5t-43 2.5t-42.5 2.5t-37 2.5q7 16 18 40t25.5 53.5t30.5 63t33 68.5t37 76t43 89q22 48 41 96t32.5 93.5t21 86t7.5 73.5q0 42 -8 80.5
t-22 68.5q-14 4 -24.5 8.5t-18.5 8.5q-69 -8 -69 -92q0 -22 8.5 -65.5t28.5 -112.5q-22 -2 -50.5 -5.5t-47.5 -5.5q-56 106 -56 224q0 18 2 44.5t5 62.5q2 23 3 45t1 43v21.5t-1 21.5q-1 36 -1 88.5v121.5q0 46 -0.5 98t-0.5 112v298q0 91 -2 157.5t-9 113.5t-19 76.5
t-31 46.5q2 -13 2.5 -28t1.5 -31t1 -36.5v-38.5q0 -42 3 -268v-1259q-1 -206 -40.5 -358t-110.5 -245q-36 -43 -89 -76t-117.5 -56.5t-140 -35.5t-156.5 -13q-20 -2 -42 -2.5t-41 -0.5q-232 0 -422 105q-232 128 -248 514q11 337 280 504q61 33 116 59.5t104 46.5
q42 17 104 43t147 61q16 7 33.5 14t34.5 14q51 22 94.5 49t78.5 61q68 63 72 292h107q-5 -309 -95 -375q-42 -31 -84.5 -57t-86.5 -46l-360 -157q-205 -90 -308 -206t-105 -254q5 -96 52.5 -170.5t123 -126t186 -78t256.5 -25.5q393 0 470 157q83 160 83 511v1343
q-6 102 -11.5 168.5t-10.5 86.5q-11 44 -22 76q-4 14 -8 27t-10 27q-5 16 2 31t24 15q77 -1 133 -30.5t92.5 -92t54.5 -160t19 -235.5z" />
    <glyph glyph-name="igrave" unicode="&#xec;" horiz-adv-x="547" 
d="M125 692q7 -7 10 -5q-1 1 -1.5 1t-1.5 1q0 2 -7 3zM213 327q-1 9 -1 20v20v23t-1 22v18q0 5 -0.5 9t-0.5 9v6.5t-1 8.5v11q-1 2 -1 5v5v11l-1 8q-1 2 -1 5.5v5.5t-0.5 4t-0.5 4l-1 10v6v5q-1 0 -1 1q-1 7 -1.5 14t-1.5 12v-1q-1 4 -1.5 8.5t-1.5 7.5l-1 6l-2 9q-2 2 -2 6
q-1 1 -1 5q-1 2 -2 4.5t-2 5.5q0 2 -0.5 3t-0.5 2q-2 5 -4 9.5t-4 8.5q-2 2 -3 5t-3 5q0 1 -2 3t-3.5 4.5t-3.5 4.5q-1 0 -2 1t-1.5 1t-2.5 2q-1 2 -4 6q0 -3 1 -5q1 -4 1 -8v-9q0 -4 0.5 -7.5t0.5 -8.5v-5q1 -3 1 -7v-7v-17q1 -13 1 -30v-32v-37v-38t1 -50v-36.5t1 -42.5
v-31t1 -33v-196l-2 -1063q0 -208 -38.5 -359.5t-110.5 -243.5q-36 -43 -89 -76t-117.5 -56.5t-140 -35.5t-156.5 -13q-20 -2 -42 -2.5t-42 -0.5q-230 0 -422 105q-231 128 -228 514q-15 166 55 292.5t203 226.5q80 35 142 62.5t104 47.5t112.5 49t167.5 67q68 23 117 54
t81 74q63 86 63 271h107q0 -283 -92 -369q-88 -82 -176 -113l1 1q-48 -20 -95.5 -40.5t-95.5 -40.5l-170 -71q-198 -90 -303.5 -207.5t-107.5 -254.5q20 -96 60 -170.5t115.5 -126t186 -78t256.5 -25.5q391 0 470 157q83 163 83 511l-2 1340q-1 2 -1 6v8q-1 18 -1.5 34.5
t-1.5 32.5q-2 26 -3.5 49t-3.5 42q-1 8 -1.5 16t-1.5 14v-1q-1 3 -1 9v9q-1 3 -1.5 7.5t-1.5 6.5q-2 8 -2.5 15t-1.5 12l-1 7q-3 3 -3 7l-2 8l-2 8q-1 10 -5 17q0 3 -3 11l1 -1l-5 17l-4.5 13.5t-4.5 14.5q0 1 -0.5 1.5t-0.5 1.5q-2 4 -3 7q-2 1 -2 2.5t-1 2.5q-3 3 -3 5v4
q-1 2 -1 5q-1 4 -2 9t1 9v3t3 5q3 8 10 11.5t15 5.5h12q4 -1 10 -1l18 -1q5 -1 11 -1.5t21 -4.5l-2 1q2 0 6.5 -0.5t6.5 -0.5q0 -1 -3 -1q2 -1 5 -1h4q0 -1 -2 -1q2 -1 7 -1q4 -2 9 -3.5t10 -2.5q1 -3 5 -3q5 -1 10 -3.5l9 -4.5l-1 1l8 -4q2 -1 5 -3.5t4 -3.5t2 -1l1 -1
q4 -2 7.5 -5t7.5 -5l-1 1q2 -1 4 -2.5t4 -2.5l25 -25q11 -11 22 -30v-2h1q-1 2 1 -1.5t4 -5.5l13 -25l-1 1q5 -13 10 -25t10 -26q1 -2 2 -5t2 -4v-4t1 -4q0 2 1 2v-5q1 -2 2 -5t2 -5q0 -2 0.5 -5.5t0.5 -4.5v5l7 -31q0 -2 0.5 -5t0.5 -4q0 5 1 4v-8t1 -6v-6t1 -3
q1 -3 1.5 -7.5t1.5 -8.5q2 -8 2.5 -18.5t1.5 -22.5q1 -2 1 -6.5v-7.5q0 -2 0.5 -4.5t0.5 -4.5q0 -3 1 -6q1 -5 1 -10.5v-13.5q1 -5 1 -12v-12q1 -5 1 -12v-13q0 -5 0.5 -11t0.5 -12v-650q1 -21 2 -43.5t2 -45.5v-114q63 29 121 29q112 0 179 -79q30 -37 46.5 -85.5
t16.5 -103.5q0 -110 -131 -226q187 -71 184 -304q0 -70 -17 -133.5t-45 -110.5q-36 -56 -89 -86.5t-121 -30.5q-135 0 -210 107q-63 91 -63 235q0 11 3 47t8 95h97q3 -195 45 -239q31 -29 71 -29q8 0 17.5 1t19.5 4q119 16 119 216q-11 66 -92.5 104.5t-235.5 45.5
q2 19 5.5 46t5.5 43v-1q1 6 2.5 21t2.5 21q263 5 263 130q0 35 -70 92q-29 -3 -48.5 -6t-24.5 -5h1q-20 -10 -40 -37.5t-40 -75.5l-18 -8q-2 -2 -5.5 -3t-14.5 -5q-4 2 -6 2t-4 1q-3 1 -8.5 2.5t-12.5 3.5t-12.5 4t-8.5 2v1030z" />
    <glyph glyph-name="iacute" unicode="&#xed;" horiz-adv-x="419" 
d="M-268 -1543q148 -1 234 107.5t93 344.5v238t-0.5 290.5t-0.5 299.5t-0.5 274.5t-0.5 260.5v233q-5 102 -10.5 168.5t-10.5 86.5q-6 23 -11 41.5t-10 34.5q-4 14 -8.5 27t-10.5 27q-5 16 2.5 31t24.5 15q79 -1 135.5 -27t93 -86.5t53.5 -159.5t16 -245v-293
q0 -105 0.5 -204t0.5 -193v-220.5t1 -226.5q0 -141 0.5 -269t0.5 -257v-252.5t1 -251.5h-106q-1 129 -1 252v252t-0.5 257t-0.5 268q0 58 -0.5 102.5t-0.5 105v105v83.5q0 87 -0.5 173t-0.5 173v258q0 91 -2 157.5t-8.5 113.5t-18.5 76.5t-31 46.5q2 -13 2.5 -28t1.5 -31
t1 -36.5v-38.5q0 -42 3 -268v-156l-2 -1356q5 -518 -390 -520q-33 -4 -65 -6t-60 -2q-335 0 -337 263q-2 57 25 104q28 46 116 80l209 38q148 25 159 172h107q-9 -161 -129 -239l1 1q-17 -12 -72.5 -29.5t-152.5 -26.5h1q-61 -10 -110 -26q-36 -14 -31 -48q0 -68 198 -68
q23 0 47.5 1t52.5 3h2z" />
    <glyph glyph-name="icircumflex" unicode="&#xee;" horiz-adv-x="508" 
d="M156 713q0 -4 1 -6q0 2 -0.5 3t-0.5 3zM133 693q3 -4 8 -5q-2 2 -4 2.5t-4 2.5zM-268 -1551q73 0 129 31.5t98.5 61.5t71.5 141t33 226v263v290.5t-0.5 274.5t-0.5 274.5v260.5v233q-5 102 -10.5 168.5t-10.5 86.5q-6 23 -11 41.5t-10 34.5q-4 14 -8.5 27t-10.5 27
q-5 16 2 31t24 15q79 -1 136 -27t93.5 -86.5t53.5 -159.5t16 -245v-293v-155.5v-138.5t0.5 -127.5t1.5 -120.5q23 5 47.5 9.5t38.5 4.5q194 0 194 -272q0 -84 -19 -168.5t-59 -174.5q-19 -41 -50.5 -109t-78.5 -165q8 -1 14.5 -2t14.5 -2q57 1 101 59t73 179q42 163 42 381
q0 118 -18.5 240t-58.5 256q10 3 24 8t28.5 10.5t27.5 10.5t22 8q42 -149 63.5 -282.5t21.5 -260.5q0 -159 -15 -287t-44 -231q-96 -334 -328 -334h-15q-35 1 -72 3q-9 0 -22.5 1t-27 1.5t-26 1.5t-21.5 2q18 63 56.5 154.5t97.5 212.5q113 235 113 374q0 156 -40 156
q-95 0 -95 -89q0 -25 7 -68t25 -107q-3 0 -10 -1l-14 -2t-13 -2t-9 -1q-8 -1 -19 -2t-34 -5q-56 158 -56 276q0 31 15 96q1 2 3 13t4 20l4 15l1 3q-1 0 -1 -2q0 63 0.5 125.5t0.5 126.5t-0.5 128.5t-0.5 130.5v258q0 91 -2 157.5t-8.5 113.5t-18.5 76.5t-31 46.5
q2 -13 2.5 -28t1.5 -31t1 -36.5v-38.5q0 -42 3 -268v-156l-2 -1325q2 -265 -93.5 -410t-303.5 -149q-22 -2 -45.5 -3t-43.5 -1q-184 0 -275.5 66t-92.5 192q-2 42 6 69.5t26 54.5q36 53 91 95l220 43q152 25 163 141h106q-2 -78 -33.5 -130t-95.5 -78q-19 -11 -75 -28.5
t-149 -26.5l2 1q-28 -8 -54.5 -18t-51.5 -21q-38 -19 -36 -77q0 -66 198 -66q23 0 47.5 1t52.5 3h2z" />
    <glyph glyph-name="idieresis" unicode="&#xef;" horiz-adv-x="508" 
d="M155 713q0 -4 1 -6q0 2 -0.5 3t-0.5 3zM132 693q3 -3 9 -5q-2 2 -4.5 2.5t-4.5 2.5zM-268 -1533q148 -1 236.5 102.5t95.5 339.5v243t-0.5 290.5t-0.5 294.5t-0.5 274.5t-0.5 260.5v233q-5 102 -10 168.5t-10 86.5q-11 44 -22 76q-8 27 -18 54q-5 16 2 31t24 15
q79 -1 135.5 -27t93.5 -86.5t54 -159.5t16 -245v-9q0 -113 0.5 -216.5t1 -205t1 -205.5t0.5 -216q38 26 107 26q225 0 225 -298q0 -51 -30.5 -98t-94.5 -90q48 -35 76.5 -59t37.5 -32q31 -39 46.5 -91t15.5 -124q0 -323 -297 -323q-52 0 -93 26t-76 77q-29 46 -44.5 95
t-15.5 102q0 109 6 127q17 39 100 47q8 -247 148 -247q46 0 79 30q35 32 35 72q0 69 -17 118t-46 75q-45 30 -233 47q-2 14 -5.5 34.5t-5.5 32.5l-10 48q269 6 269 127q0 93 -87 93q-56 0 -78 -29l1 2q-5 -8 -13.5 -26t-24.5 -52l1 1l-4 -8t-4.5 -8t-4.5 -8q-27 -10 -89 -10
q1 43 3 78.5t18 66.5q1 17 1.5 31.5t1.5 31.5q-5 152 -6.5 270.5t-1.5 190.5v47t1 37v284q0 91 -2 157.5t-9 113.5t-19 76.5t-31 46.5q2 -13 2.5 -28t1.5 -31t1 -36.5v-38.5q0 -42 3 -268v-156l-2 -1337q2 -242 -104 -383.5t-292 -145.5q-22 -2 -45.5 -3t-43.5 -1
q-183 0 -275 66t-93 192q-4 48 33 103.5t115 94.5l221 47q65 11 98.5 46.5t38.5 93.5h106q-6 -160 -134 -215h1q-14 -6 -69 -23.5t-151 -26.5l3 1q-26 -7 -54 -20t-50 -26q-41 -28 -38 -50q0 -66 197 -66q23 0 48 1t53 3h1z" />
    <glyph glyph-name="eth" unicode="&#xf0;" horiz-adv-x="387" 
d="M133 713q0 -4 1 -6q0 2 -0.5 3t-0.5 3zM110 693q3 -3 9 -5q-2 2 -4.5 2.5t-4.5 2.5zM-267 -1553q148 -1 225 142.5t84 379.5v233t-0.5 260.5t-0.5 274.5t-0.5 274.5t-0.5 260.5v233q-5 102 -10 168.5t-10 86.5q-11 44 -22 76q-8 27 -18 54q-5 16 2 31t24 15
q79 -1 135.5 -27t93.5 -86.5t54 -159.5t16 -245v-293q0 -105 0.5 -204t0.5 -193v-205.5t1 -191.5v-516v-267.5t1 -266.5h-106q-1 129 -1 267v267t-0.5 257t-0.5 258q0 38 -0.5 82.5t-0.5 90v90v83.5v346v258q0 91 -2 157.5t-9 113.5t-19 76.5t-31 46.5q2 -13 2.5 -28
t1.5 -31t1 -36.5v-38.5q0 -42 3 -268v-156l-2 -1277q2 -282 -92.5 -443.5t-280.5 -165.5q-22 -2 -45.5 -3t-43.5 -1q-370 0 -368 256q-2 12 -0.5 47t8.5 53h-511q-5 -1 -12 -1h-12h-22q-118 0 -251 31q-94 23 -152.5 55.5t-86.5 79.5q-35 26 -69 78.5t-54 124.5
q-33 133 -33 267q0 325 185 753q9 1 21.5 2t19.5 2q4 0 13.5 1.5t19.5 3t19.5 3t13.5 1.5q-83 -214 -122.5 -385t-39.5 -308q0 -296 214 -390q78 -42 197.5 -61.5t281.5 -19.5h147q22 0 43.5 1t39.5 3h60q223 2 350.5 10t163.5 23q23 6 39.5 13t24.5 17t16 29l4.5 16.5
t3.5 16.5l72 1l19 -1v-14q-14 -148 -127 -224l1 1q-17 -12 -73 -29.5t-153 -26.5l3 1q-29 -8 -55.5 -18t-50.5 -21q-37 -19 -36 -108q-2 -68 183 -68q47 0 115 6h1z" />
    <glyph glyph-name="ograve" unicode="&#xf2;" horiz-adv-x="1809" 
d="M1107 -463q-149 65 -245.5 96t-144.5 31q-85 0 -164 -44q-90 -50 -90 -129q0 -107 43.5 -191.5t125.5 -148.5q14 -9 42 -29t71 -50v1q42 -29 99 -68.5t126 -87.5q132 -115 180 -329q119 218 210 421.5t157 397.5q-82 11 -182 43t-228 87zM729 -1q-35 3 -65 6.5t-54 8.5
q-68 13 -113 38q-60 37 -92.5 105.5t-32.5 171.5q0 14 0.5 29t2.5 29q0 2 0.5 4.5t0.5 4.5q2 14 3.5 34t3.5 45q12 115 12 173q0 28 -18 52q-27 -5 -42.5 -26.5t-15.5 -58.5q0 -24 3 -73v1q2 -18 2.5 -37t0.5 -36q-10 -2 -27 -4t-25 -3q-7 -1 -20.5 -2.5t-20.5 -2.5
q-23 84 -23 179q0 100 34 180q17 56 52 86.5t86 32.5q136 0 136 -213q0 -7 -0.5 -14t-0.5 -14q0 -27 -5.5 -66.5t-17.5 -92.5q-6 -26 -10 -49.5t-6.5 -41.5t-4 -29t-1.5 -12q0 -211 93 -252q2 2 2.5 3t3.5 4q-31 76 -45 136t-14 110q0 97 20 184t55 159q49 90 117.5 139
t155.5 49q90 0 155.5 -56t103.5 -165q68 126 96 148v-1q85 75 191 76q107 -1 177 -63.5t107 -186.5q46 -162 46 -366q0 -143 -16 -339.5t-48 -441.5q48 8 95 28t95 54q8 -10 21 -23.5t20 -21.5q3 -4 9 -10.5t8 -8.5q-52 -51 -123.5 -86.5t-162.5 -60.5q-76 -209 -139.5 -363
t-109.5 -251q-77 -160 -167 -297.5t-197 -254.5q-9 5 -24 11t-23 10q-7 3 -18 8t-22.5 10t-22.5 9.5t-17 6.5q162 144 162 288q0 137 -167 251q-43 30 -85 60t-85 60q-44 30 -86 59t-84 59q-197 168 -197 372q0 178 168 300q147 107 340 107q139 0 353 -131
q112 -69 196.5 -112t141.5 -61q75 295 75 724q0 405 -257 405q-107 0 -168 -60q-20 -21 -42.5 -58.5t-48.5 -95.5q-120 210 -260 210q-121 0 -181 -89q-52 -76 -52 -201q0 -24 11.5 -63t29.5 -84q18 -39 46 -87t65 -101z" />
    <glyph glyph-name="divide" unicode="&#xf7;" horiz-adv-x="1828" 
d="M1082 -617q-133 0 -315 197q16 18 21 25t10 15v-1q2 2 8 11t8 11q198 -102 283 -102q96 0 96 59q0 7 -134 54q-5 2 -9 3.5t-8 2.5q-192 67 -192 166q0 22 33 91q42 26 79 38.5t68 12.5q85 0 199 -75q-1 -11 -1.5 -26.5t-1.5 -25.5v-7.5t-0.5 -11.5t-0.5 -11v-6
q-68 26 -115.5 38.5t-73.5 12.5q-13 0 -44 -11l2 2q-23 -12 -23 -19q0 -44 78 -65l-1 1q4 -1 43 -9.5t110 -23.5q109 -45 109 -158q0 -188 -228 -188zM768 0h-83q-321 0 -321 429q0 41 12 124v-1q5 41 7.5 70t2.5 48v6q0 12 0.5 22t-4.5 17q-5 0 -8.5 1t-7.5 2
q-57 -6 -57 -110q0 -3 0.5 -14.5t1.5 -29.5t2 -41.5t2 -49.5l-84 11q-15 54 -21 97t-6 78q0 100 37 172q26 48 62.5 73.5t84.5 25.5q137 0 137 -143q0 -35 -6.5 -84.5t-18.5 -113.5q-24 -129 -24 -191q0 -85 24.5 -145t77.5 -97q-61 160 -61 286q0 487 356 492
q156 -4 251 -222q91 225 315 222q309 0 309 -506v-428h-107v308q0 196 -57.5 294.5t-187.5 98.5q-95 0 -148 -41l1 1q-20 -17 -45 -47t-57 -73l-49 -13q-73 173 -191 173q-289 0 -289 -280q0 -81 41.5 -175.5t127.5 -202.5z" />
    <glyph glyph-name="oslash" unicode="&#xf8;" 
d="M-862 1141q260 126 260 282q0 255 -291 255q-301 0 -301 -230q0 -109 67 -176q12 -14 191 -137q-8 -10 -21 -25.5t-19 -21.5q-2 -2 -11 -13t-20 -24q-247 95 -474 358l78 78q13 -14 22 -24.5t19 -22t24 -26.5t37 -39q-12 47 -17 82.5t-5 60.5q0 186 112 293
q110 103 298 103q203 0 318 -109t115 -312q0 -283 -314 -444z" />
    <glyph glyph-name="ugrave" unicode="&#xf9;" 
d="M-1111 1558l39 -27q16 32 37 52t53 30q58 -40 123.5 -121.5t139.5 -209.5l-65 -64q-44 48 -89 95t-99 98l-8 2t-7 2q-6 -7 -12.5 -15.5t-12.5 -15.5l1 1q-7 -7 -18 -18.5t-16 -18.5q-8 2 -20 5.5t-17 5.5q-14 4 -26 7.5t-23 7.5zM-867 1141q261 127 261 273
q0 268 -297 268q-300 0 -300 -231q0 -50 15 -92t48 -80q15 -9 63.5 -45t126.5 -94q-12 -34 -27.5 -56.5t-38.5 -30.5q-59 22 -120.5 58t-123 82.5t-120.5 101t-113 114.5q8 9 19 20l22 22t21 21.5t18 17.5q23 -29 47 -57.5t50 -54.5q1 1 2 1t2 1q-11 38 -15.5 72.5
t-4.5 68.5q0 91 30 165.5t83 127.5q55 51 131 78t168 27q200 0 321 -110q116 -113 116 -314q0 -148 -80.5 -259.5t-237.5 -187.5z" />
    <glyph glyph-name="uacute" unicode="&#xfa;" horiz-adv-x="1363" 
d="M1420 -1738q0 85 -4.5 160t-18.5 140.5t-42 121.5t-74 103q-68 60 -165 100t-215 40q-223 0 -331.5 -110.5t-108.5 -314.5q0 -29 13 -87t36 -146q-464 118 -464 566q0 104 19 191t52.5 161.5t80.5 139t103 123t119.5 113.5t130.5 111l38 32t39 33q52 43 102 84
q93 75 173 144t138.5 143t90.5 157t28 186q-1 48 -22 89.5t-64.5 72t-111 48.5t-162.5 18q-74 0 -132 -18.5t-98.5 -52t-62 -81.5t-21.5 -107q0 -64 35 -161l-67 -43q-81 62 -131 125t-77.5 132.5t-37 148.5t-9.5 174h102q0 -61 3 -108t10.5 -85t19.5 -70.5t30 -63.5v13
q0 106 29 191.5t84.5 146t137 93t185.5 32.5q113 0 204 -42.5t155.5 -111t99.5 -154t35 -171.5q0 -111 -30 -214.5t-82 -198t-122 -179t-150 -157.5q-1 -2 -5.5 -5t-9.5 -7q-18 -12 -57.5 -40t-100.5 -76t-143 -118.5t-184 -167.5q-65 -60 -111 -124t-76 -128t-44 -126
t-14 -119q0 -54 11.5 -103.5t34.5 -93.5q19 -43 52.5 -77t82.5 -64q-2 29 -3 50.5t-1 34.5q0 282 155 445h-1q153 162 427 162q146 0 265.5 -63.5t209.5 -186.5q42 -59 66.5 -119.5t37.5 -124t16.5 -130t3.5 -136.5v-140h-102z" />
    <glyph glyph-name="udieresis" unicode="&#xfc;" horiz-adv-x="2174" 
d="M1763 1203q-33 0 -46.5 -5t-13.5 -18q0 -9 4 -21.5t10 -29.5l-1 1q38 -81 180 -99q-8 24 -20.5 54t-30 56.5t-38 44t-44.5 17.5zM2213 989q-35 -49 -80.5 -85.5t-107.5 -60.5v-2007q0 -288 -89.5 -430.5t-274.5 -142.5q-77 0 -128 23.5t-84 60.5t-53 82t-34 89
q-11 33 -23 64.5t-30 55.5t-45 39t-67 15q-52 0 -88 -16t-62 -42t-45 -60t-36 -70q-21 -43 -45 -85.5t-59.5 -76t-87 -54.5t-128.5 -21q-84 0 -147.5 26t-110 71.5t-78 106t-50.5 128.5t-27 140.5t-8 142.5q0 38 1.5 72.5t5.5 66.5q12 99 42 176.5t80.5 139.5t122.5 110.5
t168 90.5l269 101l388 145l-1 -1q88 41 154 93t109.5 118t65.5 147.5t22 180.5q0 379 -250 379q-156 0 -248 -182h-47q-81 175 -226 175q-84 0 -135.5 -24.5t-76.5 -75.5q-19 -35 -27.5 -95.5t-8.5 -156.5q0 -133 160 -289q5 -5 6 -10.5t1 -10.5q0 -11 -7 -22.5t-25 -12.5
q-14 -1 -31 -1.5t-29 -0.5q-91 0 -154.5 19t-103.5 64.5t-58 121t-18 188.5q0 26 2 64.5t7 90.5q2 19 5.5 37t6.5 35q3 20 6 38t3 30q0 14 -6 21.5t-23 9.5q-14 -4 -23.5 -19.5t-16 -36.5t-9.5 -45t-3 -45q0 -22 6 -80l-77 -18q-21 67 -31 122t-10 100q0 39 8 77.5t24 72.5
q10 23 26 40.5t34 29.5t36.5 18t34.5 6q45 0 73.5 -8.5t45 -27t22.5 -49.5t6 -76q0 -34 -5.5 -82.5t-16.5 -112.5q-11 -65 -16.5 -111.5t-5.5 -78.5q0 -98 26 -159t84 -87q-41 74 -55 142t-14 139q0 92 17.5 175t49.5 155q43 94 105 143t145 49q122 0 190 -46
q29 -21 55.5 -62.5t52.5 -108.5q27 55 56.5 94.5t65.5 65t81 37.5t103 12q63 0 112.5 -30t86 -78.5t62 -110t41.5 -124t23 -121t7 -101.5q0 -137 -15.5 -256.5t-58.5 -217.5t-119 -172.5t-197 -121.5q-69 -23 -178.5 -60t-264.5 -91q-151 -53 -261.5 -114t-183 -133
t-108 -157.5t-35.5 -188.5q0 -89 13.5 -155.5t47 -111t91 -66.5t144.5 -22q69 0 113.5 18t73 47.5t46.5 67t33 76.5q17 42 36 83t49.5 72.5t77.5 51t121 19.5h11q78 -1 124.5 -23t73 -57t38.5 -78t21 -86q6 -34 14.5 -66t25.5 -57t46 -40.5t77 -15.5q69 0 117.5 23.5
t81.5 64t52.5 94t29.5 113t13 121.5t3 120v1772q-361 54 -361 304q0 56 9 91.5t28.5 56t50 29.5t72.5 12q104 -7 168.5 -76t103.5 -201q52 22 87 53t51 71q8 21 17.5 68t20.5 123l93 -25v-71q0 -44 -3 -85t-9 -77t-16 -64.5t-23 -47.5v1z" />
    <glyph glyph-name="yacute" unicode="&#xfd;" horiz-adv-x="1790" 
d="M1019 1806q-1 0 -1 -1q0 1 1 1zM978 1798q1 2 1 4zM1003 1804q9 0 12 1l-17 48l-18 -49q2 -1 4.5 -0.5t6.5 0.5h12zM998 1356q111 0 165 27.5t56 80.5v-1q0 22 -19 40t-50 30t-71.5 18.5t-83.5 6.5q-42 0 -80 -6.5t-68 -19t-49.5 -30.5t-23.5 -41q0 -22 16 -41t45 -33.5
t70.5 -22.5t92.5 -8zM958 2065q17 21 39.5 19.5t38.5 -24.5l98 -282q5 -15 3.5 -28t-7.5 -22.5t-15 -16.5t-19 -11q70 -10 120.5 -32t83.5 -53.5t48.5 -70.5t15.5 -81t-25 -80t-68 -70q46 22 86 54t73 75.5t57.5 99.5t38.5 126l124 10q1 -141 -44 -258t-130.5 -200.5
t-207 -130t-273.5 -46.5q-149 0 -269 45.5t-205 129t-131.5 200.5t-48.5 260l126 -10q27 -137 91.5 -221.5t153.5 -129.5q-39 30 -61 67t-22 79q0 41 15 79.5t47.5 70t82.5 54.5t121 33q-12 5 -21 10.5t-14.5 14.5t-5.5 21.5t6 31.5zM465 390q2 -155 78 -214q-31 61 -36 126
q-4 45 -5.5 75t-1.5 45q0 79 16 159.5t47 156.5q20 47 44 81.5t51 60.5q62 54 166 54q229 4 285 -201q90 201 237 199q367 0 367 -529q2 -606 -402 -794l-717 -233q-177 -59 -269 -174.5t-92 -287.5q0 -66 16.5 -133t44.5 -122v1q31 -57 77 -104t109 -79q0 4 -0.5 10
t-0.5 11l-2 30t-1 24v40q0 271 143 429q148 165 414 165q113 0 221 -40t196 -109q91 -79 143 -179t52 -212q0 -221 -110 -390l-17.5 7.5t-5.5 2.5q-8 3 -23.5 10t-24.5 11q38 90 57 162t19 123q0 374 -550 374q-192 0 -299 -101q-116 -105 -116 -292q0 -22 15.5 -89.5
t44.5 -178.5q-122 35 -214.5 92.5t-155.5 135.5q-64 83 -97.5 187t-33.5 226q0 484 402 661l711 215h-1q363 134 363 535q0 346 -248 346q-66 0 -129 -48t-128 -156q-23 30 -51 64.5t-61 75.5q-19 23 -44 39t-54 23q-85 0 -144 -25.5t-91 -73.5v1q-19 -36 -32 -102
q-12 -69 -12 -126q0 -163 153 -319l-22 -22q-2 -2 -5.5 -6t-5.5 -6q-187 1 -276.5 84.5t-89.5 254.5q0 14 0.5 26t1.5 22q1 11 2.5 29.5t3.5 42.5q5 51 7 91.5t2 66.5q0 59 -29 94q-23 -8 -36 -33.5t-14 -64.5q1 -16 3 -54.5t4 -83.5q-23 -5 -31.5 -7.5t-14.5 -4.5
q-2 -1 -7.5 -2.5t-12 -3t-12 -3t-8.5 -2.5q-12 63 -19.5 113t-7.5 76q0 291 187 291q83 -4 113 -117q0 -77 -18 -230q-5 -39 -8.5 -72.5t-5.5 -62.5t-3 -44.5t-1 -17.5z" />
    <glyph glyph-name="thorn" unicode="&#xfe;" horiz-adv-x="2823" 
d="M1092 1810q-1 0 -1 -1q0 1 1 1zM1051 1803q1 2 1 4zM1075 1809h13l-18 49l-17 -49q2 -1 4.5 -0.5t5.5 0.5h12zM1070 1361q111 0 165 27.5t56 80.5q0 22 -19 39.5t-50.5 29.5t-71.5 18.5t-83 6.5q-42 0 -80 -6.5t-68 -19.5t-49 -31t-23 -40q0 -22 15.5 -41t44.5 -33.5
t70.5 -22.5t92.5 -8zM2374 6q-34 0 -64 9t-53.5 25t-37.5 38t-15 48q-1 31 7.5 59.5t25 50.5t40 35t52.5 15q28 1 53 -9.5t46 -51.5q3 -6 3.5 -12t0.5 -12q0 -3 1 -7t7 -7t19 -5t37 -2q35 1 60 18t45 47q17 26 20.5 57.5t3.5 70.5q0 85 -28 153t-87 115t-151 72t-220 25
q-39 0 -83.5 -9t-92 -24.5t-95.5 -35.5t-95 -42l-34 52q178 264 467 264q240 0 386 -153h-1q141 -147 141 -391q0 -111 -32 -190.5t-112 -134.5q-20 -13 -42 -25.5t-47.5 -22t-56 -15t-68.5 -5.5zM1030 2070q17 20 40 19t38 -24l98 -282q10 -32 -3.5 -51t-33.5 -28
q70 -9 120.5 -31.5t83 -53.5t48 -70t15.5 -81t-25 -80t-67 -70q91 44 159 129.5t96 225.5l123 10q1 -141 -44 -258t-130.5 -200.5t-207 -130t-273.5 -46.5q-149 0 -269 45.5t-204.5 129t-131.5 200.5t-48 260l125 -10q27 -138 92 -222.5t153 -128.5q-38 30 -60 67t-22 79
q0 41 15 79.5t47 70t82 54t121 32.5q-12 5 -21 11t-14 15t-5.5 21.5t5.5 31.5zM475 390q1 -170 96 -227q-25 72 -42 143q-10 45 -14.5 73.5t-4.5 42.5q0 79 16 159.5t47 156.5q20 47 44 81.5t51 60.5q62 54 165 54q231 6 286 -201q90 201 237 199q367 0 367 -529
q9 -647 -402 -794l-717 -233q-177 -59 -269 -174.5t-92 -287.5q0 -66 16.5 -133t44.5 -122v1q31 -57 77 -104t109 -79q0 4 -0.5 10t-0.5 11q0 15 -1 30t-1 24v40q0 137 35 243t107 186q148 165 414 165q113 0 221 -40t196 -109q91 -79 143 -179t52 -212q0 -221 -110 -390
q-13 6 -17 7.5t-6 2.5q-8 3 -23.5 10t-24.5 11q38 90 57 162t19 123q0 374 -550 374q-192 0 -299 -101q-116 -105 -116 -292q0 -22 15.5 -89.5t44.5 -178.5q-122 35 -214.5 92.5t-155.5 135.5q-64 83 -97.5 187t-33.5 226q0 486 400 661l712 176q173 78 268 223t95 351
q0 346 -248 346q-66 0 -129 -48t-128 -156q-23 30 -51 64.5t-61 75.5q-19 23 -44 39t-54 23q-85 0 -144 -25.5t-91 -73.5v1q-19 -36 -32 -102q-12 -69 -12 -126q0 -163 153 -319l-22 -22q-2 -2 -5.5 -6t-5.5 -6q-187 1 -276 84.5t-89 254.5q0 14 0.5 26t0.5 22
q1 11 2.5 29.5t3.5 42.5q5 51 7 91.5t2 66.5q0 59 -29 94q-23 -7 -36 -32.5t-14 -65.5q1 -16 3 -54.5t4 -83.5q-23 -5 -31.5 -7.5t-14.5 -4.5q-2 -1 -7.5 -2.5t-12 -3t-12 -3t-8.5 -2.5q-12 63 -19.5 113t-7.5 76q0 291 187 291q83 -4 113 -117q0 -77 -18 -230
q-5 -39 -8.5 -72.5t-5.5 -62.5t-3 -44.5t-1 -17.5z" />
    <glyph glyph-name="scaron" unicode="&#x161;" 
d="M-827 1115q1 -1 1 -1.5t1 -1.5v1zM-926 1089q17 9 29.5 16.5t21.5 12.5l-7 10q-1 2 -6.5 7.5l-12.5 12.5l18 15t16 14q3 2 6.5 5.5t8.5 9.5q34 31 34 57q0 87 -110 87q-103 0 -103 -87q0 -12 19.5 -37.5t52.5 -58.5q-5 -14 -9.5 -23.5t-7.5 -14.5q-2 -6 -7 -17t-7 -14
q-73 52 -105 97.5t-32 92.5q0 205 206 205q199 0 199 -205q0 -79 -101 -165q5 -7 10 -17.5t11 -21.5zM-713 1062l-3 14q-27 19 -57 52q81 62 128.5 132t47.5 140q0 130 -104 203h1q-95 65 -228 65q-64 0 -120.5 -17.5t-102.5 -49.5q-46 -38 -73.5 -89t-27.5 -112
q0 -147 170 -264q-13 -26 -30.5 -44t-43.5 -30q-115 62 -169.5 145.5t-54.5 190.5q0 516 459 516q451 0 451 -516q0 -205 -205 -323l-3 -12z" />
    <glyph glyph-name="florin" unicode="&#x192;" horiz-adv-x="1448" 
d="M160 387l-4 181h1220l4 -181h-1220z" />
    <glyph glyph-name="quoteleft" unicode="&#x2018;" horiz-adv-x="547" 
d="M370 321l-86 21q19 19 33.5 38t24.5 33q5 6 16.5 19.5t25.5 27.5l1 -11q39 58 39 120q0 9 -3 24q-2 -2 -3 -2q-7 -2 -16.5 -5t-14.5 -5q-37 12 -55.5 44t-18.5 82q0 136 93 136q61 0 91 -81q12 -31 18.5 -63.5t6.5 -70.5q0 -205 -138 -302q1 -3 1 -9l-10 2l-4 -2z" />
    <glyph glyph-name="quoteright" unicode="&#x2019;" horiz-adv-x="547" 
d="M388 455q36 55 36 114v5t-1 7v12l-33 -12q-77 29 -77 126q0 136 93 136q61 0 91 -81q12 -31 18.5 -63.5t6.5 -70.5q0 -203 -138 -302q1 -3 1 -9l-10 2q-2 -1 -2.5 -1.5t-2.5 -1.5l-1 5l-85 21q5 5 20 26.5t31.5 46t31 47t18.5 30.5z" />
    <glyph glyph-name="quotedblleft" unicode="&#x201c;" horiz-adv-x="905" 
d="M453 645q-8 -3 -16.5 -5.5t-13.5 -4.5q-95 2 -95 121q0 49 31 91l-1 -1q29 49 77 49q62 0 104 -78q14 -31 22 -63.5t8 -69.5q0 -115 -49.5 -195.5t-160.5 -135.5v95q97 81 101 173zM710 632q-89 33 -89 128q0 135 106 135q133 0 133 -215q0 -222 -211 -324v92
q100 84 100 175v9t-2 14z" />
    <glyph glyph-name="dagger" unicode="&#x2020;" horiz-adv-x="354" 
d="M124 -576v1760h125v-1760h-125z" />
    <glyph glyph-name="daggerdbl" unicode="&#x2021;" horiz-adv-x="1650" 
d="M186 -190v183h1385v-183h-1385zM864 35q-161 0 -291 52.5t-222 147.5q-81 90 -131.5 220t-67.5 301h120q120 -462 592 -462t592 462h121q-19 -170 -70.5 -300.5t-129.5 -220.5q-93 -99 -220.5 -149.5t-292.5 -50.5z" />
    <glyph glyph-name="guilsinglleft" unicode="&#x2039;" horiz-adv-x="1544" 
d="M376 63q-11 14 -24 31.5t-23 31.5q-54 71 -112 147t-112 148q66 91 134.5 181.5t136.5 180.5h90l-142 -305h1135v-111h-1138q15 -32 31 -65l32 -66q9 -18 19.5 -40.5t21.5 -46t21.5 -46t19.5 -40.5h-90z" />
    <glyph glyph-name="guilsinglright" unicode="&#x203a;" horiz-adv-x="1573" 
d="M1208 62h-91l145 305h-1155v111h1154q-11 23 -22 45.5t-22 45.5t-24 51t-26.5 56.5t-26 55.5t-22.5 50h90q29 -37 59 -77l57 -76q18 -23 38.5 -49.5t41.5 -54t41.5 -54.5t38.5 -51z" />
    <glyph glyph-name="trademark" unicode="&#x2122;" 
d="M-571 1123q-8 4 -6.5 6t-0.5 5l-9 18l15.5 15.5t13.5 12.5q2 2 6 5.5t8 7.5q31 28 31 56q0 87 -111 87q-104 0 -104 -87q0 -12 18 -36t60 -63q-20 -35 -42 -62q-70 50 -101 94.5t-31 91.5q0 205 206 205q202 0 202 -205q0 -91 -131 -189zM-403 1061l-1 11
q-14 10 -31.5 24.5t-34.5 31.5q83 63 130 132t47 140q0 130 -104 203h1q-95 65 -228 65q-64 0 -120.5 -17.5t-102.5 -49.5q-45 -37 -73.5 -89t-28.5 -112q0 -149 168 -264q-22 -52 -68 -75q-228 124 -228 337q0 516 459 516q455 0 455 -516q0 -211 -218 -331v-5z" />
    <glyph glyph-name="oe" unicode="&#x153;" horiz-adv-x="1938" 
d="M1629 281q-27 -177 -142 -239h1q-42 -23 -88 -34.5t-97 -11.5q-15 0 -29.5 1t-28.5 3q-3 -2 -5 -3l-4 -2q-277 0 -318 199q-10 57 -14.5 106.5t-4.5 93.5q0 42 -1.5 77t-3.5 65q-40 160 -291 160q-79 0 -133.5 -22t-83.5 -63q-50 -71 -50 -234q0 -157 30 -196l-1 2
q32 -34 65 -34q110 0 110 149q0 26 -3.5 64.5t-12.5 98.5q8 1 17 3t16.5 3.5t12 2.5t2.5 0q11 3 18.5 4.5t18.5 3.5q17 -79 24.5 -132t7.5 -79q0 -108 -42 -184q-54 -94 -149 -83q-64 -5 -110.5 32t-75.5 112q-20 54 -31.5 118.5t-11.5 128.5q11 547 395 547h19t20 -1
q112 0 179 -26t93 -77q38 -45 56.5 -113.5t18.5 -165.5v-66q0 -140 31 -193q22 -37 66 -54.5t110 -18.5q28 -2 52 -3t46 -1q82 0 118 13q52 27 80 101.5t28 195.5v20.5t-1 20.5v5q-8 120 -21.5 193.5t-29.5 115.5q-5 14 2 29.5t24 15.5q79 0 135.5 -26.5t93 -87t53.5 -158.5
t17 -240v-417h-107v275q0 91 -2 157.5t-8.5 113t-18 75.5t-30.5 46q2 -21 3 -48.5t2 -56.5q1 -16 1 -35.5v-36.5v-30q0 -27 -4.5 -71.5t-12.5 -107.5z" />
    <glyph glyph-name="space" unicode=" " horiz-adv-x="1" 
 />
    <glyph glyph-name="Ydieresis" unicode="&#x178;" horiz-adv-x="1954" 
d="M1086 1798l1 -1zM1091 1807q-2 0 -2 -1q1 1 2 1zM1046 1799q2 2 2 5zM1084 1805l-19 49l-17 -49h30h6zM1653 -1271q0 7 -8 16.5t-20 20.5q-14 11 -26.5 18t-21.5 7q-38 0 -68 -25t-53 -79q36 -29 68 -42t62 -13q67 0 67 97zM1065 1357q111 0 165 27.5t56 80.5
q0 22 -19 39.5t-50.5 29.5t-71.5 18.5t-83 6.5q-42 0 -80 -6.5t-68 -19t-49.5 -30.5t-23.5 -41q0 -22 16 -41t45 -33.5t70.5 -22.5t92.5 -8zM2057 -1308q0 209 -151 280q-109 55 -348 55h-230q3 -32 7.5 -70.5t9.5 -69.5q2 -29 9.5 -58.5t18.5 -59.5q111 132 220 132
q150 0 150 -234q0 -140 -162 -140q-38 0 -79 8t-94 28q-5 -20 -7.5 -33.5t-2.5 -16.5q0 -119 306 -119q353 0 353 298zM1717 1679q1 -141 -44 -258t-130.5 -200.5t-207 -130t-273.5 -46.5q-149 0 -269 45.5t-204.5 129t-131.5 200.5t-48 260l125 -10q27 -137 92 -221.5
t153 -129.5q-38 30 -60 67t-22 79q0 41 15 79.5t47 70t82 54.5t121 33q-12 5 -21 10.5t-14 14.5t-5.5 21.5t5.5 31.5l98 287q17 21 40 19.5t38 -24.5l98 -282q5 -15 4 -28t-7 -22.5t-15 -16.5t-19 -11q70 -10 120.5 -32t83 -53.5t48 -70.5t15.5 -81t-25 -80t-67 -70
q91 44 159 129.5t96 225.5zM471 390q2 -164 87 -221q-15 33 -25 66t-14 66q-7 45 -10 75t-3 46q0 79 16 159.5t47 156.5q20 47 44 81.5t51 60.5q62 54 166 54q229 4 285 -201q90 201 237 199q367 0 367 -529q1 -609 -402 -735l-698 -217q-161 -57 -256.5 -189.5
t-108.5 -331.5q2 -137 65.5 -252t185.5 -200q11 131 54 251t109 217q77 103 185.5 174.5t229.5 103.5q54 374 833 382v-92q-158 -2 -255.5 -9.5t-137.5 -18.5h2q-75 -27 -124.5 -86t-66.5 -153q409 -10 619 -162t210 -445q0 -93 -36 -164t-105 -121q-61 -39 -139.5 -60.5
t-172.5 -21.5q-442 0 -442 255q0 23 3 48.5t11 56.5q-69 59 -112.5 150.5t-63.5 219.5q-98 -12 -191.5 -67t-174.5 -144q-73 -88 -114.5 -179.5t-41.5 -178.5q0 -8 1.5 -27t5.5 -57q-233 88 -347 258t-114 422q5 537 399 654q104 44 726 178q360 57 360 475q0 346 -248 346
q-66 0 -129 -48t-128 -156q-23 30 -51 64.5t-61 75.5q-19 23 -44 39t-54 23q-85 0 -144 -25.5t-91 -73.5v1q-19 -36 -32 -102q-12 -69 -12 -126q0 -163 153 -319l-22 -22q-2 -2 -5.5 -6t-5.5 -6q-187 1 -276 84.5t-89 254.5v26t1 22q1 11 2.5 29.5t3.5 42.5q5 51 7 91.5
t2 66.5q0 59 -29 94q-23 -8 -36 -33.5t-14 -64.5q1 -16 3 -54.5t4 -83.5q-23 -5 -31.5 -7.5t-14.5 -4.5q-2 -1 -7.5 -2.5t-12 -3t-12 -3t-8.5 -2.5q-12 63 -19.5 113t-7.5 76q0 291 187 291q83 -4 113 -117q0 -77 -18 -230q-5 -39 -8.5 -72.5t-5.5 -62.5t-3 -44.5t-1 -17.5z
" />
    <glyph glyph-name="dieresis" unicode="&#xa8;" 
d="M68 1064q-316 7 -476 262q-139 224 -139 508q0 11 1.5 53t5.5 109q1 10 1 30.5v32.5q39 -8 86.5 -17.5t84.5 -16.5q0 -20 -0.5 -47.5t-2.5 -66.5q-2 -35 -2.5 -65t-0.5 -49q0 -143 23 -252.5t64 -182.5q105 -170 372 -218zM-949 1145q265 124 265 274q0 275 -301 275
q-63 0 -115.5 -14t-94.5 -40h1q-97 -64 -97 -182q0 -53 19 -98.5t49 -77.5q2 -2 5 -4.5t8 -5.5q9 -5 16 -11q16 -11 38 -26t52 -35l35 -25t39 -28q-17 -55 -66 -91q-123 46 -248 137.5t-243 223.5q9 10 22 23l20 20q6 6 18.5 20t18.5 21q3 -3 8 -9t10.5 -12t10.5 -11.5
t8 -8.5q21 -24 34.5 -39l31.5 -35q1 1 3 2q-10 38 -13.5 73t-3.5 71q0 191 118 296h-1q112 103 305 103q208 0 324 -113t116 -319q0 -144 -80 -255.5t-235 -191.5z" />
    <glyph glyph-name="emdash" unicode="&#x2014;" horiz-adv-x="1043" 
d="M-94 367v111h1263v-111h-1263z" />
    <glyph glyph-name="periodcentered" unicode="&#xb7;" 
d="M1 1819q-128 0 -128 134q0 27 9.5 50t27 39.5t41 26t50.5 9.5q51 0 87 -38q37 -37 37 -87q0 -58 -33.5 -96t-90.5 -38z" />
    <glyph glyph-name="endash" unicode="&#x2013;" horiz-adv-x="497" 
d="M314 461q-128 0 -128 134q0 27 9.5 50t27 39.5t41 26t50.5 9.5q51 0 87 -38q37 -37 37 -87q0 -58 -33.5 -96t-90.5 -38zM314 105q-128 0 -128 134q0 27 9.5 50t27 39.5t41 26t50.5 9.5q51 0 87 -38q37 -37 37 -87q0 -59 -33.5 -96.5t-90.5 -37.5z" />
    <glyph glyph-name="ordfeminine" unicode="&#xaa;" horiz-adv-x="2062" 
d="M816 337q-75 3 -105 -58q-12 -23 -20.5 -41.5t-13.5 -34.5q156 25 165 79q1 3 1 18q2 30 -31 38zM1875 0q0 43 1.5 150t4.5 260q6 284 -265 284q-165 0 -291 -180q-109 175 -319 175q-69 0 -118 -36q-52 -37 -70 -100q-11 -1 -24.5 -1.5t-20.5 -1.5h-8t-12.5 -0.5
t-12.5 -0.5h-9q4 86 25.5 151.5t61.5 117.5q45 59 106 88.5t136 24.5q120 11 195 -85l-2 1q5 -4 25 -35.5t54 -90.5q63 106 139 160.5t164 49.5q347 9 347 -466v-465h-107zM394 741q-68 -71 -107 -159l-86 1q22 136 82 228q78 123 193 118q69 0 99 -36.5t22 -104.5
q-2 -19 -31.5 -77.5t-83.5 -149.5q-56 -95 -83.5 -157t-24.5 -87q5 -110 205 -115q11 125 68 184.5t163 59.5q16 0 31.5 -1t29.5 -3q81 -41 87 -81q2 -15 3.5 -33t1.5 -41q0 -135 -106 -229q-23 -19 -48.5 -36t-54.5 -30t-62.5 -20t-71.5 -6q-3 -33 -5 -53t-2 -22
q0 -258 283 -258q69 0 137.5 71t139.5 213q17 -3 23 -3.5t11 -0.5h38q-52 -245 -154.5 -362.5t-256.5 -117.5q-81 0 -145 35.5t-109 101.5q-35 58 -54.5 131.5t-19.5 159.5q0 18 1.5 38.5t3.5 52.5v1q1 7 1 6.5t1 7.5q-78 21 -127.5 45t-75.5 52h1q-73 76 -73 215
q0 38 24 105t69 159q14 26 23.5 46t18.5 38q9 19 18.5 38.5t23.5 46.5q4 7 6 15t2 11q0 10 -11 10t-18 -7z" />
    <glyph glyph-name="exclam" unicode="!" 
d="M-838 1220q-44 48 -93 99t-97 96q-5 0 -7.5 0.5t-10.5 2.5q-10 -11 -21.5 -23.5t-22.5 -23.5l1 1q-6 -8 -18 -20q-19 5 -46 13.5t-43 13.5q22 66 47 121.5t53 96.5q9 4 25 10.5t24 9.5q111 -67 274 -332zM74 1064q-342 7 -494 282q-66 117 -96 249t-30 290v58v13t1 16v8
t0.5 11t0.5 11.5v7.5q13 -3 28.5 -6.5t31 -6.5t30 -5.5t25.5 -3.5q9 -2 27.5 -5.5t29.5 -5.5v-63q-1 -1 -1 2h-39q0 -1 2.5 -6t16.5 -5q3 0 5.5 -16t5 -35.5t3.5 -37t1 -19.5q0 -571 455 -652zM-954 1147q267 123 267 272q0 275 -301 275q-309 0 -309 -236q0 -63 26 -116.5
t82 -88.5q5 -4 11 -8t10 -8q18 -12 51 -36t86 -62q-11 -13 -25 -30.5l-22 -27.5q-3 -4 -11.5 -13.5t-11.5 -13.5q-263 108 -494 363q9 9 21 21.5t18 18.5q6 7 21 22.5t24 24.5q29 -40 53 -68.5t48 -52.5q1 0 2 1.5t2 1.5q-10 37 -15.5 74.5t-5.5 71.5q0 91 31 165t87 126.5
t134.5 81t173.5 28.5q105 0 186.5 -28.5t137.5 -83.5t85.5 -135.5t29.5 -183.5q0 -156 -78 -265.5t-247 -182.5z" />
    <glyph glyph-name="one" unicode="1" horiz-adv-x="2064" 
d="M2131 1031q1 -2 0.5 -1.5l-1.5 1.5h1zM2129 1032q1 0 1 -1zM1734 1050q-17 0 -30 -5q-5 -11 -5 -31q0 -18 9 -31t24.5 -22t36 -15t43.5 -9q-6 21 -13 41.5t-16 36.5t-21 25.5t-28 9.5zM1477 0l-23 12l-1 27l6 15q38 60 66 110.5t46 94.5q13 31 19.5 63.5t11.5 62.5
q2 15 4.5 29t5.5 28q-1 55 -17 101t-45.5 79.5t-70.5 52.5t-91 19q-56 0 -95 -8.5t-63 -24.5q-16 -12 -31 -26.5t-31 -34.5t-32 -48t-33 -65q-116 189 -246 189q-236 0 -236 -263q0 -22 5.5 -58t18.5 -83.5t35.5 -105.5t56.5 -123q0 -16 -9 -29.5t-33 -13.5q-9 0 -13 2
q-160 25 -240 117t-80 266q0 20 3.5 56.5t8.5 77.5v-1q5 41 9.5 78t4.5 55v6q0 4 0.5 8t0.5 9q0 11 -4 22.5t-16 14.5q-32 -11 -41.5 -40.5t-9.5 -63.5q2 -16 3.5 -40t3.5 -53q0 -4 0.5 -14.5t0.5 -14.5l-96 -24l-24 203q0 56 12 104t34.5 83t54.5 54.5t72 19.5
q139 0 139 -160q0 -12 -2 -32.5t-5.5 -45.5t-7.5 -52.5t-8 -54.5q-4 -28 -8.5 -57t-8 -55t-5.5 -47t-2 -32q0 -41 12 -76t37 -64q-11 34 -13.5 59t-2.5 56q0 63 4 119t13 105.5t25 94.5t40 87q99 168 289 168q71 0 130 -54t105 -158q63 112 124.5 159.5t124.5 47.5
q367 0 367 -433q0 -35 -2.5 -67.5t-8.5 -66t-16 -70.5t-25 -80q63 20 97 58.5t48 104.5q9 40 9 238v66t-1 76q-60 16 -107.5 44t-80.5 63.5t-50.5 77.5t-17.5 87q0 66 40.5 99t112.5 33q50 0 86 -18t59 -62v1q9 -17 18 -47.5t21 -78.5q2 -7 3 -14t2 -11q91 20 127 86l56 32
l33 -19q0 1 10 -25q7 -17 7 -26q0 -29 -17.5 -61.5t-47 -63.5t-68 -56.5t-81.5 -39.5q7 -169 9.5 -255t2.5 -98q0 -182 -59 -277q-24 -39 -68.5 -64t-98.5 -40t-113 -20.5t-111 -5.5h-17z" />
    <glyph glyph-name="currency" unicode="&#xa4;" horiz-adv-x="761" 
d="M404 264q38 38 70.5 70t70.5 72q-37 38 -70 71t-71 73q-38 -38 -71 -71.5t-72 -72.5zM99 406l305 311l305 -311l-305 -307z" />
    <glyph glyph-name="threesuperior" unicode="&#xb3;" horiz-adv-x="1485" 
d="M1306 0v308q0 12 -0.5 40.5t-2 65.5t-4.5 79t-9 81t-14.5 72t-21.5 52q7 -36 9.5 -70t2.5 -65t-1.5 -59t-3.5 -51q-8 -87 -24.5 -148t-44 -105.5t-66.5 -78t-90 -65.5q7 -29 13 -61.5t11 -67.5l-87 -12q-7 61 -24 102q-40 -11 -70 -14t-61 -3q-225 0 -351 131
q-104 110 -104 295q0 31 3 61q0 17 1.5 40t5.5 55t6 55t2 37q0 20 -8 44q-6 7 -15 11q-61 -24 -61 -144q0 -16 3 -38.5t17 -51.5q-10 -10 -16.5 -15.5t-11 -9.5t-8.5 -6.5t-9 -6.5q-5 -5 -13.5 -13t-9.5 -9q-50 112 -50 206q0 54 9 102.5t26 87.5q23 52 58.5 79.5t80.5 27.5
q128 0 128 -172q0 -29 -4 -68t-13 -88q-18 -98 -18 -150q0 -8 -0.5 -16t-0.5 -14q0 -110 122 -149q35 -12 97.5 -20t154.5 -11q-39 60 -81.5 111.5t-86.5 93.5l-69 -69l-70 33q39 81 80.5 141.5t83.5 100.5q68 -78 136.5 -177.5t141.5 -229.5q179 36 179 227q1 9 1 18v20
q0 77 -12.5 172t-40.5 211l29 36q81 -2 140 -39.5t91 -110.5v1q52 -97 52 -346v-443h-107z" />
    <glyph glyph-name="acute" unicode="&#xb4;" horiz-adv-x="1863" 
d="M1055 0l-54 243l1 -1q-20 83 -85 151q-13 -11 -27.5 -25.5t-28.5 -31.5l-77 31q9 28 22 67t25 71q9 25 29 53t50 62q62 -45 107 -112.5t70 -151.5q42 -141 47 -322zM1180 54q182 206 182 361q0 269 -350 269q-395 0 -395 -257q0 -200 167 -376q22 -37 -14 -50
q-11 -1 -24 -1h-21h-46q-313 0 -313 420q0 18 3 50.5t8 69.5q5 36 8.5 68.5t3.5 48.5q0 20 -6.5 38.5t-23.5 18.5q-22 -11 -37 -30.5t-20 -48.5q1 -7 1 -13.5t1 -13.5q2 -32 4 -66.5t9 -80.5h-92l-22 181q0 54 11.5 101t33.5 90q57 102 154 102q111 0 111 -171
q0 -64 -22 -177q-11 -59 -16 -101t-5 -70q0 -36 6.5 -74t20 -72.5t34 -63.5t49.5 -48q-14 25 -27.5 52t-17.5 38q-10 29 -15 49.5t-7 36t-2 29v28.5v33q0 240 127 373h-1q130 138 369 138q221 0 347 -129q125 -130 125 -350q0 -44 -20.5 -112t-61.5 -164q113 105 113 347
q0 72 -51 411q329 -35 329 -503v-435h-107v276q0 160 -16.5 258.5t-66.5 138.5q1 -5 2 -11t3 -14q2 -11 4.5 -20.5t4.5 -29.5q6 -60 6 -118q0 -99 -18.5 -186.5t-63.5 -153t-120 -104t-187 -38.5h-17.5t-26.5 2q-20 22 -19 31.5t12 20.5v-1z" />
    <glyph glyph-name="sterling" unicode="&#xa3;" horiz-adv-x="1828" 
d="M771 0h-83q-321 0 -321 429q0 41 12 124v-1q5 41 7.5 70t2.5 48v6q0 12 0.5 22t-4.5 17q-5 0 -8.5 1t-7.5 2q-57 -6 -57 -110q0 -3 0.5 -14.5t1.5 -29.5t2 -41.5t2 -49.5l-84 11q-15 54 -21 97t-6 78q0 100 37 172q26 48 62.5 73.5t84.5 25.5q137 0 137 -143
q0 -35 -6.5 -84.5t-18.5 -113.5q-24 -129 -24 -191q0 -85 24.5 -145t77.5 -97q-61 160 -61 286q0 487 356 492q156 -4 251 -222q91 225 315 222q309 0 309 -506v-428h-107v308q0 196 -57.5 294.5t-187.5 98.5q-95 0 -148 -41l1 1q-20 -17 -45 -47t-57 -73l-49 -13
q-73 173 -191 173q-289 0 -289 -280q0 -81 41.5 -175.5t127.5 -202.5z" />
    <glyph glyph-name="guillemotleft" unicode="&#xab;" horiz-adv-x="539" 
d="M607 -1730q-401 237 -401 1063q0 70 5.5 167.5t16 213t25 245.5t32.5 265q19 141 33.5 270.5t24.5 243.5t15.5 210t5.5 168q0 553 -403 553q-106 0 -185 -48t-129 -139q-35 -69 -54 -163.5t-21 -211.5q-19 -11 -38 -17.5t-34 -11.5q-16 67 -24 128.5t-8 118.5
q0 118 32.5 222t92.5 187q141 185 376 185q496 0 496 -712q0 -125 -10 -307t-30 -432q-20 -249 -30 -430.5t-10 -306.5q0 -111 2.5 -214t7.5 -196t11.5 -174t15.5 -148q15 -95 38.5 -189t56 -184t73 -174t88.5 -157z" />
    <glyph glyph-name="paragraph" unicode="&#xb6;" horiz-adv-x="1148" 
d="M1010 863v-1744h-71v1744h-188v-1744h-72v1043q-81 5 -141.5 13t-102.5 22q-237 78 -237 345q0 54 11.5 99t31.5 80q60 96 162 145.5t245 49.5h495v-53h-133z" />
    <glyph glyph-name="quotedbl" unicode="&#x22;" horiz-adv-x="920" 
d="M666 448q101 82 101 175v11t-1 12q-2 -1 -3.5 -1t-3.5 -1q-8 -2 -17.5 -5t-14.5 -5q-88 21 -88 126q0 135 106 135q63 0 102 -83v1q17 -33 24.5 -66.5t7.5 -70.5q0 -109 -53.5 -189t-159.5 -135v96zM376 448q102 84 102 175q0 4 -1 8t-5 12q-20 -8 -38 -8q-90 -2 -90 121
q0 51 31 91q16 23 36.5 35.5t43.5 12.5q63 0 102 -76q14 -32 21.5 -65.5t7.5 -69.5q0 -115 -49.5 -195.5t-160.5 -135.5v95z" />
    <glyph glyph-name="numbersign" unicode="#" 
d="M-759 1205q-38 45 -84 92.5t-102 98.5q-6 1 -10.5 1.5t-11.5 0.5q-11 -13 -23 -28q-5 -7 -15.5 -18.5t-15.5 -17.5q-9 3 -22 7t-21 6q-6 2 -22.5 7t-23.5 7q11 32 35 87t57 127q13 4 25 8t26 11q57 -33 124.5 -116.5t142.5 -204.5zM-352 1530q-11 -3 -21.5 -6t-19.5 -7
l-44 -15q-1 110 -4.5 201.5t-13.5 172.5q211 -23 316.5 -197.5t107.5 -509.5q-14 -4 -32 -9.5t-29 -9.5q-1 0 -12 -0.5t-12 -0.5q-24 201 -73 322t-125 158zM-1310 1380q-19 69 -19 143q0 89 28 159.5t81.5 119.5t130.5 75t176 26t178.5 -30t135 -86t85.5 -136t30 -180
q0 -137 -77.5 -242t-242.5 -184q-7 9 -16.5 21.5t-19 25.5t-18.5 25l-15 20q260 125 260 278q0 251 -294 251q-298 0 -298 -225q0 -61 22 -106.5t65 -79.5q18 -14 45.5 -33.5t67.5 -47.5q5 -4 12.5 -9.5t16 -11.5t17 -11.5t14.5 -9.5l-17 -24q-7 -16 -16.5 -33.5
t-18.5 -34.5q-138 56 -263 145.5t-237 214.5q10 10 18 17.5t12 12.5q11 13 28.5 31.5t30.5 30.5q26 -34 48 -63.5t43 -52.5z" />
    <glyph glyph-name="zero" unicode="0" horiz-adv-x="988" 
d="M812 346q18 27 31.5 42.5t32.5 15.5q32 -13 32 -53q0 -29 -12 -66.5t-35 -76.5t-56 -76.5t-75 -66.5t-92.5 -47t-107.5 -18q-88 0 -149 31t-100 77t-58.5 99t-23.5 98q0 35 4 65t13 52.5t24 35t38 12.5q16 0 27.5 -7t20.5 -19.5t16 -29.5t14 -36q1 -2 1.5 -6t2.5 -6
q12 -28 26 -56.5t36.5 -52t56.5 -38.5t86 -15t91 14.5t68.5 36t50.5 46.5t38 46zM277 578l16 9q-13 -22 -27 -39t-31 -17q-20 10 -27 20t-7 27q0 31 12.5 69.5t36 78t57 77t76 66.5t93 47t107.5 18q86 0 146 -29t98 -73.5t57.5 -98.5t24.5 -104q0 -37 -4 -67.5t-13 -52.5
t-24 -34t-38 -12q-16 0 -28.5 8t-22 21.5t-16.5 30.5t-12 35q-11 24 -26.5 54t-39 56t-57 44t-80.5 18q-52 0 -92 -14.5t-70.5 -36.5t-52 -46.5t-37.5 -44.5l4 11z" />
    <glyph glyph-name="dollar" unicode="$" 
d="M-1349 1121q0 -51 -60 -61l-6 -9l-30 12l2 10q-50 61 -121 153t-157 207q8 11 18.5 26.5t17.5 25.5q7 9 16 23.5t16 25.5h45q22 -46 50 -95.5t65 -104.5q73 253 213 411q173 195 407 195q66 0 145.5 -25t177.5 -76v32v12q0 4 0.5 11.5t1 21.5t1.5 36t2 55q6 -1 14.5 -3
t17.5 -4t16.5 -3.5l12.5 -2.5q25 -5 55 -10.5t57 -10.5v-211q-5 -269 109.5 -422.5t344.5 -194.5l-18 -81q-138 1 -247 56t-187 151t-123 228t-55 288l-733 -424q-2 10 -7.5 28t-7.5 24q-2 7 -5.5 21.5t-5.5 22.5l512 303q-29 6 -52.5 8.5t-41.5 2.5q-91 0 -172.5 -43
t-151.5 -125q-40 -48 -89 -129t-104 -192q-18 9 -30 15.5t-20 11.5q-4 2 -10.5 5.5t-23.5 13.5q30 -45 64.5 -93.5t76.5 -101.5v-14z" />
    <glyph glyph-name="ucircumflex" unicode="&#xfb;" horiz-adv-x="1504" 
d="M826 1809q-1 0 -1 -1q0 1 1 1zM785 1801q1 2 1 4zM809 1807q9 0 13 1l-18 48l-17 -49q2 -1 4.5 -0.5t6.5 0.5h11zM804 1359q111 0 165 27.5t56 80.5q0 22 -19 39.5t-50.5 29.5t-71.5 18.5t-82 6.5t-80.5 -6.5t-68.5 -19.5t-49 -31t-23 -40q0 -22 16 -41t44.5 -33.5
t70 -22.5t92.5 -8zM765 2068q17 21 39.5 19.5t37.5 -24.5l99 -282q10 -32 -4 -51t-34 -28q70 -9 120.5 -31.5t83 -53.5t48 -70t15.5 -81t-25 -80t-67 -70q91 44 159 129.5t96 225.5l123 10q1 -141 -44 -258t-130 -200.5t-207 -130t-273 -46.5q-149 0 -269 45.5t-205 129
t-131.5 200.5t-48.5 260l125 -10q27 -138 92 -222.5t153 -128.5q-38 30 -60 67t-22 79q0 41 15 79.5t47.5 70t82.5 54t120 32.5q-12 5 -21 11t-14 15t-5.5 21.5t5.5 31.5zM1420 -1738q0 85 -4.5 160t-18.5 140.5t-42 121.5t-74 103q-68 60 -165 100t-215 40
q-223 0 -331.5 -110.5t-108.5 -314.5q0 -29 13 -87t36 -146q-464 118 -464 566q0 106 19 194t52.5 162.5t81 139t104.5 123.5t122 114.5t134 113.5q17 14 34.5 28.5t34.5 28.5q26 22 55 46.5t54 44.5q85 69 162 136.5t135 139.5t92 151.5t34 174.5v22q0 48 -20.5 89
t-64.5 72t-112 48.5t-163 17.5q-74 0 -132 -18.5t-98.5 -52.5t-62 -82t-21.5 -106q0 -65 35 -161l-67 -43q-81 62 -131 125t-77.5 132.5t-37 148.5t-9.5 174h102q0 -61 3 -108t10.5 -85t19.5 -70.5t30 -63.5v11q0 107 29 191t84.5 141.5t137 88t185.5 30.5q113 0 204 -40.5
t155.5 -106t99.5 -149t35 -169.5q0 -111 -29 -214.5t-80.5 -198.5t-122 -180t-153.5 -158q-4 -4 -8 -6q-16 -11 -55 -38t-100.5 -76t-145.5 -121t-190 -171q-65 -60 -111 -124t-76 -128t-44 -126t-14 -119q0 -54 11.5 -103.5t34.5 -93.5q19 -43 52.5 -77t82.5 -64
q-2 29 -3 50.5t-1 34.5q0 282 155 445h-1q153 162 427 162q146 0 265.5 -63.5t209.5 -186.5q42 -59 66.5 -119.5t37 -123t16.5 -129t4 -137.5v-141h-102z" />
    <glyph glyph-name="comma" unicode="," horiz-adv-x="905" 
d="M724 -727q-53 430 -160.5 777t-272.5 625q-15 -25 -34 -51q-5 -8 -11.5 -18.5t-13.5 -21.5t-13.5 -20.5t-10.5 -15.5q-14 17 -23 28t-15.5 20t-12 17t-12.5 18q19 56 38 113t36 110q17 48 35 102.5t34 105.5h50q110 -176 193.5 -380t140.5 -445q36 -157 71.5 -376
t69.5 -513z" />
    <glyph glyph-name="period" unicode="." horiz-adv-x="1303" 
d="M1113 -711q-19 206 -50.5 394t-77 360t-105 329.5t-134.5 303.5q-3 -5 -7 -11.5t-8 -12.5q-11 -19 -26.5 -43t-26.5 -39q-18 6 -29.5 11t-19 11t-14 14t-13.5 20q20 54 42.5 110t42.5 109q10 26 22.5 58t25.5 65.5t25.5 66.5t23.5 60q237 -411 321 -872
q26 -137 52 -356.5t53 -532.5zM771 -727q-64 429 -177 779t-269 607q-5 -8 -9 -14.5t-10 -15.5l-14 -21t-16.5 -25t-16.5 -24.5t-14 -19.5q-6 8 -18.5 21.5t-17.5 18.5q-4 5 -13 15t-20 24q21 61 43 125t42 123q15 42 32 90t31 93h48q115 -174 200 -376.5t144 -441.5
q43 -175 77.5 -393t63.5 -490z" />
    <glyph glyph-name="oacute" unicode="&#xf3;" horiz-adv-x="738" 
d="M337 173q82 109 82 199q0 3 -0.5 8t-1.5 14q-19 -8 -39 -8q-66 6 -102 33.5t-41 84.5q7 144 163 144q62 0 115 -92q12 -29 18.5 -61t2.5 -70v1q-7 -109 -48.5 -184.5t-120.5 -118.5z" />
    <glyph glyph-name="ocircumflex" unicode="&#xf4;" horiz-adv-x="740" 
d="M384 327q-149 0 -149 156q0 31 11.5 57.5t31.5 46t47 30t59 10.5q58 0 101 -43q44 -46 44 -101q0 -33 -10.5 -61.5t-29 -49.5t-45.5 -33t-60 -12z" />
    <glyph glyph-name="parenleft" unicode="(" 
d="M-212 1059q-96 1 -186.5 19t-172 49.5t-153 75t-128.5 96.5q-112 115 -180.5 273.5t-88.5 362.5q14 -4 30.5 -8t33 -8.5t31 -9t25.5 -7.5q9 -3 24.5 -7.5t26.5 -8.5q159 -691 770 -745z" />
    <glyph glyph-name="parenright" unicode=")" 
d="M-569 1735q-169 0 -431 -286l602 258q-85 28 -171 28zM-1053 1134q-3 -41 -35 -61q26 -24 13.5 -26t-66.5 12l1 7q-109 93 -196.5 180.5t-160.5 172.5q11 13 28 30.5t27 28.5q5 5 12 12.5t14.5 15.5t14.5 15l12 12q7 -11 27.5 -37t44.5 -56t46 -58.5t34 -42.5
q3 -3 4.5 -6t3.5 -5q47 -57 88 -100t82 -77zM-969 1360q-5 9 -11.5 23.5t-9.5 20.5l-19 36q-31 -34 -62 -71.5t-65 -79.5q-5 3 -15.5 10t-14.5 9q-8 5 -22.5 14.5t-25.5 15.5q322 585 751 585q116 0 211.5 -44t177.5 -136v-41z" />
    <glyph glyph-name="brokenbar" unicode="&#xa6;" horiz-adv-x="870" 
d="M471 -265q-118 132 -175 289t-57 345q0 135 29 254t83 219q58 100 147 184.5t208 149.5v-96q-98 -62 -156.5 -154.5t-83.5 -228.5v1q-14 -79 -21.5 -154t-7.5 -153q0 -206 37.5 -362t103.5 -252v1q22 -29 54.5 -61t73.5 -62v-95q-80 47 -139 90t-96 85z" />
    <glyph glyph-name="section" unicode="&#xa7;" horiz-adv-x="905" 
d="M239 -343q270 170 270 690q0 422 -142 614q-25 35 -57 64.5t-71 58.5v93q78 -45 136.5 -88.5t96.5 -82.5q118 -127 176 -285.5t58 -351.5q0 -134 -29.5 -253.5t-83.5 -222.5q-115 -203 -354 -331v95z" />
    <glyph glyph-name="degree" unicode="&#xb0;" 
d="M0 1989q-13 0 -22.5 -3.5t-18.5 -12.5q-15 -14 -15 -40t15 -41v1q15 -15 41 -15t41 15v-1q15 15 15 41t-15 40q-9 9 -18.5 12.5t-22.5 3.5zM0 2077q61 0 102 -42q42 -41 42 -102q0 -62 -42 -102q-40 -41 -102 -41t-102 41q-42 40 -42 102q0 61 42 102q40 42 102 42z" />
    <glyph glyph-name="Scaron" unicode="&#x160;" horiz-adv-x="1323" 
d="M1046 686q2 -2 8 -4q-2 2 -4 2.5t-4 1.5zM1069 706q1 -5 3 -12q2 7 -3 12zM1082 494q0 -35 -1 -66.5t-4 -52.5q1 -29 -4 -62.5t-18.5 -69t-35 -70.5t-51.5 -66q-65 -61 -152.5 -84t-190.5 -23q-363 0 -442 306q14 11 24.5 19.5t15.5 10.5q7 4 20.5 13t38.5 23
q73 -129 326 -129q15 -1 29 -1h28q179 0 236 57q66 64 66 272v4q-8 120 -21.5 193.5t-29.5 115.5q-5 14 2 29.5t24 15.5q79 0 135.5 -26.5t93 -87t53.5 -158.5t17 -240v-417h-107v275q0 91 -2 157.5t-8 113t-18 75.5t-31 46q3 -31 5 -78t2 -95zM-279 -1138q35 141 56.5 314
t32.5 373q-15 -94 -42 -176t-67 -163h1q-17 -43 -40 -92.5t-49 -104.5q-27 -56 -51.5 -106.5t-47.5 -98.5q-51 -86 -91 -203q-11 -31 -11 -54q0 -48 54 -70q79 -1 141.5 99.5t113.5 281.5zM-75 -11v-167q0 -265 -3 -487q-2 -119 -16.5 -245.5t-41.5 -265.5
q-54 -258 -148 -425q-89 -153 -257 -153q-25 0 -49 3q-75 4 -114 52.5t-38 143.5q1 179 135 407q2 3 6.5 11.5t12.5 22.5q9 17 21.5 40.5t29.5 53.5q4 8 9 16.5t10 18.5q11 20 23 42t26 46q20 37 36.5 70t29.5 62q58 107 93.5 231.5t47.5 268.5q15 -5 38 -11t40 -11
q1 51 1.5 102t0.5 95v79h107z" />
    <glyph glyph-name="glyph169" horiz-adv-x="943" 
d="M526 308q27 0 50.5 -12.5t41 -33.5t27 -49.5t9.5 -60.5q0 -31 -9.5 -59.5t-27 -50t-41 -34t-50.5 -12.5t-51 12.5t-41 34t-27 50t-10 59.5q0 32 10 60.5t27 49.5t41 33.5t51 12.5zM467 356q1 124 9 205t21.5 136.5t31.5 95.5t41 81q7 13 15.5 28.5t16.5 31.5
q17 34 34.5 63t34.5 56q19 31 37.5 61.5t32.5 63.5t22.5 70.5t8.5 82.5q0 21 -10 49t-36 53.5t-71.5 43.5t-116.5 18q-55 0 -97.5 -16.5t-72 -44t-44.5 -63.5t-15 -74q0 -23 9.5 -52t26.5 -62q-17 -10 -32 -16t-26 -11l1 1q-8 -4 -19.5 -10t-25.5 -14q-29 63 -43 121.5
t-14 113.5q0 84 26 162t72.5 138.5t111 96.5t141.5 36q121 0 197 -35.5t118.5 -98.5t57.5 -148.5t15 -184.5q0 -95 -33 -191q-14 -38 -40.5 -75.5t-58.5 -82.5q-10 -14 -21 -28t-22 -30q-43 -59 -73.5 -113t-50 -113.5t-29 -130t-9.5 -162.5v-54z" />
    <glyph glyph-name="J" unicode="J" horiz-adv-x="1405" 
d="M284 478l499 496l494 -496l-494 -497z" />
    <glyph glyph-name="B" unicode="B" horiz-adv-x="1300" 
d="M1005 684l214 -216l-214 -215l-216 215zM944 193l-215 -216l-216 216l216 214zM453 253l-216 215l216 216l215 -216zM513 744l216 215l217 -215l-217 -216z" />
    <glyph glyph-name="quotedblright" unicode="&#x201d;" horiz-adv-x="905" 
d="M453 645q-8 -3 -16.5 -5.5t-13.5 -4.5q-95 2 -95 121q0 49 31 91l-1 -1q29 49 77 49q62 0 104 -78q14 -31 22 -63.5t8 -69.5q0 -115 -49.5 -195.5t-160.5 -135.5v95q97 81 101 173zM710 632q-89 33 -89 128q0 135 106 135q133 0 133 -215q0 -222 -211 -324v92
q100 84 100 175v9t-2 14z" />
    <glyph glyph-name="percent" unicode="%" 
d="M-124 1266q-11 66 -26.5 128.5t-34.5 113.5q-26 67 -61 122.5t-74 79.5q-21 -9 -44.5 -21t-50.5 -26q-6 4 -15 11t-11 9q-5 4 -14.5 11.5t-18.5 15.5q41 64 81.5 119t75.5 90h53q112 -111 169.5 -262.5t59.5 -348.5zM-1354 1043q-5 6 -16 21t-16 21q-64 84 -132.5 171.5
t-134.5 170.5q5 9 13 22.5t13 21.5q8 12 17.5 29.5t18.5 29.5h42q20 -36 51 -85t73 -111q41 122 94.5 224t118.5 180q172 195 401 195q144 0 373 -125l-781 -448q0 3 -1.5 9.5t-3 13.5t-3 13t-2.5 8q-5 14 -7.5 25t-5.5 27l511 299q-31 6 -56 9t-39 3q-90 0 -171.5 -43
t-153.5 -124q-43 -51 -91.5 -130t-101.5 -189q-10 5 -26 15t-23 13q-4 2 -11 6.5t-15 9.5q30 -45 65 -95l77 -110z" />
    <glyph glyph-name="minus" unicode="&#xad;" horiz-adv-x="1259" 
d="M864 0l-236 329q-61 -81 -123.5 -164.5t-122.5 -164.5h-222l358 479q-36 50 -75.5 105t-80 111t-80 110.5t-74.5 104.5h218l205 -280q51 69 105 140.5t105 139.5h215l-318 -429q40 -56 84.5 -117.5t89.5 -124.5t89 -124t83 -115h-220z" />
    <glyph glyph-name="ampersand" unicode="&#x26;" 
d="M-115 1163q-45 402 -195 477q-10 -24 -21 -48.5t-19 -47.5l-84 -25q-1 107 -5 198.5t-12 169.5q415 -54 421 -701zM-867 1154q258 127 258 277q0 249 -291 249q-295 0 -295 -224q0 -54 16 -104.5t47 -79.5q26 -23 54 -39.5t57 -32.5q17 -10 42 -24.5t41 -24.5l-51 -92
q-69 28 -137 64t-132 80t-121 97t-104 116l87 92q20 -29 42 -55t43 -48q4 -4 4 -5l4 -4t4 -5q-11 45 -15 83.5t-4 62.5q0 90 29 160t83 119t130 74.5t170 25.5q100 0 179 -29.5t134 -85t84 -135.5t29 -180q0 -265 -318 -422z" />
    <glyph glyph-name="quotedblbase" unicode="&#x201e;" horiz-adv-x="835" 
d="M485 800l-117 -430q-3 -11 -3 -12q4 -2 6.5 -4t6.5 -4q2 -2 5 -2.5t5 -2.5l-3 1l18 -6t32 -10h-1q19 -5 30.5 -7.5t17.5 -2.5q16 0 50 8q15 5 28.5 8.5t21.5 7.5q8 2 15.5 6t5.5 9zM418 1131q13 22 31 32t36 10q19 0 35.5 -10t27.5 -31l223 -772q10 -29 10 -57
q0 -21 -7 -39.5t-19 -32.5q-17 -20 -37 -34t-41 -20q-43 -20 -93.5 -28.5t-96.5 -9.5q-51 0 -102 7.5t-100 30.5h-1q-2 1 -6.5 3t-6.5 4q-19 9 -38 20.5t-30 29.5q-8 13 -12.5 27t-4.5 34q0 25 10 64z" />
    <glyph glyph-name="quotesingle" unicode="'" horiz-adv-x="547" 
d="M370 321l-86 21q19 19 33.5 38t24.5 33q5 6 16.5 19.5t25.5 27.5l1 -11q39 58 39 120q0 9 -3 24q-2 -2 -3 -2q-7 -2 -16.5 -5t-14.5 -5q-37 12 -55.5 44t-18.5 82q0 136 93 136q61 0 91 -81q12 -31 18.5 -63.5t6.5 -70.5q0 -205 -138 -302q1 -3 1 -9l-10 2l-4 -2z" />
    <glyph glyph-name="bullet" unicode="&#x2022;" horiz-adv-x="607" 
d="M354 545q-128 0 -128 134q0 27 9.5 50t27 39.5t41 26t50.5 9.5q52 0 87 -38q38 -40 38 -87q0 -59 -34 -96.5t-91 -37.5zM354 105q-128 0 -128 134q0 27 9.5 50t27 39.5t41 26t50.5 9.5q52 0 87 -38q38 -38 38 -87q0 -59 -34 -96.5t-91 -37.5zM208 368q-14 0 -25 10.5
t-11 25.5l6 88v-1q0 15 11 25.5t25 10.5l316 1q15 0 25.5 -11t10.5 -26l-5 -87q-1 -15 -11.5 -25t-24.5 -10z" />
    <glyph glyph-name="hyphen" unicode="-" horiz-adv-x="1063" 
d="M194 338l-4 168l805 3l4 -169z" />
    <glyph glyph-name="perthousand" unicode="&#x2030;" 
d="M-773 1895l1 2l-2 -3zM-737 1901q0 -4 3 -7zM-755 1909q10 0 17 -5l-16 35l-15 -34q8 4 14 4zM-755 1654q76 0 115.5 16t41.5 44q0 11 -13.5 20t-35 15.5t-50 10t-58.5 3.5q-31 0 -59 -3.5t-49.5 -10.5t-34 -17t-12.5 -23q0 -23 41 -39t114 -16zM-689 1023
q290 90 290 169q0 144 -308 144q-320 0 -320 -132q0 -42 69.5 -85.5t218.5 -97.5l-87 -72q-137 30 -267.5 89t-269.5 148l109 52q14 -8 38.5 -23.5t53.5 -32.5q-6 23 -10 40t-4 26q0 48 13 86.5t42 68t77 49.5t118 32q-71 18 -128 51.5t-96.5 80.5t-61.5 106t-23 127l98 -9
q17 -65 50.5 -109t80.5 -71q-9 12 -14.5 26t-5.5 28q0 23 10 45.5t31.5 41.5t55 33.5t80.5 21.5q-14 12 -14 26q0 8 5 20v-1l73 164q11 19 31 19t31 -19l72 -164v1q2 -5 3.5 -9.5t1.5 -9.5q0 -16 -11 -27q91 -14 133.5 -53t42.5 -89q0 -28 -21 -52q47 28 80 71t50 107l98 9
q0 -133 -76.5 -227.5t-215.5 -134.5q58 -8 111.5 -23.5t85.5 -38.5q54 -38 79 -88t26 -107q0 -179 -341 -281z" />
    <glyph glyph-name="quotesinglbase" unicode="&#x201a;" horiz-adv-x="1586" 
d="M1513 776q0 -141 -45.5 -258t-130 -200.5t-206 -130t-273.5 -46.5q-149 0 -269 45.5t-205 129t-131.5 200.5t-48.5 260l126 -9q23 -119 75 -197.5t122.5 -126t155.5 -67t175 -19.5t175.5 19.5t156.5 67t123.5 126t75.5 197.5z" />
    <glyph glyph-name="ntilde" unicode="&#xf1;" 
d="M347 -1107q-32 0 -66 5t-72 15l-29 143q64 -23 118.5 -33.5t99.5 -10.5q122 0 198 79q77 78 77 203q0 64 -26 108.5t-77 85.5h1q-99 78 -233 78q-169 0 -274.5 -41t-152.5 -116q-11 -27 -22.5 -63t-22.5 -74q-14 -44 -29.5 -94t-37.5 -100q-18 -40 -43 -73t-64 -57.5
t-94 -39t-131 -16.5q-12 0 -26 6.5t-14 26.5q0 5 2.5 12t7.5 12q97 94 143 181t46 175q0 122 -49 192v-1q-57 82 -168 82q-74 0 -135.5 -40.5t-109.5 -124.5h-36q-17 30 -34.5 58t-38 49.5t-46.5 35t-60 13.5q-268 0 -268 -272q0 -80 41 -163.5t116 -184.5q4 -6 7 -13t3 -13
q0 -30 -38 -30q-83 0 -147.5 14.5t-108 57t-66 119t-22.5 200.5q0 23 1 56t3 75q2 30 3.5 64t3.5 65v11q0 47 -24 47h-6q-15 -1 -25 -10t-15.5 -23.5t-7.5 -33t-2 -38.5q0 -10 3.5 -40t8.5 -82l-92 -10q-14 51 -21 97.5t-7 88.5q0 45 11.5 88.5t33.5 81.5q26 42 60.5 65
t77.5 23q19 0 40.5 -7.5t39.5 -21.5t29.5 -33t11.5 -42q0 -34 -5 -83t-14 -115q-10 -67 -15 -114.5t-5 -79.5q0 -85 13.5 -135.5t47.5 -82.5q-11 32 -18 59t-11 52t-5 48.5t-1 48.5q0 512 358 512q49 0 84 -15t60.5 -41t42 -62t27.5 -78q16 42 38.5 78.5t56.5 63t81.5 42
t115.5 16.5q141 0 222 -145q69 -123 69 -269q0 -38 -0.5 -70.5t-4.5 -63t-11.5 -61.5t-20.5 -66q32 54 54 125.5t44 152.5q13 51 30.5 94t37.5 79q118 220 370 220q272 0 408.5 -131.5t136.5 -412.5q0 -181 -133 -284q-121 -94 -299 -94z" />
    <glyph glyph-name="ydieresis" unicode="&#xff;" horiz-adv-x="960" 
 />
    <glyph glyph-name="odieresis" unicode="&#xf6;" horiz-adv-x="1910" 
d="M1094 1762q-1 0 -2 -1q1 0 1 0.5t1 0.5zM1091 1755q0 -2 2 -4zM1612 683q6 -4 8 -4l-4 2zM1636 701q0 -5 2 -15q4 8 -2 15zM1077 1760q8 0 12 1l-16 43l-15 -44h9h10zM1413 262q63 35 92 109q-16 4 -31 7.5t-31 6.5q-8 -29 -16.5 -62.5t-13.5 -60.5zM1642 468
q14 -8 29.5 -16t29.5 -17q-5 98 -18.5 152t-43.5 79q2 -29 2.5 -75t0.5 -121v-2zM1074 1330q106 0 157.5 26.5t53.5 76.5v-1q0 21 -18 38t-48 29t-68.5 18t-79.5 6t-78 -6t-65.5 -18t-46.5 -29.5t-21 -39.5q0 -43 57.5 -71.5t156.5 -28.5zM1035 2008q16 22 38 21t38 -24
l94 -270q10 -29 -1.5 -48t-30.5 -27q66 -10 114 -32t78.5 -52t45 -67t14.5 -77q0 -39 -21.5 -74t-59.5 -64q85 42 147.5 123t88.5 213l120 9q0 -136 -43.5 -248.5t-125 -193t-198 -125t-262.5 -44.5q-143 0 -258.5 44t-197 124t-126.5 192.5t-47 250.5l122 -9
q13 -65 35 -117t51 -93t65.5 -71.5t77.5 -51.5q-35 28 -54.5 62t-19.5 73t14.5 75.5t45 67t78.5 53t115 32.5q-22 9 -32 26t1 50zM1142 611q-176 291 -429 291q-196 0 -299 -126q-48 -58 -71.5 -138t-23.5 -183q0 -113 65 -170.5t200 -57.5q11 0 30.5 0.5t43 2.5t47.5 6
t44 12t32.5 19.5t12.5 29.5q0 28 -20.5 46t-52 28t-68.5 13.5t-70 3.5q-8 0 -19.5 -0.5l-23 -1t-21.5 -1.5t-16 -1l14 108q16 2 37.5 3.5t32.5 2.5t18 1t18 2q136 12 136 69q0 34 -21.5 59.5t-61.5 25.5q-21 0 -42.5 -9t-42 -24t-40.5 -35t-39 -42l-68 48q16 42 36.5 83
t48 74t64.5 53t87 20q42 0 80 -11t66.5 -33.5t45 -57t16.5 -82.5q0 -26 -2 -52t-9.5 -50t-23.5 -45t-44 -37q45 -19 75 -62t30 -111q0 -9 -0.5 -17t-0.5 -16l39 74q41 -33 74 -52.5t61.5 -30t54.5 -13.5t55 -3h27t29 1q94 1 154 33h-76q-18 129 -18 309q55 -5 110 -17.5
t109 -32.5q1 12 1 25v26v3q-8 122 -21.5 200t-30.5 120q-5 17 1.5 31t26.5 14q78 0 134 -28t92 -90.5t53 -162t18 -243.5v-48q55 -43 103.5 -91t88.5 -102l-129 -1q-16 13 -31 25t-31 24l2 -219h-103q0 28 -0.5 61.5t-1 69t-0.5 71v67.5v18q-17 11 -35 20t-37 17
q-12 -76 -40 -136t-77.5 -102t-124 -64t-177.5 -22q-64 0 -112 22.5t-84 57t-61.5 75.5t-44.5 78q-6 -65 -27.5 -109t-60 -71.5t-94 -39.5t-127.5 -12q-114 0 -189.5 41.5t-121 109t-64.5 153t-19 173.5q0 235 127 382q134 152 367 152q322 0 534 -372z" />
    <glyph glyph-name="otilde" unicode="&#xf5;" horiz-adv-x="2575" 
d="M1149 611q-176 291 -429 291q-196 0 -299 -126q-48 -58 -71.5 -138t-23.5 -183q0 -113 65 -170.5t199 -57.5q11 0 31 0.5t43 2.5t47.5 6t44 12t32 19.5t12.5 29.5q0 28 -20.5 46t-51.5 28t-68.5 13.5t-70.5 3.5q-8 0 -19 -0.5t-22.5 -1t-21.5 -1.5t-16 -1l14 108
q16 2 37.5 3.5t32.5 2.5t18 1t18 2q135 12 135 69q0 34 -21 59.5t-61 25.5q-22 0 -43 -9t-42 -24t-40.5 -35t-38.5 -42l-68 48q16 42 36 83t47.5 74t64.5 53t88 20q42 0 79.5 -11t66 -33.5t45.5 -57t17 -82.5q0 -26 -2 -52.5t-10.5 -51t-25 -46t-45.5 -36.5q44 -23 75.5 -69
t33.5 -101q3 -79 -15.5 -133t-58.5 -87t-99.5 -47.5t-138.5 -14.5q-114 0 -189.5 41.5t-121 109t-64.5 153t-19 173.5q0 235 127 382q134 152 367 152q322 0 534 -372zM1023 402q10 -38 28.5 -69.5t45.5 -53.5t64 -34t86 -12q17 -2 34 -3t34 -1q34 0 68 5t68 13
q60 18 99 112q-24 8 -49 14.5t-51 11.5q-8 -29 -16.5 -64.5t-13.5 -62.5h-83q-8 65 -12.5 142t-4.5 167q67 -6 134.5 -24t133.5 -47q13 119 36 203t70 137.5t126.5 78t205.5 24.5q214 0 338 -122q130 -132 124 -385q2 -91 -20.5 -171t-70.5 -137q-51 -60 -115 -93t-149 -33
q-25 0 -59 9.5t-67 20.5v136q109 -43 143 -43q112 0 183 92q35 45 51 99.5t16 124.5q0 68 -32 121.5t-102 88.5q-53 28 -112 41t-125 13q-71 0 -130.5 -11t-104.5 -42q-21 -14 -36 -32.5t-26 -43t-20 -57t-16 -73.5q91 -53 170 -121.5t139 -149.5l-130 -1q-47 40 -94.5 73.5
t-99.5 60.5q-23 -128 -74 -199q-41 -50 -126.5 -77t-216.5 -26q-52 0 -92.5 8t-71.5 23q-29 16 -55.5 40.5t-50.5 56.5q-49 64 -73 256z" />
    <glyph glyph-name="Eth" unicode="&#xd0;" 
d="M-1195 -941q0 -23 15 -23q39 0 45 151q-60 -60 -60 -128zM-482 -899q-70 58 -166 92t-215 45q133 -219 306 -219q84 0 92 38q-2 7 -3 9.5t-2 4.5q-2 5 -3 10.5t-3 11.5zM-187 -1100q5 23 6.5 41t0.5 32q-1 12 -1 29.5v36.5v155q0 18 -0.5 35t-0.5 33q1 189 -89 269
q-75 70 -265 70q-103 0 -164.5 -3.5t-86.5 -10.5h1q-40 -12 -71 -44t-52 -81q106 -8 200.5 -32.5t172.5 -61.5q105 -53 161.5 -123t56.5 -155q0 -182 -243 -182q-293 0 -442 325h-6h-10t-12 -1q-4 -170 -51 -251t-135 -81q-107 0 -107 144q0 63 14 114t40 89
q16 24 33.5 50.5t33.5 49.5l75 63v49q0 160 -94 160q-31 0 -49.5 -70t-29.5 -215h-10t-13 -0.5t-12.5 -0.5h-8.5q-5 0 -13 -0.5t-34 -3.5q13 255 59 376t130 119q86 2 130 -88t48 -285h6q17 100 54 175t85 118q49 38 120.5 59.5t162.5 21.5h19t19 -1q10 1 20.5 1h19.5
q106 0 185.5 -23t133.5 -67q60 -54 92.5 -143.5t32.5 -210.5v-481h-112z" />
    <glyph glyph-name="Ntilde" unicode="&#xd1;" 
d="M-182 -1100q-8 37 -26 70.5t-44 63t-58.5 54t-68.5 42.5q-69 29 -147.5 45t-162.5 16q-258 0 -342 -227q-75 5 -135.5 32t-103.5 78q-86 101 -86 254q0 262 243 403q96 54 213.5 86t266.5 42q3 -9 7 -24t6 -22q1 -4 3.5 -11t5 -15t4.5 -16t4 -12q-646 -63 -646 -425
q0 -38 10.5 -78t27.5 -75q20 -35 49 -60.5t66 -36.5q34 87 74.5 149.5t86.5 101.5q109 90 281 90q245 0 396 -139q153 -135 183 -386h-107z" />
    <glyph glyph-name="Ograve" unicode="&#xd2;" 
d="M-1168 -1100q-61 0 -105.5 29.5t-73.5 81t-43 121t-14 149.5q0 120 47.5 258t147.5 291l76 -63q-66 -123 -104.5 -220.5t-38.5 -164.5q0 -33 2.5 -69.5t18.5 -75.5q22 -48 47 -73t52 -25q36 0 60.5 10t42 26t29 35.5t21.5 39.5q12 23 24.5 44.5t30 38t43 26.5t62.5 10
q28 0 50 -10t40 -26.5t34 -38t31 -43.5h-1q14 -21 29 -41t32 -36t37.5 -26t46.5 -10q48 0 77.5 12.5t45.5 37t21.5 60.5t5.5 84q0 128 -56.5 192.5t-172.5 64.5h-11q-9 1 -26 0t-58 -8q103 243 286 243q91 0 162 -44t118 -117q36 -66 56.5 -155t20.5 -186v-422h-107v318
q0 51 -9 112t-31 117t-59 99t-93 59q32 -33 52.5 -71.5t32 -77.5t15.5 -77t4 -69q0 -410 -263 -410q-34 0 -60.5 12t-49 31.5t-41 44.5t-36.5 51q-14 20 -27.5 38.5t-28 33.5t-31 24t-35.5 10q-25 0 -42.5 -8t-30 -21.5t-21.5 -30.5t-18 -36q-12 -27 -27 -53.5t-38 -47.5
t-59 -34.5t-90 -13.5z" />
    <glyph glyph-name="Oacute" unicode="&#xd3;" 
d="M-182 -1099l3 364q2 168 -75 251.5t-248 83.5q-57 0 -109 -5t-93 -15t-67.5 -24.5t-31.5 -33.5q3 -35 24.5 -44t53.5 -9h19t19 1q11 1 23 1h23q58 1 100.5 -19t70 -57t40.5 -87.5t13 -109.5q0 -81 -32.5 -138t-88.5 -92.5t-132.5 -51.5t-164.5 -16q-80 0 -144 29.5
t-109 79.5t-69.5 116.5t-25.5 140.5q-1 35 2.5 74t8.5 79q5 35 7.5 68t2.5 61q0 36 -7.5 58.5t-30.5 22.5q-53 0 -53 -138q0 -12 3 -36.5t8 -62.5l-95 -9q-10 42 -15.5 78t-5.5 65q0 152 49 224t149 74q34 0 56.5 -15t36 -41.5t18.5 -61.5t5 -75q0 -51 -6 -105t-12 -101
q-5 -33 -8 -61.5t-3 -44.5q0 -55 22 -91.5t58 -58.5t83.5 -31t98.5 -9q13 0 37.5 0.5t54.5 3t61 7t56.5 12t41.5 18.5t16 26q0 31 -11 47.5t-29 24.5t-41.5 9.5t-49.5 2.5h-20.5t-20.5 1h1q-71 3 -112 20t-62 45.5t-26.5 67.5t-5.5 85q0 81 20.5 141.5t68 101.5t125 61.5
t192.5 20.5h32q200 -5 304 -111t104 -328v-484h-107z" />
    <glyph glyph-name="Ocircumflex" unicode="&#xd4;" 
d="M-75 -11l-2 -955q0 -125 -14 -229t-40 -188q45 -62 96 -134.5t102 -148.5q-8 -16 -20 -39t-36 -60q-57 69 -107 128.5t-97 113.5q-8 -12 -16 -23.5t-17 -22.5h1q-36 -45 -88 -78.5t-116.5 -56t-140 -34t-159.5 -12.5q-20 -2 -42.5 -2.5t-41.5 -0.5q-232 0 -422 105
q-232 128 -233 514q2 84 21.5 153.5t54.5 126.5q35 54 87 103t118 91q48 27 100 52.5t109 48.5q58 23 140.5 61t191.5 92q56 26 101 56.5t78 66.5q12 12 24 27l84 -67q-9 -14 -17.5 -25t-15.5 -18q-43 -42 -85.5 -72.5t-84.5 -50.5q-47 -23 -96 -46.5t-96 -46.5l-170 -71
q-198 -89 -303.5 -199.5t-107.5 -233.5q9 -191 160 -296t443 -104q154 0 257 23.5t161 71.5q-89 96 -154 154t-105 81q-47 -25 -80.5 -51.5t-58.5 -56.5q-7 4 -17 9.5t-20.5 11t-19.5 10.5t-15 8q16 46 42 96t54 93.5t54.5 76.5t43.5 47q37 -20 79.5 -53t88 -77t94 -97.5
t97.5 -113.5q28 80 39.5 178.5t11.5 228.5l-1 835h106z" />
    <glyph glyph-name="Otilde" unicode="&#xd5;" 
d="M-554 -654q-63 -1 -70 -38q0 -8 3.5 -17.5t8.5 -20.5q3 -4 6.5 -9t8.5 -11v-1q9 -11 17.5 -19.5t17.5 -16.5q2 -1 5 -4q32 17 56.5 45t27.5 53q-9 37 -66 39h-7h-1h-7zM-554 -654q-38 -1 -54 -11.5t-16 -26.5q0 -2 -0.5 -4.5t-0.5 -4.5q0 -8 13 -29q18 -30 50 -57
q2 -2 3.5 -3t3.5 -3q83 42 83 87q0 9 -1 13v5q0 14 -15.5 23.5t-50.5 10.5h-7h-1h-7zM-330 -1002q-23 0 -51.5 2t-59 7.5t-62 15t-61.5 25.5q-53 -36 -105.5 -61.5t-108 -41t-116 -22t-129.5 -5.5q-159 3 -269 44t-178 114t-98.5 174.5t-30.5 226.5q0 34 6.5 91t17.5 140
h107q-17 -60 -25.5 -115.5t-8.5 -108.5q0 -81 25.5 -138.5t68.5 -96.5t101 -62t122.5 -35t132.5 -15.5t132 -3.5q67 0 123.5 7.5t109.5 20.5q-48 42 -74 90t-26 91q0 39 17 73.5t49.5 60.5t80 41t108.5 15q52 0 87.5 -11.5t58 -32t32.5 -47.5t10 -58q0 -54 -27 -112.5
t-69 -106.5q19 -3 31 -4t17 -1q192 0 285 126l84 -21q-93 -266 -307 -266z" />
    <glyph glyph-name="Odieresis" unicode="&#xd6;" 
d="M-430 -1119q0 2 -0.5 3.5t-0.5 3.5l-1 -1q-6 39 -12.5 72t-12.5 61q-5 17 -8.5 33t-8.5 31q-38 145 -87 201h-2q-6 -2 -12 -2q-16 -24 -45 -55h-1l-1 -1q-20 3 -34 9l-12.5 2.5t-30.5 5.5q3 6 7 15.5t8 20t8 20t7 15.5q1 1 1 1.5t1 1.5l26 64l47 112l42 16q8 -7 15 -13
t14 -13q36 -35 63.5 -73.5t46.5 -82.5q1 -1 3 -5q2 -5 3.5 -8t3.5 -8q1 -6 4 -11q2 -8 4.5 -15.5t4.5 -15.5q1 -2 1 -3t1 -2q1 -4 1.5 -7t1.5 -7q5 -18 9 -44t7 -59q5 -45 7.5 -101t4.5 -121l-74 -33q-8 44 -14 75t-12 57q-7 30 -12.5 53t-10.5 38q-18 57 -37 101.5
t-43 73.5q-2 0 -3 -1q-3 0 -6 -0.5t-7 -1.5q-9 -14 -18.5 -26t-26.5 -29l-41 10l-5 1l-12 2l-19 4l31 73q17 43 35.5 87.5t35.5 90.5q19 6 27 9t15 6q1 0 2 -1q16 -14 29 -26q36 -35 63.5 -73t46.5 -83q1 -1 3 -5q2 -5 3.5 -8t3.5 -8q1 -6 4 -11q2 -8 4.5 -15.5t4.5 -15.5
q1 -2 1 -3t1 -2q1 -5 2 -8.5t2 -7.5q9 -33 15 -101q5 -44 8 -99.5t6 -121.5l-2 -1v-4zM-884 -1094q-139 -3 -207.5 91t-68.5 283q0 44 6 131q3 44 3.5 76t0.5 53q0 59 -14 59q-44 0 -57 -48v-187l-85 -6q-12 65 -17.5 108.5t-5.5 67.5q0 139 53.5 213.5t156.5 74.5
q32 0 53 -11t33.5 -29.5t17.5 -44t5 -53.5q0 -40 -7 -80.5t-14 -73.5q-3 -16 -6 -30t-5 -25q-10 -69 -15 -120.5t-5 -85.5q0 -57 14.5 -104t54.5 -86q-20 70 -23.5 130.5t-3.5 120.5q0 211 114 346q122 146 334 146q497 0 497 -446v-476h-103v26t0.5 31l1 32t0.5 30v-1
q1 31 1.5 63t0.5 65q0 53 -3 105t-11 98.5t-23 84t-40 60.5q-45 42 -111.5 63.5t-166.5 21.5q-385 0 -385 -314q0 -68 37 -144t111 -156q7 -8 12.5 -16t5.5 -15.5t-9 -15t-31 -14.5z" />
    <glyph glyph-name="multiply" unicode="&#xd7;" horiz-adv-x="1368" 
d="M1126 706q8 -50 12 -112t4 -140q0 -288 -213 -407q6 -23 10 -56.5t5 -70.5q-5 0 -19 -0.5t-17 -0.5q-4 0 -9 -0.5t-22 -2.5l-42 98q-32 -5 -69.5 -7.5t-75.5 -2.5q-343 0 -477 358q8 7 19.5 15.5t16.5 13.5q2 2 5.5 4.5t14.5 7.5q84 -81 181 -121.5t212 -40.5h66
q-39 66 -80.5 121.5t-86.5 102.5l-10 -8t-9 -6q-11 -10 -29.5 -26.5t-32.5 -30.5q-18 14 -31 23.5t-27 18.5q33 64 69 118.5t77 102.5h37q38 -33 75 -83.5t70 -107.5q15 -26 43 -82.5t64 -134.5q191 24 191 234q0 84 -16 180t-50 210q-4 12 -4.5 22t10.5 31q11 7 20.5 10
t27.5 3q68 -2 118 -26t85 -72q29 -46 46.5 -104t17.5 -123v-607q-9 0 -22.5 -1t-27.5 -1.5t-26.5 -1.5t-18.5 -1v529q0 77 -19.5 123t-54.5 60z" />
    <glyph glyph-name="Oslash" unicode="&#xd8;" horiz-adv-x="1159" 
d="M533 412q-13 -3 -27 -22t-26 -52q-12 10 -30 24.5t-26 19.5q-4 3 -12.5 10.5t-12.5 10.5q26 51 61 106.5t80 117.5q70 -54 144 -154t155 -244q139 18 170 167q63 309 81 340h-1q109 198 464 198q115 0 210.5 -35t166.5 -100q68 -68 106.5 -163.5t38.5 -208.5
q0 -191 -107 -306v1q-111 -123 -297 -123q-9 0 -48.5 5t-108.5 14q-2 15 -5 36l-5 35q-1 4 -2.5 13t-3.5 19.5t-3.5 19.5t-2.5 14q54 -20 100 -29t79 -9q302 0 302 336q0 63 -44 110t-132 80q-127 47 -278 47q-143 0 -234.5 -32t-129.5 -90q-5 -9 -11 -34.5t-13.5 -63.5
t-16 -87t-17.5 -104q-14 -89 -54 -149t-114 -95q1 -2 2.5 -6t2.5 -7q4 -10 9.5 -28t10.5 -31l-15 -15q-11 -6 -26.5 -16t-23.5 -15l-60 88q-30 -3 -59 -4t-55 -1q-185 0 -323 96v-1q-144 98 -181 279q5 2 15.5 8t15.5 8h-1l11 5.5l14 7t13.5 6.5t10.5 5q50 -105 138 -151.5
t219 -46.5q11 0 25 0.5t26 1.5h6q-17 26 -36 53t-37 53v-1q-38 55 -90 88z" />
    <glyph glyph-name="Ugrave" unicode="&#xd9;" 
d="M-75 -11v-936q-1 -218 -39 -367.5t-119.5 -242t-209.5 -133.5t-309 -41q-279 0 -487 111q-228 118 -229 505q2 85 21.5 154t54.5 126q71 112 205 195q48 26 99 51.5t111 48.5q57 23 139 61t192 93q30 14 59.5 28.5t56 30t49 33t38.5 38.5l84 -67q-19 -27 -45 -49.5
t-53.5 -41t-55.5 -32.5t-50 -24h1q-90 -43 -179 -86t-179 -86q-206 -87 -309 -194t-106 -230q6 -198 156 -299t447 -101q391 0 470 157q82 161 82 511v787h105z" />
    <glyph glyph-name="Uacute" unicode="&#xda;" 
d="M-285 -1011q-30 -14 -62 -24.5t-74 -17.5t-97.5 -10.5t-133.5 -3.5q-51 0 -103 5.5t-99 16.5t-86 27t-66 38q-122 101 -122 256q0 201 168 291q17 6 94 35t216 83q81 32 142 84.5t96 124.5l87 -15q-60 -208 -195 -275q-26 -8 -70 -21t-95 -30.5t-103.5 -39.5t-94.5 -47.5
t-69.5 -54t-27.5 -58.5q5 -72 26.5 -101.5t67.5 -49.5q35 -15 94.5 -20.5t147.5 -9.5q23 -1 44.5 -1.5t40.5 -0.5q57 0 97.5 3.5t71 11t53 19t42.5 26.5q39 27 62 66t35.5 116.5t16.5 165t4 170.5q0 46 -0.5 89t-1.5 80q0 14 -0.5 37t-0.5 35h105v-641q0 -258 -209 -359h-1z
" />
    <glyph glyph-name="Ucircumflex" unicode="&#xdb;" 
d="M-684 -1786q-10 0 -19.5 0.5t-20.5 0.5q-55 1 -118 3t-126 11.5t-121 28.5t-102.5 53.5t-71 87.5t-26.5 130q0 238 418 238q15 0 29.5 -0.5t29.5 -0.5h58q23 0 47 0.5t48 3.5q26 2 51 5.5t51 7.5q21 4 42.5 15t43.5 32l83 -25q-48 -55 -112 -89.5t-129 -45.5
q-27 -5 -57 -6.5t-59 -1.5q-20 0 -39.5 0.5t-38.5 1.5q-17 1 -33 1h-32q-48 0 -89 -7t-76 -23q-87 -36 -90 -91q3 -8 22.5 -28.5t49 -35t67 -23.5t77.5 -14t80 -7t75 -2h79q154 0 252.5 22.5t157.5 68.5q28 22 47 48t31 74t17.5 107t5.5 125h107l-1 -302q0 -32 -16.5 -81
t-44.5 -91t-66 -75t-81 -52q-41 -18 -86.5 -30.5t-93.5 -20t-97 -10.5t-95 -3h-28z" />
    <glyph glyph-name="Yacute" unicode="&#xdd;" horiz-adv-x="257" 
d="M105 -1042q2 225 2.5 385t0.5 324q0 200 -0.5 395.5t-2.5 382.5q-2 247 114.5 370t362.5 123h37q246 0 398 -155q73 -75 114 -173.5t41 -221.5q0 -114 -38.5 -192t-119.5 -134q-41 -28 -95 -48t-129 -19q-80 3 -126.5 34.5t-46.5 85.5q0 88 34 123.5t96 35.5q2 0 13 -2
t26 -8t31.5 -16.5t29.5 -28.5q5 -8 8.5 -15.5t6.5 -12.5q3 -6 6 -10.5t9 -7.5t15.5 -4t26.5 -1q71 1 112 62q18 27 27.5 59.5t9.5 73.5q0 344 -531 344h-6q-60 -6 -111 -22t-93 -42q-60 -38 -85.5 -93.5t-25.5 -128.5v-186q0 -77 -0.5 -172t-0.5 -218v-644v-332t1 -271
q0 -30 -7.5 -62t-20.5 -63.5t-31.5 -60.5t-41.5 -53h1q-43 -46 -106 -75q-68 -21 -116.5 -35t-99.5 -21.5t-102.5 -10.5t-102.5 -2q-53 1 -119 3t-134 10.5t-132 28t-114 55t-80.5 91t-30.5 136.5q0 229 419 229h11q24 0 55.5 1t66 2.5t70 4.5t66.5 7q45 8 81 21t57 27
q13 8 13 49h107q0 -79 -34 -110q-16 -14 -34.5 -25.5t-41.5 -22.5t-51.5 -20.5t-56.5 -14.5q-42 -8 -87 -12t-88 -6t-82 -2.5t-70 -0.5q-48 0 -89 -7t-75 -23q-88 -16 -91 -62q6 -42 45 -67t94.5 -39t118 -18.5t114.5 -4.5h79q76 0 138 6t111.5 20.5t87 37t89.5 55.5
q28 33 47.5 63.5t30.5 78.5q25 94 25 252z" />
    <glyph glyph-name="ae" unicode="&#xe6;" horiz-adv-x="1295" 
d="M294 398q19 -39 45.5 -69.5t63 -52t85.5 -32.5t115 -11q98 0 164 17t100 35q40 26 62.5 88.5t22.5 159.5q0 40 -7.5 80.5t-19.5 80t-27.5 78.5t-31.5 77v-1q-7 15 -10.5 26t-3.5 20q0 26 18.5 34t60.5 8q69 0 123 -35t91.5 -90t57.5 -121.5t20 -130.5v-559l-108 -1v61
q1 60 1.5 111t0.5 92q1 23 1 44.5v41.5v48q0 52 -5.5 104.5t-17.5 98t-30.5 81t-43.5 53.5q23 -80 29 -142.5t6 -107.5q0 -34 -1.5 -69.5t-5 -69.5t-9 -65.5t-13.5 -56.5q-9 -26 -21 -50t-29 -45q-48 -57 -140 -92.5t-233 -35.5q-69 0 -132.5 20t-117.5 60t-95.5 100.5
t-64.5 142.5z" />
    <glyph glyph-name="ccedilla" unicode="&#xe7;" horiz-adv-x="1096" 
d="M304 398q20 -39 46 -69.5t63 -52t86 -32.5t115 -11q98 0 164 17t99 35q17 10 32 25.5t29 35.5q3 10 6 21.5t5 22.5q30 152 52 243.5t30 106.5h-1q109 198 463 198q116 0 211 -35t167 -100q67 -68 106 -163.5t39 -208.5q0 -191 -107 -306q-111 -122 -297 -122
q-5 0 -16.5 1t-28.5 3q-24 3 -56.5 7.5t-56.5 6.5q-2 16 -4.5 37t-4.5 34q-1 4 -2.5 13.5t-3.5 20t-3.5 19.5t-2.5 14q54 -20 100 -29t79 -9q302 0 302 336q0 63 -44.5 110t-132.5 80q-126 47 -278 47q-288 0 -364 -132q-4 -7 -9.5 -30.5t-11.5 -71.5q-2 -17 -5 -35t-7 -35
v3q0 -1 -0.5 -1.5t-0.5 -2.5q2 -22 0 -44q-5 -53 -15.5 -95.5t-28.5 -77.5t-45.5 -63t-66.5 -52q-51 -28 -122 -42.5t-168 -14.5q-69 0 -132.5 20t-117.5 60t-95.5 100.5t-64.5 142.5z" />
    <glyph glyph-name="asterisk" unicode="*" 
d="M-982 1657q-22 -19 -54.5 -62t-76.5 -113q-8 2 -20 6t-24.5 8t-23.5 8t-18 7q40 122 84.5 224t98.5 193q8 1 21.5 2t19.5 2q89 -38 173.5 -128.5t164.5 -230.5q65 -117 114.5 -234.5t79.5 -236.5q-6 -7 -17.5 -17.5t-18.5 -16.5q-5 -5 -14 -12.5t-20 -15.5
q-45 95 -101 189.5t-121 189.5h1q-81 115 -142 176.5t-103 63.5z" />
    <glyph glyph-name="bracketleft" unicode="[" horiz-adv-x="1485" 
d="M1306 0v308q0 12 -0.5 40.5t-2 65.5t-4.5 79t-9 81t-14.5 72t-21.5 52q7 -36 9.5 -70t2.5 -65t-1.5 -59t-3.5 -51q-8 -87 -24.5 -148t-44 -105.5t-66.5 -78t-90 -65.5q7 -29 13 -61.5t11 -67.5l-87 -12q-7 61 -24 102q-40 -11 -70 -14t-61 -3q-225 0 -351 131
q-104 110 -104 295q0 31 3 61q0 17 1.5 40t5.5 55t6 55t2 37q0 20 -8 44q-6 7 -15 11q-61 -24 -61 -144q0 -16 3 -38.5t17 -51.5q-10 -10 -16.5 -15.5t-11 -9.5t-8.5 -6.5t-9 -6.5q-5 -5 -13.5 -13t-9.5 -9q-50 112 -50 206q0 54 9 102.5t26 87.5q23 52 58.5 79.5t80.5 27.5
q128 0 128 -172q0 -29 -4 -68t-13 -88q-18 -98 -18 -150q0 -8 -0.5 -16t-0.5 -14q0 -110 122 -149q35 -12 97.5 -20t154.5 -11q-39 60 -81.5 111.5t-86.5 93.5l-69 -69l-70 33q39 81 80.5 141.5t83.5 100.5q68 -78 136.5 -177.5t141.5 -229.5q179 36 179 227q1 9 1 18v20
q0 77 -12.5 172t-40.5 211l29 36q81 -2 140 -39.5t91 -110.5v1q52 -97 52 -346v-443h-107z" />
    <glyph glyph-name="eight" unicode="8" horiz-adv-x="1387" 
d="M975 1112q-15 0 -27 -6q-11 -14 -11 -24q0 -13 15 -23.5t38 -21.5q10 -3 22 -5.5t22 -4.5q9 -1 25 -2t35 -1q-67 88 -119 88zM313 451q-15 -4 -26 -6t-22 -5l-30 -8q-20 77 -28.5 132.5t-8.5 93.5q0 273 176 273q137 0 137 -150q0 -23 -5.5 -61t-17.5 -92l1 1
q-22 -98 -22 -151q4 -231 379 -231q356 0 356 336q0 59 -9 127.5t-27 150.5q-20 -2 -40.5 -3.5t-39.5 -1.5q-115 0 -178 51q-89 71 -89 174q12 151 157 151q9 0 18.5 -0.5t17.5 -1.5q93 -2 200 -177q68 30 101 68q39 47 74 121l36 -18h-1q15 -7 28 -12.5t24 -10.5
q-33 -201 -208 -304q26 -94 39.5 -194t13.5 -200q0 -131 -30 -215q-14 -44 -35.5 -81.5t-47.5 -70.5q-62 -65 -156.5 -101t-225.5 -36q-242 0 -356 122q-109 118 -109 286q0 24 3.5 58t8.5 79q6 40 12 105q0 3 0.5 6t0.5 6q5 50 -35 50q-37 0 -44 -62q-2 -10 -2 -18v-17
q0 -31 5.5 -65.5t16.5 -72.5z" />
    <glyph glyph-name="U" unicode="U" 
d="M-151 -1702q-22 3 -38.5 12.5t-36.5 32.5q241 424 241 671q0 276 -335 341q68 176 102 324.5t36 311.5h107q0 -128 -6 -229t-21 -219q285 -77 285 -372q0 -310 -315 -863z" />
    <glyph glyph-name="circumflex" unicode="&#x2c6;" horiz-adv-x="1129" 
d="M627 314q135 0 200.5 47.5t67.5 135.5q0 39 -22.5 70t-60.5 52t-87 32t-102 11q-51 0 -97.5 -11.5t-82.5 -33t-59.5 -52.5t-28.5 -70q0 -38 19 -71t54 -57.5t85 -38.5t114 -14zM623 139q-85 0 -163.5 27.5t-139 76t-96.5 114t-36 140.5q0 74 24.5 142.5t77 121t135 83.5
t198.5 31t199 -30.5t136.5 -82.5t78.5 -120.5t25 -144.5q0 -71 -35.5 -135.5t-96 -114t-140 -79t-167.5 -29.5z" />
    <glyph glyph-name="OE" unicode="&#x152;" horiz-adv-x="1546" 
d="M1366 4v23.5t-1 21.5q-1 11 -1.5 25.5t-0.5 32.5q0 12 0.5 25.5t1.5 28.5q0 64 -1.5 133t-7 130t-16 109.5t-28.5 72.5q-25 38 -58.5 67.5t-79.5 43.5q36 -32 61 -73.5t40.5 -88.5t22.5 -96.5t7 -97.5q0 -357 -244 -357q-107 0 -181 189q-2 5 -3.5 12t-3.5 12
q-5 19 -7.5 28t-4.5 14q-20 30 -55 32q-47 1 -71 -23q-12 -12 -34 -55q-8 -20 -17 -45.5t-20 -59.5q-2 -4 -3.5 -9t-3.5 -9q-44 -86 -180 -86q-54 0 -95.5 23t-71.5 67q-24 38 -37 83t-13 99q0 43 20 108t60 156l-1 -1q35 90 53 138t18 66q0 5 -23 0q-32 -5 -58 -58
t-46 -166h-81q36 414 271 414q97 0 97 -133q0 -22 -25 -76t-73 -143q-98 -177 -98 -204q0 -132 178 -132q29 0 69 68h-1q17 31 34 61t34 61q51 69 109 69q67 0 110 -70l55 -128q46 -74 103 -74q118 0 118 230q0 103 -69 176q-34 38 -76.5 57t-90.5 19q-13 0 -107 -36
q77 261 285 261q156 0 252 -108v1q94 -102 94 -259v-569h-105z" />
    <glyph glyph-name="plus" unicode="+" horiz-adv-x="1061" 
d="M653 363v-346h-127v346h-337v132h337v348h127v-348h341v-132h-341z" />
    <glyph glyph-name="slash" unicode="/" horiz-adv-x="539" 
d="M607 -1730q-401 237 -401 1063q0 70 5.5 167.5t16 213t25 245.5t32.5 265q19 141 33.5 270.5t24.5 243.5t15.5 210t5.5 168q0 553 -403 553q-187 0 -285 -144.5t-104 -417.5q-19 -11 -38 -17.5t-34 -11.5q-16 67 -24 128.5t-8 118.5q0 127 36 236t102 188.5t158 124.5
t205 45q496 0 496 -712q0 -125 -10 -307t-30 -432q-20 -249 -30 -430.5t-10 -306.5q0 -224 10 -410.5t27 -321.5q15 -96 38.5 -190t55.5 -183.5t72.5 -173t89.5 -157.5z" />
    <glyph glyph-name="Zcaron" unicode="&#x17d;" 
d="M-1175 -813q-53 -49 -53 -118q0 -25 12 -25q25 0 40.5 41.5t20.5 113.5zM-668 -799q-54 18 -111.5 28.5t-124.5 16.5q26 -52 57.5 -89.5t73.5 -66.5q49 -35 95.5 -51.5t96.5 -16.5q45 0 70 11t31 30q-28 83 -188 138zM582 -1467q-27 51 -65 75t-90 24q-64 0 -191 -27v1
q-66 -16 -113.5 -22.5t-76.5 -6.5q-194 0 -237 118q-18 49 -18 152v32q27 424 24 471q-2 23 -4.5 40.5t-5.5 27.5q-32 94 -135.5 145t-284.5 51q-269 0 -311 -138q110 -5 206 -26.5t174 -59.5q211 -106 211 -297q0 -82 -66 -127h1q-61 -43 -143 -43q-77 0 -150 23t-137 66
q-65 43 -112 102t-72 134q-8 0 -10 -0.5t-4 -1.5q-7 -2 -11.5 -2.5t-9.5 -1.5q-3 -73 -14.5 -131.5t-30.5 -100t-46.5 -63.5t-62.5 -22q-150 0 -150 220q0 98 212 271v38q2 85 -20 129.5t-64 51.5q-30 -6 -49 -30t-22 -63q-6 -21 -13.5 -70t-17.5 -119q-7 -2 -19 -4t-18 -4
q-3 -1 -9.5 -2.5t-14 -3t-14 -2.5t-9.5 -2v123q0 69 9 128t25 110q51 148 161 148q85 0 128 -93t47 -291q1 0 3.5 0.5t3.5 0.5q15 107 53 183t97 124q50 35 120.5 57t158.5 22q14 0 29.5 -0.5t29.5 -2.5q11 0 19 0.5t18 0.5q260 0 355 -134q47 -64 69 -146t22 -184v-21.5
t-1 -22.5q-10 -88 -15.5 -161t-5.5 -133q0 -193 51 -241q13 -6 30.5 -11t32.5 -5q42 0 98 33q59 8 102 12.5t75 4.5q150 0 234 -70q59 -52 132 -200z" />
    <glyph glyph-name="tilde" unicode="&#x2dc;" horiz-adv-x="226" 
d="M103 901q0 -254 0.5 -411.5t1.5 -217.5v-156l-2 -1277q4 -530 -336 -530q-30 -2 -58.5 -3t-55.5 -1q-439 0 -436 223q-2 12 3 37t16 61q-29 -2 -60.5 -3.5t-64 -2.5t-63 -1.5t-55.5 -0.5q-495 0 -691 157q-72 41 -115 187v-1q-15 63 -23.5 126t-8.5 130q0 156 43.5 335
t129.5 381q8 1 9.5 1t9.5 1h1q-71 -189 -105.5 -348.5t-34.5 -296.5q0 -322 237 -425h-2q170 -94 588 -94q32 0 64.5 0.5t65.5 1.5q521 15 600 47h-2q26 7 46 17t33 24q6 8 12 21t9 28h22q-18 -107 -107 -167q-6 -5 -24.5 -11t-39.5 -13q-27 -8 -96 -14.5t-180 -11.5
q-33 -8 -64 -19t-54 -22q-62 -29 -57 -103q-2 -107 307 -107q36 0 78.5 1.5t87.5 4.5q165 2 253.5 131.5t93.5 389.5q0 485 -1 966t-1 966h12h14v0zM89 901h-32v39l66 1v-39l-20 -1v1zM-140 -1084q0 -4 -1 -6h-89q51 34 69 34t21 -28zM-119 -1090l3 30l39 -2v-28h-42z" />
    <glyph glyph-name="Euro" unicode="&#x20ac;" horiz-adv-x="1259" 
d="M864 0l-236 329q-61 -81 -123.5 -164.5t-122.5 -164.5h-222l358 479q-36 50 -75.5 105t-80 111t-80 110.5t-74.5 104.5h218l205 -280q51 69 105 140.5t105 139.5h215l-318 -429q40 -56 84.5 -117.5t89.5 -124.5t89 -124t83 -115h-220z" />
    <glyph glyph-name="two" unicode="2" horiz-adv-x="1834" 
d="M1116 -480q-328 130 -393 130q-47 0 -90 -15.5t-82 -39.5q-45 -26 -62.5 -56.5t-17.5 -72.5q0 -107 38 -177q36 -67 124 -128q87 -59 174.5 -120t174.5 -121q31 -27 61 -60t55.5 -72t44 -84.5t26.5 -97.5q54 97 100 194t90 197q36 80 68.5 156t62.5 148q6 15 11 25.5
t9.5 20t8.5 20t10 24.5q-87 11 -187 44t-227 86zM1952 -459q-108 -96 -293 -146q-34 -89 -65 -165t-61 -146t-61.5 -138t-66.5 -141q-77 -161 -170 -298t-203 -255l-126 57q164 146 164 288q0 133 -171 252v-1q-88 60 -175 120.5t-175 120.5q-201 139 -201 345
q0 181 174 300q156 108 346 108q64 0 134 -20.5t139 -57.5q14 -8 75 -44t175 -103q47 -28 91.5 -48t92.5 -31q39 154 60 335.5t21 405.5q0 409 -268 409q-45 0 -80.5 -10t-66.5 -34t-59 -65t-57 -103q-131 209 -267 209q-113 0 -176 -77.5t-63 -214.5q0 -38 7.5 -73.5
t24.5 -75.5t45 -88t69 -111q0 5 2 5q0 -54 -45 -54q-54 0 -111 21.5t-106 58t-83.5 86t-43.5 106.5v-1q-2 11 -2.5 27.5t-0.5 36.5q0 51 3.5 109.5t8.5 108.5q3 32 5 61t2 44q0 18 -5.5 36.5t-23.5 18.5q-28 0 -39.5 -26t-11.5 -61q0 -14 1 -36.5t3 -44.5q0 -8 0.5 -18.5
t1 -20t1 -17t0.5 -10.5l-96 -12q-22 98 -22 180q0 63 12.5 116t35.5 91.5t55 60t72 21.5q139 0 139 -231q0 -22 -5.5 -57.5t-13.5 -77.5v1q-8 -46 -15 -90t-7 -70q0 -19 3 -45.5t10.5 -54t19.5 -51.5t30 -38q-17 40 -21.5 77t-4.5 74q0 112 17.5 207.5t59.5 180.5
q48 89 121.5 131.5t161.5 42.5q89 0 153 -50t105 -161q22 39 45.5 76t54.5 72q20 21 42 34t48 20t59 9t76 2q37 0 75.5 -13.5t73 -42.5t63.5 -74t46 -107q20 -69 27 -139t14 -145q2 -21 4 -41.5t4 -41.5q0 -74 -4 -160t-12 -185t-21 -213.5t-31 -245.5q51 9 99.5 29.5
t96.5 52.5z" />
    <glyph glyph-name="zcaron" unicode="&#x17e;" horiz-adv-x="1586" 
d="M861 1343l-75 -250q-1 -1 4 -4h1q8 -3 12.5 -4.5t12.5 -3.5l12 -3q22 -6 32 -6q7 0 33 6q13 2 20 4.5t12 4.5q2 0 3.5 0.5t3.5 0.5t4 1zM862 502q131 0 195.5 38t68.5 107q0 31 -23 54.5t-60.5 40t-85.5 25t-98 8.5q-51 0 -96.5 -8.5t-81 -25t-58 -41t-27.5 -55.5
q0 -30 18.5 -56t53 -45.5t83.5 -30.5t111 -11zM1513 776q0 -141 -45.5 -258t-130 -200.5t-206 -130t-273.5 -46.5q-149 0 -269 45.5t-205 129t-131.5 200.5t-48.5 260l126 -9q20 -102 61 -174t97 -120t124.5 -74.5t143.5 -35.5q-67 12 -125.5 38.5t-102.5 63.5t-69.5 83.5
t-25.5 98.5q0 54 19 104.5t60 91.5t105.5 69.5t154.5 37.5q-13 3 -26 7t-25 9q-32 14 -51.5 30.5t-19.5 54.5q0 11 1 19.5t3 17.5l155 494q23 29 52 29q27 0 51 -32l153 -487q6 -21 6 -36q0 -17 -5.5 -29.5t-13.5 -23.5q-27 -28 -57 -37q-11 -5 -24 -9t-26 -7
q90 -9 155 -36.5t107 -68t62 -91.5t20 -107q0 -49 -25 -95t-69 -83.5t-103.5 -65t-128.5 -39.5q75 10 143.5 36t124.5 74t97 120t61 173z" />
    <glyph glyph-name="three" unicode="3" horiz-adv-x="1810" 
d="M596 -622h1q-368 -112 -368 -454q0 -289 254 -429q-2 14 -3 31.5t-3 31.5v43q0 134 39.5 242.5t112.5 184.5t177 117t234 41q236 0 424 -147q199 -157 199 -383q0 -213 -109 -385l-75 28q38 92 57 162.5t19 121.5q0 367 -572 367q-90 0 -165 -28t-129 -78.5t-84 -121
t-30 -154.5q0 -32 14.5 -98t46.5 -172q-132 40 -227.5 99t-154.5 134q-61 81 -94.5 181t-33.5 225q0 461 409 602l726 215l-2 -1q371 156 371 566q0 379 -257 379q-60 0 -116 -42t-121 -124q-15 -15 -28 -15q-6 0 -13 2.5t-13 9.5q-64 70 -110.5 111t-90.5 41
q-70 0 -120.5 -17.5t-83 -59t-48 -110t-15.5 -169.5q0 -41 9.5 -77t29 -69.5t48.5 -66.5t68 -69l-21 -46q-96 2 -167.5 21t-119 59t-71.5 101t-24 147q0 13 1 35t2 49t2.5 57t3.5 58q3 42 5 74.5t2 43.5t-1 23.5t-3.5 23.5t-7 19t-12.5 10q-17 -2 -27.5 -8.5t-16.5 -17.5
t-8.5 -26.5t-3.5 -35.5q2 -15 2 -32.5t1 -34.5t2 -42.5t2 -41.5l-82 -16q-28 128 -28 182q0 145 43.5 224t135.5 79q35 0 58 -13t37 -37t20 -57.5t6 -74.5q0 -48 -5.5 -96.5t-12.5 -99.5q-8 -54 -14 -106.5t-6 -101.5q0 -43 12 -79.5t43 -57.5q-11 34 -14 63.5t-3 57.5
q0 10 0.5 19t0.5 18q1 11 1 21.5v21.5q0 112 21.5 207.5t63.5 165.5t103 109.5t139 39.5q67 0 112 -11.5t76.5 -35.5t54 -62t43.5 -92q14 43 35 80t49.5 64t65.5 42t85 15q384 0 384 -528q-3 -677 -407 -862z" />
    <glyph glyph-name="ellipsis" unicode="&#x2026;" 
d="M-1456 -974v-3v3zM-461 -970q4 6 6 8l-5 -3q0 -3 -1 -5zM-190 -1112l3 322q-1 123 -25 205t-63 132.5t-88.5 73.5t-101.5 27q43 -26 81 -69t67 -97.5t46.5 -117t18.5 -126.5q0 -47 -7 -97.5t-25.5 -95.5t-50 -81t-80.5 -55q-42 -17 -101 -17q-8 0 -19.5 0.5t-19.5 1.5
q-7 0 -19 6q-2 1 -7 4.5t-9 5.5q-1 2 -4 4.5t-5 7.5q-4 5 -5 13.5t2 16.5q11 31 19 65.5t16 71.5q7 31 7 44q0 10 -3 22t-8 28q-17 38 -52.5 59t-88.5 21q-44 0 -73.5 -9.5t-51 -27t-38.5 -43t-36 -57.5q-2 -5 -6.5 -12t-7.5 -12q-6 -7 -15 -10.5t-18.5 -3.5t-17.5 4.5
t-12 12.5q-16 32 -37.5 63t-48.5 56t-59 40t-68 15q-78 0 -119.5 -34.5t-41.5 -101.5q0 -23 8 -60q7 -35 16.5 -69.5t21.5 -64.5q6 -16 2 -27t-12.5 -17.5t-19.5 -10t-20 -4.5q-61 8 -107.5 21.5t-77.5 39t-47 67t-16 106.5v19t1 20q1 10 2 21t2 19q2 15 3 27.5t1 23.5
q0 23 -10.5 36.5t-43.5 13.5q-10 0 -16 -9.5t-9 -23.5t-4 -30.5t-1 -30.5v-13t0.5 -16t0.5 -15v-10h-91q-9 48 -9 97q0 42 7 86.5t24 81t46.5 60t73.5 22.5q44 0 71.5 -18t43.5 -46t21.5 -64t5.5 -72q0 -26 -2 -50t-4 -44q-3 -21 -4 -38t-1 -31q0 -44 12 -66.5t35 -38.5
q-9 35 -15 74t-6 81q0 58 13.5 114t46.5 100t88.5 71t138.5 27q54 0 94 -21.5t68.5 -56t48 -78t33.5 -88.5q16 51 36.5 96t51.5 79t75.5 54t107.5 20q59 -5 103.5 -38t74.5 -79.5t46 -98t17 -93.5q0 -12 0.5 -21.5t0.5 -17.5q0 -18 -1 -30.5t-2.5 -22.5t-4 -19t-5.5 -20
q-2 -5 -4 -11.5t-4 -14.5q2 3 5 5.5t5 5.5q10 9 21 21t20.5 30.5t17 46t10.5 68.5q4 51 -14 111.5t-56.5 113.5t-97 90t-134.5 41q-11 2 -20 2h-17q-40 0 -71 -9t-57 -17q-12 -5 -21.5 -3t-15 8.5t-7 16.5t2.5 22q14 61 53 106t87.5 75t99 45t87.5 16q138 1 231 -40.5
t149.5 -109.5t80.5 -155t23 -177v-466h-115z" />
    <glyph glyph-name="four" unicode="4" horiz-adv-x="897" 
d="M544 -1q-70 0 -132 20t-109.5 65.5t-78 119t-36.5 181.5h75q20 -68 48.5 -104.5t63 -53t74 -19t80.5 -2.5h20q63 0 99.5 35t36.5 99q0 27 -13 45t-48.5 29t-97.5 16t-160 5l22 106q66 2 112 7.5t74.5 16.5t41.5 29.5t13 45.5q0 20 -6 38t-20 31.5t-37.5 21.5t-58.5 8
q-31 0 -55 -7.5t-42 -24.5t-31.5 -44.5t-23.5 -68.5h-82q0 3 -0.5 16t-0.5 16v12q0 143 61 217.5t198 74.5q48 0 91.5 -13t77 -37t53 -59t19.5 -78q0 -69 -24 -125.5t-63 -98.5q76 -45 112 -114.5t36 -169.5q0 -52 -23 -95.5t-62 -74.5t-91.5 -48.5t-112.5 -17.5z" />
    <glyph glyph-name="question" unicode="?" horiz-adv-x="943" 
d="M379 147q0 155 134 155q130 0 130 -155q0 -152 -130 -152q-134 0 -134 152zM627 455q-52 -19 -78 -19q-265 0 -265 316q0 75 44.5 169t135.5 207q87 109 130 190.5t43 141.5q0 192 -153 192q-126 0 -177 -146l-34 4l-19 164q96 95 256 95q146 0 227 -102h-1
q84 -100 84 -266q0 -154 -188 -409q-180 -245 -180 -315q0 -120 103 -120q17 0 42 4t59 13z" />
    </font>
</defs>
</svg>
